/* XPM */
static char *background_resized[] = {
/* columns rows colors chars-per-pixel */
"50 50 38 1 ",
"  c #07628F",
". c #09628F",
"X c #066593",
"o c #0A6693",
"O c #066896",
"+ c #0C6996",
"@ c #066C9B",
"# c #0C6C9A",
"$ c #116A96",
"% c #126D99",
"& c #07709F",
"* c #0B719F",
"= c #14719D",
"- c #19729D",
"; c #066FA0",
": c #096FA0",
"> c #0674A3",
", c #0B74A2",
"< c #0778A6",
"1 c #0C78A6",
"2 c #0577A9",
"3 c #057AAB",
"4 c #0B7BAB",
"5 c #1375A3",
"6 c #1A76A1",
"7 c #1479A5",
"8 c #1A7AA6",
"9 c #137DAA",
"0 c #1A7DA9",
"q c #0C7FB0",
"w c #107FB0",
"e c #237BA4",
"r c #1480AE",
"t c #1B81AC",
"y c #1382B1",
"u c #1B83B1",
"i c #2182AD",
"p c #2789B2",
/* pixels */
"%+ooo++++%=++XXo+++o++%%%=%$%oX+#o++ooXOOXX+o++++$",
"$$+++oo++++$%oX +$+ooo%%$$$%$ooooXo+.ooOO@+@+oo+++",
"+oo+++@+#=#++XXXoooXXo$$+++%$oo+XXooXXO#@@###@+++:",
"+oXXO#@:#*###+OXX#O+++###++#$XXo+XOoXXX@@@@;@#O++$",
"o .o++@+++++#o+X++++O+$+++o$$Xo+oo++  XOOOO###o+oo",
"..ooo+o+oo+$$ooXo+ooXo$$$oo$+XXoooooO  XXXXXo#oXoo",
"o..oooo$$$$$$Xo.oo$ooo$$$%$.$.$$o.oX   XXOXX++o$$$",
"oooo$++$$%--$ooXo$$$+$%$++$.$$.$%++X  XOOOOO++$+$$",
"$ooo++++==%$#o+++%##++%%$+X+oXo+#+o+XXXXOXXo:++$$%",
"o.oo+$+$$+++#o+$$$oo++6%++o+++oXXXXXXXXOO@Xo$+++$$",
"%++:%::+#:%*##O+#%####%#####%#+OOO#+oOO@;@:@:%+#+:",
"11:::1:17115,;;;,,:,::5,,**,,@@&@@&>;;>>>2>1>1>175",
"w422343wqw417;>;,,,,>>7977,,7,>>,>,,;>222333q3444w",
"444434q3qw911>:;,,>,:5794417,,>43><,>>233333343q4w",
"141422214441,:;;,,,,:,771,,5,:;2>>,,;>>23133121414",
",>>,511111155;@@%,,>:#,,71:55@#,,,,;@;>232217,>,,1",
",,@&*1**1r=**@OO##@OO##:#5#5#O##@@@O@O;>2>>>,#:,55",
"%@@*********#@OO##@O##$####5%+######O@@;>>>,,,@::#",
"#++#******@**++O##@#O#$%###$+oo#OO#+OOOO@@*@@###++",
"XXoX++++++%%%OoO+o##X#%#%$#+oo$#oXooXXXOOOOO##o++$",
"oooo$+++$%--++oX+++++$%##$+$$++$$X+XXXXOOOXO+#++$%",
"oo+o++++%--++$$X$$++X$%%$+X+oo$+$X+X XXO@OO+++#+%%",
"@Xoo+#*===%##+$+$#+++$%%#+X#ooXXXOXXXXOO@@&**#+%%%",
"+X++####*####+O+$$##+$%%#++$#oooOOoOOOOO@@@O=##++$",
"ooooo$o++++++OXo$++++$%+++o$oooooX++.XXXXXo@@+o+$+",
"oo.oooo+o$$o$XXX$oooo$%$$$X$oX.ooXo.   XXXXXooo+$+",
"$....ooooooo    .ooooo$+o$.$$......    XOOooo.oo.o",
"ooooXXoo+oXOO X Xoo+oo+++++$..XXXXoXXXXXOO@X@XOooo",
".XXXXX+XOXOOOXOXXoOOXo++++++oX.X+X+XX XOOOXOOXXoXX",
"o.XXXXoXOO XX XX.XXXXXXXo+o+oXXoXXXXX XOOOOXXXoXo.",
"oooXo@:+*++++OO ooXOXX+++++%ooooXX+XXXOO@@@O#@@+@+",
":::::::>*=r**&@@***&&*75,**,*@@*,@*;@;;;>>>;:::5**",
"4444444499979,>>51,,<,991,*1,,>1,>>,>11434qq4444w9",
"q334qwqqww994,,>11,,,10911<00,,44><,;2233333qqqqwy",
"43244uwwwyw00,5@1771*10rt9,75,194<7,>>233334qu4ww9",
"7111997wwipii,5,,775*500tt778589t17,;;>2322179799u",
"7,577779tii08,5=6i8*%-ii55&*=*=,7,*,@@;2221177570e",
"8::5575797856##%--=%%-e-=**=-=#++#=*##@;>2>777,555",
"6-:*:**587765#O#==*%%%66--=--++*##=##O@;;>>,:5:-66",
"%%$++:=5===#=#OX+*%*O%--=-=--+++#+#+OoO@@O###:#%%%",
"$$++o+%++%=++OXo+$+++=-=$=$%%ooo+o++ooXOOO++O#+++$",
"$$o+++X+o++$$+oX+$++o+%%$$$-%oo$ooooXXXOOOO+++++oo",
"+ooo+++##%#++XX +ooX.o$++$+%$.ooooXoXXXO@@####o#$$",
"+oOOO####**+++oXX+OOo++%+++$$oX+#X+OXXO@@&@@#@o##+",
"oXX+o*+##+%$*++Xo+#+O+$$#+O+$Xo+oX#oXXXOOOO###+oo+",
"XXXXo++ooo+%%o+Xo$++Xo=$=o++$.o+XX++X XXOXXoo#oooo",
".....$o++%$$$.oX.$$oo+$$$%+$$o$$$.+o   XXXXXo$#$$$",
"$o$oo$$$+%-%$oo.$.$$+$$$o$.o$.o+$$o.  XOOO+++++++$",
"oooo+++%%=%+#+++$$#+o+%%$+XooXooooXoX XXOOOOO#+$%%",
"o..o+$+++%#$$+++$%O+++%%#+o+#oooXoooXXXXOOOO+++#$$"
};
