/* XPM */
static char *c72b565dcc894e59904535db582ff36eBQM64bflJ4D2q6tg[] = {
/* columns rows colors chars-per-pixel */
"52 45 212 2 ",
"   c None",
".  c #193913",
"X  c #042608",
"o  c #383816",
"O  c #262917",
"+  c #3E3526",
"@  c #743611",
"#  c #7D3D14",
"$  c #6D300F",
"%  c #4E3229",
"&  c #4F3620",
"*  c #54352B",
"=  c #5A392F",
"-  c #5C3B31",
";  c #502823",
":  c #662624",
">  c #0C4A10",
",  c #124810",
"<  c #0D5714",
"1  c #0E4E12",
"2  c #0D6616",
"3  c #0E7519",
"4  c #12721D",
"5  c #136D1E",
"6  c #197923",
"7  c #1F6E27",
"8  c #287E30",
"9  c #4C4A1E",
"0  c #71471A",
"q  c #564035",
"w  c #684539",
"e  c #744A2C",
"r  c #7F7027",
"t  c #6E4D42",
"y  c #72544A",
"u  c #823E14",
"i  c #8F3D11",
"p  c #933C11",
"a  c #893C0E",
"s  c #AC2D1D",
"d  c #B73620",
"f  c #C9281E",
"g  c #D92725",
"h  c #E43534",
"j  c #844215",
"k  c #894414",
"l  c #864319",
"z  c #8B4619",
"x  c #8D491C",
"c  c #934C1B",
"v  c #9B4D1C",
"b  c #954615",
"n  c #98521D",
"m  c #A34B17",
"M  c #A3521D",
"N  c #AB551D",
"B  c #AD5B1A",
"V  c #A3591D",
"C  c #B7591A",
"Z  c #B2631F",
"A  c #BA601F",
"S  c #AF601D",
"D  c #9C4720",
"F  c #9D5521",
"G  c #9A5621",
"H  c #A54723",
"J  c #A35B23",
"K  c #A95A22",
"L  c #B45D21",
"P  c #AB6225",
"I  c #AC6429",
"U  c #AA682B",
"Y  c #B36424",
"T  c #B66924",
"R  c #B96B26",
"E  c #B36A2B",
"W  c #BA6D2B",
"Q  c #B66527",
"!  c #BE712B",
"~  c #BF782E",
"^  c #B77839",
"/  c #A7753A",
"(  c #987833",
")  c #C6651E",
"_  c #C56924",
"`  c #D36D26",
"'  c #C2742D",
"]  c #C4782F",
"[  c #C9782F",
"{  c #C9752D",
"}  c #D67726",
"|  c #C57B32",
" . c #C97C32",
".. c #C37C38",
"X. c #D27E32",
"o. c #E27B2B",
"O. c #B47B4A",
"+. c #89754F",
"@. c #E74746",
"#. c #E97472",
"$. c #11841D",
"%. c #1B962C",
"&. c #279A35",
"*. c #259031",
"=. c #2AA939",
"-. c #32AA3E",
";. c #27B73E",
":. c #7C8536",
">. c #28C03F",
",. c #2BB944",
"<. c #35BC44",
"1. c #3EA241",
"2. c #5FB74A",
"3. c #6BAF4F",
"4. c #5DBE61",
"5. c #2DC349",
"6. c #3BCD4B",
"7. c #39C749",
"8. c #3DD246",
"9. c #3FD24B",
"0. c #3DCA53",
"q. c #3ED156",
"w. c #42C74D",
"e. c #43D44C",
"r. c #43D246",
"t. c #42CD52",
"y. c #56C959",
"u. c #42D253",
"i. c #4AD456",
"p. c #44D459",
"a. c #4CD75B",
"s. c #4ED95C",
"d. c #4DD953",
"f. c #52DC5A",
"g. c #4CD861",
"h. c #57DD65",
"j. c #61DF6A",
"k. c #76DC7A",
"l. c #69CE6D",
"z. c #5BE068",
"x. c #63E26B",
"c. c #77EA7E",
"v. c #988436",
"b. c #A98237",
"n. c #DE8325",
"m. c #CB8A3D",
"M. c #CB8439",
"N. c #D48535",
"B. c #D28A3D",
"V. c #D98A36",
"C. c #DD933D",
"Z. c #E78B2A",
"A. c #E7952D",
"S. c #E58C35",
"D. c #E3933B",
"F. c #EA9838",
"G. c #EEA637",
"H. c #F1A93B",
"J. c #ADDB33",
"K. c #C5DC2E",
"L. c #969055",
"P. c #A8995E",
"I. c #A59E65",
"U. c #A59762",
"Y. c #9FA866",
"T. c #CE8F40",
"R. c #D18F41",
"E. c #CE9141",
"W. c #D59643",
"Q. c #E79D41",
"!. c #DAA74C",
"~. c #DAA655",
"^. c #E9A749",
"/. c #F2AA49",
"(. c #F3BB46",
"). c #E8AE57",
"_. c #EDB856",
"`. c #F4BC54",
"'. c #F3B955",
"]. c #EFB24F",
"[. c #C08A73",
"{. c #DCB973",
"}. c #DCAF63",
"|. c #E7B968",
" X c #8EDB4D",
".X c #F5C247",
"XX c #F6CB56",
"oX c #F5C25C",
"OX c #F4C95D",
"+X c #F7D15B",
"@X c #E8C367",
"#X c #F6CC64",
"$X c #F8CA63",
"%X c #F7D66B",
"&X c #F9DA6D",
"*X c #F7D366",
"=X c #E8C87B",
"-X c #FADC71",
";X c #F9DC7A",
":X c #79EB80",
">X c #DFAFA7",
",X c #EAABAC",
"<X c #E9B6B4",
"1X c #EA8986",
"2X c #9DDF8A",
"3X c #A3D386",
"4X c #83ED87",
"5X c #8AF18C",
"6X c #91F591",
"7X c #F1D78B",
"8X c #F9E092",
"9X c #F0C4C3",
/* pixels */
"                                                                                                        ",
"                                                                                                        ",
"                                                                                                        ",
"                                                                                                        ",
"                                                                                                        ",
"                                                                                                        ",
"                                                                                                        ",
"                                           . .{ [ { {  .X.N.D./.                                        ",
"                                  S.S.D.D.}.=X .[ ' ' ^ ^ P.' { ..B.W.).                                ",
"                                @X]././.^.Q.D.V.V. .' E I K Q Q W ! N.M.!.                              ",
"                              ^.`.`.`.].]./.D.D.N.] W U J J J K I E ! !  .W.                            ",
"                          /.`.oX$X%X#X#X`.^.^.C.N.] W E U J J J J J I ! ' ! N.                          ",
"                        '.%X&X-X;X&X%X$X_.).|.).B.M.' W E I J G n J P W ! ..~.{ C.                      ",
"                        $X-X;X@X&X&X%X`.oX8X8X|.C.V.N. .! E P J F F P Y E E U 7X .                      ",
"                      '.&X-X=X-X-X-X-X$XOX^.!.Q.D.C.M.[ ! W K U {.{.U F I E W E ] ..                    ",
"                      _.&X@X@X-X-X-X%X%X#XoX].^.F.N.| ! W E J n O.{.O.J K I W ' ' ]                     ",
"                    H.XX+X+X&X+X%X%X*XOX'.'./.^.V.X.{ { ' W K n k a k k c J I W W Q L                   ",
"                    H..XXX+X+XXX+XoXOX.X/./.F.S.N.} { ' _ W Q V c j 0 a 0 n J I P K M                   ",
"                    n.G..X.X.X.X(.H./.H.H.F.Z.} ` _ _ E Q P K c k l 0 @ j l c F J J v                   ",
"                    ) } A.G.G.G.A.A.A.F.F.Z.o.` _ L L L P P F c z l u # u k x x v v                     ",
"                      ) ) } n.n.} n.n.Z.Z.o.` ) L B N H M n v x j u u # @ # j x x b                     ",
"                      T C C C ) C ) ) ` o.o.` A C N v v v x l l u @ @ @ @ # k k x b                     ",
"                        v.B m p p p p m m C C N M m v b z l # # $ $ @ @ # j k b r                       ",
"                    7.-.5X3X,X[.b p p p m m m N N K K M M b l u u u j a x O.,X2X:X1.0.                  ",
"                &.    l.6X4XY.,X9X[.@.h g f f d d D H F D s s f g g h #.<X,XP.4X6X4.                    ",
"                  7 j.x.e.8.K. X3.y.2.L.I.I.I.O.+.: ; : - U.U.U.Y.L.3.w.y. XJ.r.8.j.j.8                 ",
"              7 0.s.d.8.e.f.f.f.x.r.8.f.:X:Xl.6X4Xh.2.0.:X5X:Xk.4Xj.u.8.f.f.f.f.d.8.e.h.p.*.            ",
"          X 0.p.g.s.9.u.i.t.f.i.f.e.u.a.6 O + < g.h.5.p.h.&.. ; . =.d.e.f.e.f.i.w.t.9.u.p.g.q..         ",
"          6 g.q.p.9.&.:.b.> 6.8.e.e.,., * * = - < p.q.p.<.O - = q o 4 7.f.8.8.=.( v.6 <.s.0.g.%.        ",
"          < ,.5.=.<   !.!.2 5.5.q.;.> t t - t y + t.q.p.*.y y - w w q 3 5.5.;.;.9       6 ;.=.6         ",
"                        b.%.;.5.,.3 & % % % * = % ;.q.p.6 - = % % * w o $.,.5.;.2                       ",
"                        U > 3 3 < 9 W.W.R.R.M...^ , =.*.o ....R.m.C.B.!.o < 3 < o                       ",
"                        ' [ ] ] m.m.C.C.m.T.m.m.m.m.0 e m.M.m.m.m.T.T.E.m.M.' N.!                       ",
"                          T ! ' Z ' b.[ | |  .| | | ~ M.|  . .| | | ] ] T R R Z                         ",
"                          Y T R R S B S R R ' ] ] ] ] M.[ ] ' ! R Z B B ! ! T                           ",
"                              R ! ~ R S S T R ! ! ! W R ! ! W T Z Z R ! !                               ",
"                                    | M.] | | ] ! R P R W ' ] | ] M.| '                                 ",
"                                                R Q Y Q R                                               ",
"                                                                                                        ",
"                                                                                                        ",
"                                                                                                        ",
"                                                                                                        ",
"                                                                                                        ",
"                                                                                                        ",
"                                                                                                        "
};
