/* XPM */
static char *xpm__CITYPNG_COM_HD_Spongebob_Pineapple_House_Transparent_PNG___1500x1500_resized[] = {
/* columns rows colors chars-per-pixel */
"45 45 208 2 ",
"   c None",
".  c #1C7337",
"X  c #277D3C",
"o  c #387B3C",
"O  c #6D6E37",
"+  c #CB3F2D",
"@  c #D73A29",
"#  c #CD3D30",
"$  c #E83E24",
"%  c #915E2D",
"&  c #875F31",
"*  c #8C5D2E",
"=  c #B5493D",
"-  c #8C6730",
";  c #B87837",
":  c #AB6B39",
">  c #D94828",
",  c #DD5B2B",
"<  c #D8552A",
"1  c #C74B38",
"2  c #D65933",
"3  c #CC5233",
"4  c #E74927",
"5  c #E35328",
"6  c #EA5A29",
"7  c #E55A29",
"8  c #E05B30",
"9  c #DB642B",
"0  c #D36C2C",
"q  c #D96E2D",
"w  c #D76427",
"e  c #C47F2F",
"r  c #DC762E",
"t  c #DC6633",
"y  c #DF6438",
"u  c #CB7C39",
"i  c #DA7733",
"p  c #E46E2B",
"a  c #EC662A",
"s  c #E4752D",
"d  c #EA732C",
"f  c #E57B2E",
"g  c #EE7A2E",
"h  c #E16633",
"j  c #E57431",
"k  c #E47D30",
"l  c #EC7A32",
"z  c #EC7F38",
"x  c #F1762C",
"c  c #B75753",
"v  c #B95A45",
"b  c #A97B53",
"n  c #AE5861",
"m  c #AD6F6C",
"M  c #A66C77",
"N  c #CD5440",
"B  c #C0785B",
"V  c #D57243",
"C  c #E07B41",
"Z  c #2D853D",
"A  c #358B3E",
"S  c #3B8A3E",
"D  c #3E923E",
"F  c #44893D",
"G  c #47933E",
"H  c #57953E",
"J  c #62993D",
"K  c #69973B",
"L  c #759B3C",
"P  c #7B9E3C",
"I  c #7CA139",
"U  c #2F8C40",
"Y  c #348E42",
"T  c #3A8E41",
"R  c #3C9544",
"E  c #3E9943",
"W  c #3D9248",
"Q  c #418841",
"!  c #459545",
"~  c #4A9543",
"^  c #439B45",
"/  c #4A9C45",
"(  c #47984A",
")  c #519445",
"_  c #598E43",
"`  c #6F9A41",
"'  c #779D43",
"]  c #4AA146",
"[  c #7CA241",
"{  c #B7813B",
"}  c #85A53C",
"|  c #94AD3A",
" . c #99AF3A",
".. c #9BB138",
"X. c #A3B63A",
"o. c #ACBA35",
"O. c #C18838",
"+. c #D88439",
"@. c #CF973F",
"#. c #F3862F",
"$. c #E58434",
"%. c #EA8433",
"&. c #E68937",
"*. c #EB8B35",
"=. c #E68B3A",
"-. c #EA8F39",
";. c #EA853D",
":. c #F48A33",
">. c #F18836",
",. c #EC933B",
"<. c #EB953C",
"1. c #F29539",
"2. c #F39C3C",
"3. c #F69334",
"4. c #DCA23E",
"5. c #F7A23D",
"6. c #FAA43D",
"7. c #FBA83F",
"8. c #BB8742",
"9. c #BF924A",
"0. c #B18958",
"q. c #9B8670",
"w. c #BF9165",
"e. c #B98674",
"r. c #B89777",
"t. c #A38169",
"y. c #BFAB69",
"u. c #D98546",
"i. c #CA8459",
"p. c #D59656",
"a. c #D48C52",
"s. c #EE9B44",
"d. c #EA9746",
"f. c #F39D43",
"g. c #E29B52",
"h. c #ECA24C",
"j. c #EFA747",
"k. c #F5A243",
"l. c #FBAA43",
"z. c #F2A44A",
"x. c #F6A84C",
"c. c #FAAC4C",
"v. c #F9A745",
"b. c #FBB14F",
"n. c #E7A959",
"m. c #F5AC51",
"M. c #FAAF51",
"N. c #FBB252",
"B. c #F9B358",
"V. c #C38A67",
"C. c #C49575",
"Z. c #CD8A71",
"A. c #CFA36D",
"S. c #D8A56A",
"D. c #D7B17D",
"F. c #ECAF64",
"G. c #FCBB65",
"H. c #E6B065",
"J. c #A1748A",
"K. c #7B91BD",
"L. c #769BC3",
"P. c #72A1CD",
"I. c #69BEE7",
"U. c #72BCE7",
"Y. c #7AC2E8",
"T. c #998E9A",
"R. c #BD9886",
"E. c #A69596",
"W. c #AD908B",
"Q. c #B9A697",
"!. c #B2A08A",
"~. c #8C90AB",
"^. c #989CB5",
"/. c #9B94AF",
"(. c #A093A8",
"). c #9AA6BE",
"_. c #ADB3AE",
"`. c #ABB2BE",
"'. c #AEABB2",
"]. c #C49D86",
"[. c #C2A689",
"{. c #879DC8",
"}. c #8DA1CB",
"|. c #87A5C4",
" X c #91A5CD",
".X c #95A8CC",
"XX c #9BA7C5",
"oX c #9FB0CE",
"OX c #8CA3D0",
"+X c #87ADD3",
"@X c #93A9D3",
"#X c #99ADD2",
"$X c #95AAD4",
"%X c #9DB2D5",
"&X c #9DB4D9",
"*X c #97B7DA",
"=X c #86B3DB",
"-X c #A3B6D6",
";X c #A1B7DB",
":X c #A8BBD9",
">X c #ADB5C7",
",X c #90BDE3",
"<X c #ACC0DF",
"1X c #B4C4DF",
"2X c #95C9E8",
"3X c #ADD1EB",
"4X c #C0CEE4",
"5X c #C2D0E8",
/* pixels */
"                                                                                          ",
"                                                                                          ",
"                                          /                                               ",
"                                          /                                               ",
"                                          /                                               ",
"                                  ~     ! ]     L                                         ",
"                                  ~ T   ! ]     }     (                                   ",
"                              `   / R   ( ] ! [ |     ^ W                                 ",
"                              |   ! ^   E ] ^ ....  ( (                                   ",
"                              X.|   ^ Y W ^ H o. .  ] ^                                   ",
"                                o.` ^ R Y E H o.[ ^ ] !                                   ",
"                                 .| ! E Y E J ..) ] ^ ) _                                 ",
"                            Q   '  .J R U E H L E ^ G P                                   ",
"                              ~ ~ [ P T Z D F ~ E S I L                                   ",
"                              Z D ) K S Z Z Z ! A J L ) /                                 ",
"                                  A F o . . Z X F H ~ T                                   ",
"                                    O - * & % & O o X                                     ",
"                                  t z l d *.d s 0 2           -XoXoX                      ",
"                              h g s q k 3.:.3.k q g j         <X1X                        ",
"                            , l :.f %.%.*.2.%.&.1.f s j         5X                        ",
"                          2 x #.$.1.v.v.&.r <.c.f.k.$.2 2       1X                        ",
"                        v , s k k.x.m.m.=.=.=.x.c.v.$.j w     %X:X                        ",
"                        8 d 0 a.H.M.h.$.2.l.2.&.s.&.%.d.W./.:X5X1X                        ",
"                        7 i E.L.|.r.k 2.7.5.l.5.r r k.s.e.m (.                            ",
"                      > 7 V.P.I.U.~.u.l.v.s.c.s.=.-.&.x.1.,                               ",
"                      > j Q.,X3X2X^.u.<.N.N.z.&.5.l.-.&.>., 2                             ",
"                      > l R.,X3X&XE.k.-.<.f.&.5.v.5.l.,.q a 2                             ",
"                    # 4 p V E.XXT.p.l.v.-.0 2.c.x.z.N.s.i p 8                             ",
"                    # 6 x q +.g.j.j.m.c.=.d.$.x.N.N.f.=.5.l <                             ",
"                    @ 6 f 2.*.&.v.N.B.=.2.l.2.&.z.f.&.2.6.:.,                             ",
"                    @ 5 #.2.7.,.$.1.&.,.l.l.l.v.$.r 2.7.1.>.7                             ",
"                    > 6 #.3.v.l.s.V.C.n.M.h.M.B.&.r ,.v.2.1.< =                           ",
"                    + 6 #.3.v.F._.&X;X>X[.G.G.d.*.h.C.S.c.;.> 1                           ",
"                    @ 4 g x.m.Q.@X&X;X$X`.F.s.$.j._.=X+X].h 5 1                           ",
"                    @ 4 9 %.u.XX#X:X%X;XoXi.f 5.S.*XI.U.^.h 4                             ",
"                    @ 4 a 9 B }.#X.X}.@X Xe.*.l.A.+X2X3X).h 4                             ",
"                    # > 6 p C.{. XK.{.}.@X[.%.k.n.'.&X:XR.< 1                             ",
"                    c 3 t g ].OX}.}.{.{.@X[.2.&.v.p.e.Z.V c n                             ",
"                    q.0.V +.!.{..X#X}.}.}.!.c.1.k s a g B M J.                            ",
"                      0.8.e R.OX;X:X%X%X#XC.j.4.e 0 j C V.W.                              ",
"                      y.9.; w.}.;X;X#X#XXXp.,.@.O.: b a.p.Q.                              ",
"                            m {..X#X#X.X_.i.O.{ ; ; : w.                                  ",
"                                                                                          ",
"                                                                                          ",
"                                                                                          "
};
