/* XPM */
static char *xpm__CITYPNG_COM_HD_Spongebob_Pineapple_House_Transparent_PNG___1500x1500_resized[] = {
/* columns rows colors chars-per-pixel */
"55 55 216 2 ",
"   c None",
".  c #1F7A39",
"X  c #336B35",
"o  c #267E3C",
"O  c #2D7137",
"+  c #437E3B",
"@  c #6A6539",
"#  c #386F40",
"$  c #CC3C2C",
"%  c #D73B28",
"&  c #CA3F31",
"*  c #E43B25",
"=  c #BC5D2E",
"-  c #BD4839",
";  c #A5483F",
":  c #9A6034",
">  c #B96831",
",  c #B9783E",
"<  c #B36E32",
"1  c #C9472B",
"2  c #D94729",
"3  c #DC5229",
"4  c #D8592A",
"5  c #C24838",
"6  c #D04237",
"7  c #C65838",
"8  c #D55934",
"9  c #C35C2A",
"0  c #E44628",
"q  c #E85A28",
"w  c #E8502C",
"e  c #C3632C",
"r  c #DD6329",
"t  c #D56C2B",
"y  c #DD6C2C",
"u  c #D36528",
"i  c #DD732D",
"p  c #DE792F",
"a  c #D4712F",
"s  c #CB693F",
"d  c #DA6638",
"f  c #CC743A",
"g  c #DC7232",
"h  c #DE7C31",
"j  c #D57A39",
"k  c #E36C2C",
"l  c #EB662A",
"z  c #F16C2A",
"x  c #E2732D",
"c  c #E37B2D",
"v  c #EA762E",
"b  c #F2752C",
"n  c #E37E33",
"m  c #E87932",
"M  c #F17F34",
"N  c #E16C32",
"B  c #B3534F",
"V  c #A47742",
"C  c #B96F4D",
"Z  c #A56478",
"A  c #A5746B",
"S  c #D57F46",
"D  c #CD7952",
"F  c #E27A42",
"G  c #C17C65",
"H  c #2B833D",
"J  c #2E8B3E",
"K  c #36883D",
"L  c #3E903C",
"P  c #47873D",
"I  c #558C3E",
"U  c #47923D",
"Y  c #58953D",
"T  c #6D9A3C",
"R  c #7B9E3B",
"E  c #749B3B",
"W  c #7CA03E",
"Q  c #348946",
"!  c #3C9443",
"~  c #3B9545",
"^  c #2C8346",
"/  c #4E8C45",
"(  c #428E43",
")  c #538E46",
"_  c #439444",
"`  c #4A9344",
"'  c #449C45",
"]  c #4B9B43",
"[  c #42954A",
"{  c #4B9B4A",
"}  c #509C43",
"|  c #4A9652",
" . c #619342",
".. c #779B41",
"X. c #47A045",
"o. c #4BA146",
"O. c #7CA043",
"+. c #B58237",
"@. c #83A33B",
"#. c #8DAA3B",
"$. c #9BB139",
"%. c #94AF3E",
"&. c #A6B837",
"*. c #B0BD35",
"=. c #C78D37",
"-. c #DB8239",
";. c #D8802D",
":. c #ED802F",
">. c #F5822E",
",. c #E28334",
"<. c #EB8434",
"1. c #E78936",
"2. c #EB8A35",
"3. c #E28538",
"4. c #E48A3C",
"5. c #E98E3A",
"6. c #EF863B",
"7. c #F48C33",
"8. c #F38534",
"9. c #ED923B",
"0. c #ED9438",
"q. c #F49639",
"w. c #F39C3C",
"e. c #F69637",
"r. c #F9A43E",
"t. c #FCA93F",
"y. c #F6A13E",
"u. c #B98945",
"i. c #B58E4D",
"p. c #93AD40",
"a. c #9B8664",
"s. c #BC977D",
"d. c #AC9470",
"f. c #B1A06F",
"g. c #C78844",
"h. c #DA9845",
"j. c #CA8155",
"k. c #CE925B",
"l. c #CD9251",
"z. c #E58E40",
"x. c #ED9A43",
"c. c #E89A47",
"v. c #F39C43",
"b. c #F19D48",
"n. c #DDA843",
"m. c #EEA347",
"M. c #F6A343",
"N. c #F9A542",
"B. c #FBAA42",
"V. c #F3A54A",
"C. c #F6AB4E",
"Z. c #FAAD4B",
"A. c #F9A64D",
"S. c #FBB14E",
"D. c #E6A558",
"F. c #F5AB52",
"G. c #F9AF51",
"H. c #FBB253",
"J. c #FAB65B",
"K. c #F3B55F",
"L. c #C58D6C",
"P. c #CA9767",
"I. c #CB906E",
"U. c #D8A86C",
"Y. c #C6A268",
"T. c #FCBB65",
"R. c #E8AD61",
"E. c #987989",
"W. c #A07787",
"Q. c #768FBC",
"!. c #7F94C2",
"~. c #57A8D9",
"^. c #7BB2DE",
"/. c #7AA6D3",
"(. c #56B1E1",
"). c #76B6E0",
"_. c #76C9EE",
"`. c #958794",
"'. c #A7878A",
"]. c #BB9888",
"[. c #A69391",
"{. c #849ABD",
"}. c #9396AE",
"|. c #A998A7",
" X c #96A6B9",
".X c #A8A4AD",
"XX c #B3A6A5",
"oX c #AAB3B9",
"OX c #B0B1B5",
"+X c #C69E82",
"@X c #C6AB8B",
"#X c #D1B288",
"$X c #8A9FCB",
"%X c #859AC5",
"&X c #8DA2CB",
"*X c #8EA3C4",
"=X c #93A6CC",
"-X c #99A6C7",
";X c #8AA6D3",
":X c #95ABD4",
">X c #99AED5",
",X c #94A8D3",
"<X c #9CB1D5",
"1X c #9DB2D9",
"2X c #94B6DC",
"3X c #A2B3D2",
"4X c #A1B7D9",
"5X c #A5BBDD",
"6X c #AABCDC",
"7X c #A8B4CB",
"8X c #B2C1DA",
"9X c #9BD2EE",
"0X c #91D1EF",
"qX c #A4C6E2",
"wX c #ACD8EF",
"eX c #C8D5EA",
/* pixels */
"                                                                                                              ",
"                                                                                                              ",
"                                                    ]                                                         ",
"                                                    ]                                                         ",
"                                                  _ o.                                                        ",
"                                          Q       [ o.      I                                                 ",
"                                          `       [ o.      E                                                 ",
"                                          ]       ' o.    W @.      `                                         ",
"                                     .    ] !     ' o.    %.@.    [ [                                         ",
"                                    @.    ] _     { o.( ..$.@.    ' ~                                         ",
"                                    p.#.  ` ' J   ' ' ( #.&.@.  { X.[                                         ",
"                                      &.W   X.! Q ' ' ` &.&.  | o.{                                           ",
"                                      &.$.` _ ' ^ ' X.Y *.$.  { o.'                                           ",
"                                      p.&.W ~ X.H ' L Y *.@.[ o.o.( )                                         ",
"                                        %.$.U X.J ~ ! Y &.I { X.! } T                                         ",
"                                  Q }   W $.W ~ J ~ ! Y T _ X.! I @.                                          ",
"                                    U } / @.@.K J ! L P ( ' ! K #.E   `                                       ",
"                                      L ] I E / H Q H o ' ! K W W ) ] U                                       ",
"                                        K U I P o . . J K o I T Y ' Q                                         ",
"                                          o K + X O X X X + U L K H                                           ",
"                                            : > e = = 9 e < @ X               Q.%X                            ",
"                                        7 k 6.6.x 2.7.v k k u 8             6X7X6X                            ",
"                                      l v c x i 7.e.2.e.m u y M y 7         6X8X3X                            ",
"                                  8 k M 7.c i i 2.e.e.2.n q.c x m m         4XeX=X                            ",
"                                7 l :.7.c 1.y.y.,.1.2.,.M.w.q.7.i k 8         eX>X                            ",
"                                4 b >.p 0.M.M.G.B.p t M.H.V.b.A.1.u 4 7       6X                              ",
"                              7 4 x i 0.S.C.F.H.4.4.0.-.b.Z.H.M.i :.k 7     4X8X:X                            ",
"                              q b u f D.K.J.C.-.5.B.B.M.,.9.v.h <.2.].|.-X8XeXeX4X                            ",
"                            2 l i L.}.{.|.k.p 0.B.r.t.t.y.,.t n N.x.'.W.E.3X6X4X                              ",
"                            0 l j.{.~.(.).`.-.t.B.w.w.Z.Z.5.j h v.Z.v.v 1                                     ",
"                          2 2 k ]./.0X9X^.{.S M.S.V.C.H.9.3.B.w.h b.A.v 4                                     ",
"                          & 3 <.XX2XwXwXqX}.-.h V.H.H.x.3.t.t.t.0.n 1.y q 7                                   ",
"                          & 3 7.].2XqXqX,Xs.t.w.h x.v.,.t.t.w.B.B.w.t k z 8                                   ",
"                          0 q g S [.&X$X`.h.B.B.M.p t w.B.Z.c.C.H.V.j i l 8                                   ",
"                          % z m u j k.k.c.c.Z.H.V.-.-.5.Z.H.H.Z.Z.-.x.2.r 3                                   ",
"                        & 0 z c 5.c 1.Z.G.F.H.F.3.m.B.1.4.C.H.C.3.9.B.e.v 1                                   ",
"                        % 0 l <.y.y.<.,.V.H.Z.-.q.B.t.t.9.-.w.1.1.t.y.e.>.3                                   ",
"                        $ % l 7.y.t.t.9.n 9.-.9.t.B.y.B.Z.w.t i N.B.w.<.M 3 B                                 ",
"                        5 2 b 7.0.t.B.B.c.C I.D.Z.C.c.J.J.b.h h 9.Z.y.w.M 2 ;                                 ",
"                        - 0 z 7.2.r.Z.R.7X5X6X6X@XT.T.T.F.n w.c.j.D.C.A.N 2 7                                 ",
"                        $ % l e.M.G.R.OX,X:X>X:X>X#XT.J.,.0.m.OX3X7X+Xz.4 w -                                 ",
"                        % * 3 m M.w.+X$X>X5X5X1X,XOXc.n 1.m.@X1X~.~.*XD q w 1                                 ",
"                        % * w r c i |.;X5X4X:X5X:X-XS c r.m.oX^._.9X>XL.l 2                                   ",
"                        $ * w z 4 D -X%X4X*X=X=X&X-XC 2.B.m..X;XqXwX>XG q %                                   ",
"                        & % 0 q x j.-X$X*XQ.%X&X&X<XP.c M.H.s.>X1X5X7Xs 0 6                                   ",
"                        B 6 w d b P.>X=X$X%X%X&X&X:XU.q.;.C.F.Y.|.XXD 8 B B                                   ",
"                          A C g -.P.&X$X=X,X&X%X&X,XU.B.1.1.y.c N b d G Z Z                                   ",
"                          a.u.=.-.f.,X$X3X<X,X=X=X=XY.C.y.;.y y b F D A W.                                    ",
"                          d.+.=.=.i.-X=X6X4X<X<X;X7Xl.m.n.=.f a m F k.s.[.                                    ",
"                            f.g., D  X;X5X1X>X<X*XOXc.<.=.=.+.> u.D D s.                                      ",
"                                u.V  X$X>X>X1X>XoXXXz.=.+.+.V = V L.Y.                                        ",
"                                                      V h.g.,                                                 ",
"                                                                                                              ",
"                                                                                                              ",
"                                                                                                              "
};
