/* XPM */
static char *xpm__CITYPNG_COM_HD_SpongeBob_Standing_And_Smiling_Character_PNG___1500x1648_resized[] = {
/* columns rows colors chars-per-pixel */
"50 55 206 2 ",
"   c None",
".  c #020202",
"X  c #0C0C0C",
"o  c #1C0D01",
"O  c #141414",
"+  c #1B1B1B",
"@  c #2A1303",
"#  c #321403",
"$  c #3D1C04",
"%  c #351A05",
"&  c #372010",
"*  c #383717",
"=  c #19363D",
"-  c #2A2A2A",
";  c #373737",
":  c #501709",
">  c #5D2E0D",
",  c #52280A",
"<  c #572D12",
"1  c #432D13",
"2  c #622E0B",
"3  c #6C350E",
"4  c #66320C",
"5  c #74390D",
"6  c #653512",
"7  c #783C12",
"8  c #423023",
"9  c #45441B",
"0  c #504F1E",
"q  c #52511F",
"w  c #63611F",
"e  c #5B5925",
"r  c #51512E",
"t  c #734D33",
"y  c #686624",
"u  c #7D7B2A",
"i  c #797427",
"p  c #74723A",
"a  c #7A7836",
"s  c #6D6C30",
"d  c #2E606B",
"f  c #474747",
"g  c #717052",
"h  c #7A776A",
"j  c #6C7273",
"k  c #9E3512",
"l  c #AD2E16",
"z  c #873429",
"x  c #D63118",
"c  c #F6381B",
"v  c #814113",
"b  c #8C4511",
"n  c #8B4A14",
"m  c #914712",
"M  c #9D4D14",
"N  c #934812",
"B  c #9B5115",
"V  c #A14E14",
"C  c #AE5616",
"Z  c #B95A16",
"A  c #B85A17",
"S  c #81681F",
"D  c #87423A",
"F  c #B1582B",
"G  c #906F21",
"H  c #81792B",
"J  c #8F7730",
"K  c #BD672B",
"L  c #C15E18",
"P  c #C56118",
"I  c #CB6319",
"U  c #D1661A",
"Y  c #8C7250",
"T  c #8D766A",
"R  c #83812B",
"E  c #8D8A2D",
"W  c #8B832C",
"Q  c #96882C",
"!  c #96932D",
"~  c #878538",
"^  c #9B9835",
"/  c #A19E33",
"(  c #A5A134",
")  c #AAA636",
"_  c #A9A638",
"`  c #B1AD37",
"'  c #B4B53A",
"]  c #BBB73A",
"[  c #BABC3C",
"{  c #B6B93B",
"}  c #C2BC3B",
"|  c #C0B13D",
" . c #D6B635",
".. c #C5C63F",
"X. c #C9C73F",
"o. c #DEC63D",
"O. c #EACA3C",
"+. c #E1D03F",
"@. c #82804F",
"#. c #98964A",
"$. c #949257",
"%. c #8C8A54",
"&. c #A19E45",
"*. c #A9A648",
"=. c #BAB747",
"-. c #ADAA56",
";. c #B8B658",
":. c #B0AD50",
">. c #959469",
",. c #9A8279",
"<. c #9A9876",
"1. c #948C64",
"2. c #A18877",
"3. c #A7A668",
"4. c #AAA870",
"5. c #C3BF40",
"6. c #C6C343",
"7. c #CDCB41",
"8. c #CBC747",
"9. c #D1CE43",
"0. c #D5D344",
"q. c #D9D644",
"w. c #DCD945",
"e. c #D6D648",
"r. c #DBDA49",
"t. c #D8D748",
"y. c #D0CE54",
"u. c #DBDA58",
"i. c #E3DE46",
"p. c #E8DC45",
"a. c #FADB41",
"s. c #F4DB42",
"d. c #EDCE58",
"f. c #E4E147",
"g. c #E5E249",
"h. c #E9E54A",
"j. c #EDE94A",
"k. c #EAE347",
"l. c #FCE445",
"z. c #F2ED4B",
"x. c #FCEC49",
"c. c #F6F14C",
"v. c #FBF54D",
"b. c #FFF94F",
"n. c #FEF047",
"m. c #EDEA53",
"M. c #FFFC50",
"N. c #F1EE54",
"B. c #DEDD67",
"V. c #C0C071",
"C. c #E6E473",
"Z. c #E4E47F",
"A. c #4F909E",
"S. c #458795",
"D. c #77868B",
"F. c #569CAB",
"G. c #5FA1AF",
"H. c #5BA4B4",
"J. c #67ADBC",
"K. c #79B7C5",
"L. c #6CB4C3",
"P. c #999689",
"I. c #939393",
"U. c #9B9B9B",
"Y. c #878A8A",
"T. c #A79385",
"R. c #AA9E97",
"E. c #A88F8E",
"W. c #ACAB86",
"Q. c #A6A694",
"!. c #ADA79D",
"~. c #B1A998",
"^. c #B2B197",
"/. c #A8A8A6",
"(. c #B2AEAD",
"). c #B4B4A7",
"_. c #B3B3B3",
"`. c #BBBBB7",
"'. c #DFDF82",
"]. c #E7E693",
"[. c #E6E58A",
"{. c #C4C5A4",
"}. c #CDC3B4",
"|. c #F1E6AD",
" X c #87BECA",
".X c #9AC9D3",
"XX c #BACACD",
"oX c #ABD1D9",
"OX c #A4CFD9",
"+X c #CCCCCC",
"@X c #C7C7C6",
"#X c #DCDCDD",
"$X c #D7D7D6",
"%X c #F4F5D5",
"&X c #DFDFE0",
"*X c #CCE1E6",
"=X c #DAE9EC",
"-X c #E3E3E5",
";X c #E8EAEB",
":X c #EFF0E4",
">X c #EBEEF1",
",X c #EAF1F3",
"<X c #F1F1F3",
"1X c #FEFEFE",
"2X c #F6F8F8",
"3X c #F2F3E6",
/* pixels */
"                                                                                                    ",
"                                                                                                    ",
"                                                                                                    ",
"                                                                                                    ",
"                                                                                                    ",
"                          0.c.z.g.f.j.z.h.t.t.h.h.t.e.i.z.j.t.e.g.j.i.e.r.                          ",
"                          r.b.b.M.M.M.b.M.b.v.k.c.M.b.b.M.M.v.v.b.b.b.v.b.h.                        ",
"                        r.h.b.b.j.7.g.b.b.7.z.i } 0.i.M.j.v.` ` v.j.v.e.z.g.                        ",
"                      e.c.j.j.b.0.' X.b.c.w s g @.r ` M.! u a p a E b...h.r.                        ",
"                    t.v.b.b.g.b.f.{ 0.b.=.P.$X<X>X+X1.X.&.I.&X-X@X>.9.c.b.r.                        ",
"                    h.v.0.z.g.b.v.j.b.7.P.2X1X1X1X2X>Xh (.1X,X2X1X<X<.j.b.j.                        ",
"                  r.v.g.' q.h.b.b.b.b.#.-X1X1X2XoXK.oX`.(.OXJ. X>X1X@X=.b.c.                        ",
"                  c.M.i.' 9.h.b.j.9.j.>.2X1X1X=XH.= A.XXI.L.= S.*X1X&X:.M.h.                        ",
"                  g.M.g.' r.g.v.v.i.z.>.2X1X1X;XJ.d G.XXU..XF.K.>X1X+X=.M.r.                        ",
"                    c.v.q.c.c.g.b.b.M._ #X1X1X1X*XOX*X(.Q.1X=X,X;X#X<.+.x.g.                        ",
"                    j.M.b.b.v.g.b.b.s.O.d.|.1X1X1X1X#X%.$.(.=X^.:.*.Q s.a.s.                        ",
"                    j.b.c.b.c.h.b.n.x.x.x.d.}.#X#X(.$.+.) R *.r.b.c.( z.n.O.                        ",
"                    c.j...c.c.h.b.v.b.x.b.a.| *.*...c.v.X.w.f.f.X.^ ! l.O.O.                        ",
"                    g.j.X.v.b.g.v.M.v.l.l. .k.M.b.b.b.v.X.' ' ] ] / ( p.n.t.                        ",
"                      c.v.b.b.j.j.M.x.a.l.q._ ` X.k.z.c.v.z.i.} ) X.b.b.M.g.                        ",
"                      v.b.q.X.k.j.M.b.b.M.M.v.i.( <.W.$.H 4.Q.#.z.b.b.b.M.c.                        ",
"                      j.v...{ 0.z.M.b.b.b.b.b.M.8.+X1X`.h 1X>X;.b.b.b.v.b.j.                        ",
"                      t.w.' [ q.c.M.b.b.b.b.b.M.6.(.-XQ.@.).(.:.b.b.e.7.c.t.                        ",
"                      @.Q.<...c.h.M.z.z.b.b.b.v.h.5.=.6.p.9.0.z.b.c.[ [ j.0.                        ",
"                      j >X-X:.b.g.b.0.w.b.b.b.x.a.v.x.a.a.a.l.a.n.c.[ ..b.9.                        ",
"                      U.1X2X4.z.g.b.c.c.b.v.b.b.x.a.a.x.b.x.x.x.b.b.z.c.b.y.                        ",
"                      +X1X1XW.i.h.b.b.v.X...z.b.b.b.b.b.b.b.M.b.b.v.c.b.c.3.                        ",
"                      +X1X1X^.i.h.b.b.h.{ { w.b.b.b.b.b.b.b.b.b.b.g.X.b.z._                         ",
"                      h !.Q.-.c.h.z.b.z.[ { f.b.b.b.b.b.b.b.b.b.b.c.c.b.b.t.                        ",
"                        E ! j.b.h.c.b.b.k.f.v.b.b.b.b.b.b.b.v.b.b.v.c.b.b.r.                        ",
"                        E &.B.c.g.b.b.v.v.b.v.v.N.m.k.z.p.;.'.h.m.Z.|.B.6.                          ",
"                        R 3.:X].u.r.C.[.[.C.C.V.{.).1.K F I./.{.%X2X1X$X^                           ",
"                        R @.Q.#X:X^.;X1X1X1X2X:X_./.+XD 7 _.I.R.!.E.2.Y W                           ",
"                        R S @ 8 T h R.R.2.,.T Y Y D t l x < 6 V 2 $ # 3 Q                           ",
"                        H G 2 o $ 7 n : % @ $ Z 5 o # x c : % C 3 , 4 m W                           ",
"                        H G I L M n C > > 3 7 I Z V V k l V P P P L A M Q                           ",
"                        ) Q 7 C I N P U U I I Z A C V b 3 b m b > 1 H } i.i                         ",
"                      y j.9.    3 5 n n b 6 <       & M P I I U z   R 0.0.y                         ",
"                      E v.0.    v A L P I v           7 V C C B 2   y ( u *                         ",
"                      ^ ` ( q     3 n n 5                 i 1       i i 9                           ",
"                    u ` ( H q       u s                   ^                                         ",
"                      e y 9         a e                 r s                                         ",
"                                    D.                  D.D.                                        ",
"                                    E.                  ,.T                                         ",
"                                    (.                  I.I.                                        ",
"                                    _.                  I.U.                                        ",
"                                  O Y.-   . .         . f f . . . .                                 ",
"                                  . . . . - O .       X . . . + ; .                                 ",
"                                  . . . . f O .       . . . . O ; .                                 ",
"                                  . X O . . .           . O X . . X                                 ",
"                                          X                                                         ",
"                                                                                                    ",
"                                                                                                    ",
"                                                                                                    ",
"                                                                                                    "
};
