/* XPM */
static char *output_onlinepngtools_resized[] = {
/* columns rows colors chars-per-pixel */
"50 55 206 2 ",
"   c None",
".  c #020202",
"X  c #0C0C0C",
"o  c #1C0D01",
"O  c #141414",
"+  c #1B1B1B",
"@  c #2A1303",
"#  c #321403",
"$  c #3D1C04",
"%  c #351A05",
"&  c #372010",
"*  c #383717",
"=  c #19363D",
"-  c #2A2A2A",
";  c #373737",
":  c #501709",
">  c #5D2E0D",
",  c #52280A",
"<  c #572D12",
"1  c #432D13",
"2  c #622E0B",
"3  c #6C350E",
"4  c #66320C",
"5  c #74390D",
"6  c #653512",
"7  c #783C12",
"8  c #423023",
"9  c #45441B",
"0  c #504F1E",
"q  c #52511F",
"w  c #63611F",
"e  c #5B5925",
"r  c #51512E",
"t  c #734D33",
"y  c #686624",
"u  c #7D7B2A",
"i  c #797427",
"p  c #74723A",
"a  c #7A7836",
"s  c #6D6C30",
"d  c #2E606B",
"f  c #474747",
"g  c #717052",
"h  c #7A776A",
"j  c #6C7273",
"k  c #9E3512",
"l  c #AD2E16",
"z  c #873429",
"x  c #D63118",
"c  c #F6381B",
"v  c #814113",
"b  c #8C4511",
"n  c #8B4A14",
"m  c #914712",
"M  c #9D4D14",
"N  c #934812",
"B  c #9B5115",
"V  c #A14E14",
"C  c #AE5616",
"Z  c #B95A16",
"A  c #B85A17",
"S  c #81681F",
"D  c #87423A",
"F  c #B1582B",
"G  c #906F21",
"H  c #81792B",
"J  c #8F7730",
"K  c #BD672B",
"L  c #C15E18",
"P  c #C56118",
"I  c #CB6319",
"U  c #D1661A",
"Y  c #8C7250",
"T  c #8D766A",
"R  c #83812B",
"E  c #8D8A2D",
"W  c #8B832C",
"Q  c #96882C",
"!  c #96932D",
"~  c #878538",
"^  c #9B9835",
"/  c #A19E33",
"(  c #A5A134",
")  c #AAA636",
"_  c #A9A638",
"`  c #B1AD37",
"'  c #B4B53A",
"]  c #BBB73A",
"[  c #BABC3C",
"{  c #B6B93B",
"}  c #C2BC3B",
"|  c #C0B13D",
" . c #D6B635",
".. c #C5C63F",
"X. c #C9C73F",
"o. c #DEC63D",
"O. c #EACA3C",
"+. c #E1D03F",
"@. c #82804F",
"#. c #98964A",
"$. c #949257",
"%. c #8C8A54",
"&. c #A19E45",
"*. c #A9A648",
"=. c #BAB747",
"-. c #ADAA56",
";. c #B8B658",
":. c #B0AD50",
">. c #959469",
",. c #9A8279",
"<. c #9A9876",
"1. c #948C64",
"2. c #A18877",
"3. c #A7A668",
"4. c #AAA870",
"5. c #C3BF40",
"6. c #C6C343",
"7. c #CDCB41",
"8. c #CBC747",
"9. c #D1CE43",
"0. c #D5D344",
"q. c #D9D644",
"w. c #DCD945",
"e. c #D6D648",
"r. c #DBDA49",
"t. c #D8D748",
"y. c #D0CE54",
"u. c #DBDA58",
"i. c #E3DE46",
"p. c #E8DC45",
"a. c #FADB41",
"s. c #F4DB42",
"d. c #EDCE58",
"f. c #E4E147",
"g. c #E5E249",
"h. c #E9E54A",
"j. c #EDE94A",
"k. c #EAE347",
"l. c #FCE445",
"z. c #F2ED4B",
"x. c #FCEC49",
"c. c #F6F14C",
"v. c #FBF54D",
"b. c #FFF94F",
"n. c #FEF047",
"m. c #EDEA53",
"M. c #FFFC50",
"N. c #F1EE54",
"B. c #DEDD67",
"V. c #C0C071",
"C. c #E6E473",
"Z. c #E4E47F",
"A. c #4F909E",
"S. c #458795",
"D. c #77868B",
"F. c #569CAB",
"G. c #5FA1AF",
"H. c #5BA4B4",
"J. c #67ADBC",
"K. c #79B7C5",
"L. c #6CB4C3",
"P. c #999689",
"I. c #939393",
"U. c #9B9B9B",
"Y. c #878A8A",
"T. c #A79385",
"R. c #AA9E97",
"E. c #A88F8E",
"W. c #ACAB86",
"Q. c #A6A694",
"!. c #ADA79D",
"~. c #B1A998",
"^. c #B2B197",
"/. c #A8A8A6",
"(. c #B2AEAD",
"). c #B4B4A7",
"_. c #B3B3B3",
"`. c #BBBBB7",
"'. c #DFDF82",
"]. c #E7E693",
"[. c #E6E58A",
"{. c #C4C5A4",
"}. c #CDC3B4",
"|. c #F1E6AD",
" X c #87BECA",
".X c #9AC9D3",
"XX c #BACACD",
"oX c #ABD1D9",
"OX c #A4CFD9",
"+X c #CCCCCC",
"@X c #C7C7C6",
"#X c #DCDCDD",
"$X c #D7D7D6",
"%X c #F4F5D5",
"&X c #DFDFE0",
"*X c #CCE1E6",
"=X c #DAE9EC",
"-X c #E3E3E5",
";X c #E8EAEB",
":X c #EFF0E4",
">X c #EBEEF1",
",X c #EAF1F3",
"<X c #F1F1F3",
"1X c #FEFEFE",
"2X c #F6F8F8",
"3X c #F2F3E6",
/* pixels */
"                                                                                                    ",
"                                                                                                    ",
"                                                                                                    ",
"                                                                                                    ",
"                                                                                                    ",
"                          r.e.i.j.g.e.r.j.z.g.t.r.h.h.t.t.h.z.m.i.g.N.z.e.                          ",
"                        h.M.v.M.M.M.v.v.M.M.v.v.M.z.j.v.M.v.M.M.b.b.b.M.w.                          ",
"                        g.z.t.v.j.c.) ` v.j.M.i.q.} i z.7.v.M.g.7.j.M.b.f.r.                        ",
"                        r.h.6.v.E a p p u ! M.) 0 Y g s e v.v.X.' q.M.j.j.c.e.                      ",
"                        r.v.c.9.>.@X-X#XI.#.7.>.+X,X2X$XP.' b.0.' f.b.f.v.M.v.r.                    ",
"                        j.M.j.<.<X1X2X,X1X).h ;X2X1X1X1X1XP.7.v.j.v.b.g.z.0.c.g.                    ",
"                        c.M.5.@X1X,X XJ.oX(.`.OXK.oX2X1X1X-X#.b.b.b.b.h.q.{ g.b.r.                  ",
"                        h.b.:.&X1X*XS.= L.I.XXA.= H.=X1X1X2X>.z.0.z.M.h.7.' i.M.c.                  ",
"                        r.b.5.+X1X,XK.F..XU.XXG.d J.;X1X1X2X>.z.i.c.c.g.r.{ g.M.g.                  ",
"                        g.x.p.<.$X-X,X=X1X/._.*XOX*X1X1X1X#X&.b.v.M.h.z.c.q.v.c.                    ",
"                        s.a.O.Q :.-.^.&X_.#.%.#X1X1X1X1X|.d.O.O.v.M.g.v.M.M.M.j.                    ",
"                        O.x.x.( z.b.i.*.H ` 0.$.(.$X#X}.d.n.n.x.v.b.h.c.b.c.M.j.                    ",
"                        0.s.s.! ^ X.i.f.q.9.v.z.6.*.*.| a.b.n.b.v.M.h.c.c...j.c.                    ",
"                        q.x.p.( / ] ] ' ] 7.v.M.M.b.b.k. .l.l.v.M.v.f.b.v.7.h.f.                    ",
"                        h.v.M.v.X.) } i.z.v.v.z.f.7.` ) q.l.l.x.M.j.j.v.b.v.c.                      ",
"                        c.M.M.M.b.z.#.Q.4.g $.4.<.( i.v.b.b.b.b.M.j.h.7.t.M.v.                      ",
"                        h.M.v.b.b.b.-.>X1X@.`.1X+X8.M.M.v.b.b.b.b.c.0.' 6.M.j.                      ",
"                        r.c.7.q.b.b.=.).`.@.Q.-X(.6.M.M.M.v.b.M.b.c.t.[ ` w.t.                      ",
"                        0.j.[ [ c.n.j.0.+.i.6.=.=.h.v.v.M.M.z.z.M.g.c.6.<.W.~                       ",
"                        e.v.6.[ x.v.a.a.a.a.a.x.n.a.x.M.b.M.t.0.b.f.b.:.-X<Xj                       ",
"                        y.M.c.j.M.v.v.x.x.M.x.a.a.x.v.b.v.v.v.c.b.g.z.3.2X1XI.                      ",
"                        3.c.M.z.c.M.M.M.M.M.v.M.M.v.M.z...9.v.b.b.h.f.W.1X1X+X                      ",
"                        ( m.M.9.i.M.v.M.v.M.M.M.M.M.M.t.' ' h.b.b.g.w.^.1X1X+X                      ",
"                        r.v.M.N.z.v.M.M.M.b.b.v.b.b.b.f.{ [ j.b.c.k.c.-.Q./.h                       ",
"                        r.b.v.v.v.M.M.v.v.M.b.M.b.b.b.v.f.g.b.b.c.h.b.z.! E                         ",
"                          6.B.].Z.m.h.'.;.k.c.k.m.N.v.b.b.v.v.b.b.f.c.B.*.E                         ",
"                          ^ $X1X2X%X{./.P.F K >.^.{.V.C.C.[.[.C.u.u.[.:X3.R                         ",
"                          W Y T.T.!.!.E.(.z z +X/._.;X2X2X1X1X:X).-X#XR.@.W                         ",
"                          Q 3 @ % 2 V 6 < x l t t Y Y T ,.T.~.R.h T * @ S R                         ",
"                          W b 4 , 5 C % : c x # o 5 L : @ # $ N 5 : o 2 G H                         ",
"                          Q M Z Z P P P M l k M V A P 7 3 > > C b V Z U G u                         ",
"                        u i.} H 1 > b m b 3 b V C A Z I I U U P m I C 7 ! _                         ",
"                        y 9.0.W   7 U I I P M &       < 6 b b n 3 5     8.j.y                       ",
"                        * R ( w   6 B C C V 7           v I P L Z v     9.x.W                       ",
"                          1 s u       1 i                 5 n n 3     0 / ] ^                       ",
"                                        /                   i H       e u / ` u                     ",
"                                        g r                 e p         9 y w                       ",
"                                        D.D.                  D.                                    ",
"                                        T T                   E.                                    ",
"                                        U.I.                  (.                                    ",
"                                        U.I.                  _.                                    ",
"                                . . . . f f .         . .   - Y.O                                   ",
"                                . ; + . . . .       . O - . . . .                                   ",
"                                . ; + . . . .       . + f . . . .                                   ",
"                                . . . . O .           . . . O X .                                   ",
"                                                        .                                           ",
"                                                                                                    ",
"                                                                                                    ",
"                                                                                                    ",
"                                                                                                    "
};
