/* XPM */
static char *df88w1u_28c92797_9336_4acc_bc3e_ade5a7c0d290_resized[] = {
/* columns rows colors chars-per-pixel */
"34 45 215 2 ",
"   c None",
".  c #020202",
"X  c #0A0A0A",
"o  c #18110E",
"O  c #2D1B0D",
"+  c #371E0D",
"@  c #3B2615",
"#  c #2C2800",
"$  c #1B1E20",
"%  c #2D2D2D",
"&  c #313131",
"*  c #3F2C20",
"=  c #17303A",
"-  c #4A2C17",
";  c #522912",
":  c #57351A",
">  c #6D3A1A",
",  c #663719",
"<  c #713C1C",
"1  c #743A16",
"2  c #652011",
"3  c #5C3C23",
"4  c #623A24",
"5  c #675C0B",
"6  c #684A13",
"7  c #756F0A",
"8  c #544232",
"9  c #784926",
"0  c #614D3C",
"q  c #6E4424",
"w  c #5F7B2B",
"e  c #637E2D",
"r  c #676A37",
"t  c #153241",
"y  c #2D5A66",
"u  c #454444",
"i  c #535353",
"p  c #725D4D",
"a  c #776D57",
"s  c #6C6E66",
"d  c #AB2B1A",
"f  c #8F2C1C",
"g  c #CD341C",
"h  c #EC2E1A",
"j  c #88770E",
"k  c #806F0E",
"l  c #87532B",
"z  c #904825",
"x  c #9C6233",
"c  c #9A7225",
"v  c #AD6C38",
"b  c #A56535",
"n  c #B16F3A",
"m  c #B5713B",
"M  c #BA743D",
"N  c #A27728",
"B  c #B6542A",
"V  c #9A5851",
"C  c #886D57",
"Z  c #966F51",
"A  c #937760",
"S  c #7B953B",
"D  c #6B8632",
"F  c #8D840C",
"G  c #99920D",
"H  c #968D11",
"J  c #A39B0D",
"K  c #A38D11",
"L  c #AAA20E",
"P  c #A6A00D",
"I  c #B5AD0F",
"U  c #BCB30F",
"Y  c #A9A111",
"T  c #B8AF15",
"R  c #999526",
"E  c #989B3A",
"W  c #A39D29",
"Q  c #A49F32",
"!  c #9DA33F",
"~  c #AAA425",
"^  c #A6A027",
"/  c #B5AE24",
"(  c #B4AD2E",
")  c #BBB323",
"_  c #BEB825",
"`  c #AAAA38",
"'  c #B3B236",
"]  c #BDBC32",
"[  c #B5B93C",
"{  c #B8B634",
"}  c #C4BB0F",
"|  c #C4B913",
" . c #C6BD27",
".. c #C2BB33",
"X. c #D1C70E",
"o. c #CEC61F",
"O. c #CCC210",
"+. c #D4CA11",
"@. c #D5CC1E",
"#. c #D4CA17",
"$. c #DCD21D",
"%. c #D9D014",
"&. c #E4DA13",
"*. c #E9DE13",
"=. c #E5DB1C",
"-. c #E9DE1A",
";. c #E5D619",
":. c #F3DE1C",
">. c #E4D90F",
",. c #EDE213",
"<. c #ECE21C",
"1. c #F2E714",
"2. c #F5EA14",
"3. c #FAEE15",
"4. c #F2E61A",
"5. c #F4EA19",
"6. c #FAEC18",
"7. c #F9E719",
"8. c #FFF315",
"9. c #CBC323",
"0. c #C5C12C",
"q. c #CDC82A",
"w. c #CAC62C",
"e. c #D3CB23",
"r. c #D3CC2A",
"t. c #D5CD27",
"y. c #DCD424",
"u. c #D1C937",
"i. c #D2CB3C",
"p. c #E2DA21",
"a. c #F1D523",
"s. c #F3DA20",
"d. c #E2D933",
"f. c #E6CA2D",
"g. c #8C9D49",
"h. c #8CA645",
"j. c #9CA444",
"k. c #9AB44D",
"l. c #9EB850",
"z. c #A3AA44",
"x. c #AAB44B",
"c. c #B2BB45",
"v. c #B1AC58",
"b. c #AABC55",
"n. c #B9B459",
"m. c #A0AE5A",
"M. c #918F6F",
"N. c #A69A6F",
"B. c #9AA874",
"V. c #BAB778",
"C. c #AFAF6D",
"Z. c #C2BC46",
"A. c #C2BE6F",
"S. c #A9C356",
"D. c #B5CB5B",
"F. c #B9CC5B",
"G. c #B2C656",
"H. c #B9D05F",
"J. c #B3C04F",
"K. c #BDD561",
"L. c #BFD964",
"P. c #B8CF61",
"I. c #C7C25A",
"U. c #D5CE4B",
"Y. c #E0C75B",
"T. c #C3DC66",
"R. c #C0D762",
"E. c #D2CC6F",
"W. c #497986",
"Q. c #787990",
"!. c #A07B86",
"~. c #778494",
"^. c #438EB0",
"/. c #6CA1B9",
"(. c #64A6C3",
"). c #9C9D9D",
"_. c #8A8B8B",
"`. c #A88281",
"'. c #A29A95",
"]. c #9FA08A",
"[. c #A8AF93",
"{. c #95B1B1",
"}. c #ABABA7",
"|. c #B9B8B5",
" X c #B4B0AB",
".X c #C5BBB5",
"XX c #C3B7AE",
"oX c #B4C7AD",
"OX c #C9C68E",
"+X c #C7C495",
"@X c #D5D28E",
"#X c #EED791",
"$X c #C9C6BC",
"%X c #D7D7BC",
"&X c #D3D1A7",
"*X c #8CB6C9",
"=X c #A6C7D3",
"-X c #ABD8DF",
";X c #C8C7C6",
":X c #DCDBC9",
">X c #DBDCD3",
",X c #DADADA",
"<X c #E6E5D7",
"1X c #E5E5CE",
"2X c #DDDFE0",
"3X c #D6EEF1",
"4X c #DBEAED",
"5X c #ECEDEC",
"6X c #E7E8E7",
"7X c #F5F2ED",
"8X c #F3F3F4",
"9X c #F6FDFE",
"0X c #FEFEFE",
"qX c #F7F7FB",
"wX c #E8E8F1",
/* pixels */
"      W ) ^ R ) /     W ) ~     W / W     ~ ) ~                     ",
"      o.8.-.y.6.3.;.@.<.8.,.$.y.<.3.<.@.$.1.3.4.$.9.$.@.W           ",
"      9.3.w.{ <.8.8.8.8.8.8.8.8.8.8.8.8.8.8.8.8.8.8.8.4.^ E         ",
"      ) <.' ` <.8.8.8.8.8.8.8.8.8.8.8.8.8.8.8.8.t.t.8.9.D.D.x.      ",
"      / <.{ { 5.3.,.2.X.8.,.3.8.2.8.%.2.3.8.8.8.t.w.3.[ R.L.R.x.    ",
"      e.8.p.<.8.*.R U.C.U.Y 2.8.T t.Q 9.I 2.8.8.5.5.5.[ k.h.P.R.x.  ",
"      =.8.8.8.5.h.|.qX0X5X&Xd.] [.6X5X1XV.<.8.8.8.8.3.{ h.w S K.R.! ",
"      =.q.<.8.F = /.5X0X0X0X].W.*X0X0X0X0X@X2.8.8.8.<.c.D.S e S.F.E ",
"      e.q.<.,.# t (.6X0X0X8Xu t (.5X0X0X0X8XU.8.8.8.e.D.T.H.k.G.z.  ",
"      o.8.8.@.y ^.=XqX0X0X,X$ y *X0X0X0X0X0XE.8.8.8.0.H.T.T.T.K.E   ",
"      ;.8.8.p.{.=X8X0X0X0X2XW./.2X0X0X0X0X0XE.8.8.8.e.D.L.S.L.L.!   ",
"      -.8.8.*.v.+X:X0X0X0XqX;XwX0X0X0X0X7X#Xf.s.8.8.9.H.L.h.l.D.    ",
"      @.8.8.O.>.2.t.A.>XqX8XOX1X0X0X0X0X#X:.7.7.8.1.[ T.T.K.H.z.    ",
"      _ 8.8.O.&.8.8.2.t.I.v.o.d.&X5X7X1XY.1.7.8.8.$.G.T.T.T.K.!     ",
"      _ 3.8.1.} +.,.1.1.&.X.2.8.1.d.d.t.| f.a.8.8.e.x.S h.L.L.!     ",
"      9.8.8.8.3.L G O.O.X.*.8.8.3.*.+.} &.8.8.8.8.<.x.D D b.H.E     ",
"      y.8.8.8.8.&.} | | u. .) Z.v.U &.8.8.8.8.8.8.y.J.k.D h.b.      ",
"      9.8.5.8.8.8.8.1.V.wXV.( 6X:X$.8.8.8.8.4.3.8.] K.T.S.G.!       ",
"      ~ 4.w.y.8.8.8.8...+Xn. .+XV.-.8.8.8.p.' t.-.c.T.T.T.T.z.      ",
"      R 5.q.p.8.8.8.6.:.;.-.7.,.-.:.8.8.8.q.` ] <.c.T.S.x.R.j.      ",
"    a w.8.8.<.w.p.8.6.s.s.7.a.a.a.7.8.8.8.y.' q.5.[ P.B.M.b.        ",
"    [.u.8.8.q.` 0.8.8.8.8.8.8.6.8.8.8.8.8.8.<.6.-.c.C.6X>Xh.        ",
"    ;XE.3.8.w.` ] 8.8.8.8.8.8.8.8.8.8.8.6.p.8.8.9.S.oXqX3XM.        ",
"     XA.3.8.p.] p.8.8.8.8.8.8.8.8.8.8.8.4.' p.8.w.m.>X9X3X[.        ",
"      9.8.6.8.3.8.8.8.8.8.8.8.8.8.8.8.8.8.y.4.8.e.l.<X0X3X[.        ",
"      ~ 0.I.I.u.y. .Z.u.$.$. .Z.r.,.1.*.y.y.,.,.) m.].$X;XM.        ",
"      H +X0XqX<X1X>X|.$XN.B g A %XC.V.&X:X%XOXE.B.oX{.j.R r         ",
"      Y N.XXXX$X$X$X.X).|.V f  X}.;X6X7X8X0XqX6X{.-X=Xb.R           ",
"      I c : @ @ : x 3 * - f g 4 3 i Z Z p a C A 0 4 * H j           ",
"      U N q - - 4 v q O + d h 2 $ + x l O O + l 1 + X F j           ",
"      +.N M M M M M m m v d d b n v n n v v v b > 1 > K k           ",
"    J ,.N v v n v m n n n v b M M M M M M M M v > 1 1 K F           ",
"    I %.| 6     : 4 < < < 4 9 9 l 9 l l l l l 9 - ; 6 &.%.          ",
"    7 +.+.        , < 1 , +           ; 1 > 1 ;     J 8.8.P         ",
"      U G 7         5 7                 ; 6 ,       L X.+.P         ",
"        5           L |                   Y F         L L j         ",
"                    H Y                   U G           5           ",
"                    s M.                  R                         ",
"                    Q.Q.                  ~.                        ",
"                    `.`.                  !.                        ",
"                    ).).                  ;X                        ",
"              &   . % &                   _.u                       ",
"              i u . . X           X s o . X .                       ",
"              . . . . X           . % X . X X                       ",
"                                    . .                             "
};
