/* XPM */
static char *df88w1u_28c92797_9336_4acc_bc3e_ade5a7c0d290_resized[] = {
/* columns rows colors chars-per-pixel */
"34 45 206 2 ",
"   c None",
".  c #010101",
"X  c #090A09",
"o  c #090805",
"O  c #181718",
"+  c #081115",
"@  c #291809",
"#  c #3E1F0E",
"$  c #3A2514",
"%  c #262626",
"&  c #393939",
"*  c #491D0F",
"=  c #46230F",
"-  c #4B2F1A",
";  c #442B17",
":  c #592F14",
">  c #45301D",
",  c #5B351A",
"<  c #693917",
"1  c #713B1C",
"2  c #753B17",
"3  c #523C2D",
"4  c #5B5209",
"5  c #68580B",
"6  c #71401F",
"7  c #684A10",
"8  c #736D09",
"9  c #584536",
"0  c #6A4223",
"q  c #794C28",
"w  c #627D2D",
"e  c #71722A",
"r  c #295D74",
"t  c #214D64",
"y  c #705A49",
"u  c #7B6757",
"i  c #666666",
"p  c #737965",
"a  c #71727D",
"s  c #B02F1C",
"d  c #9D3A27",
"f  c #D92B18",
"g  c #85730E",
"h  c #88542B",
"j  c #935B2E",
"k  c #9E453C",
"l  c #B64029",
"z  c #986430",
"x  c #AD6C38",
"c  c #A86935",
"v  c #B16F3A",
"b  c #B5713B",
"n  c #BA743D",
"m  c #C74A20",
"M  c #897150",
"N  c #8D7067",
"B  c #6C8732",
"V  c #7B953B",
"C  c #718032",
"Z  c #8C850B",
"A  c #938C0D",
"S  c #9E970D",
"D  c #A29B0D",
"F  c #A89715",
"G  c #ADA50F",
"H  c #B3AA0F",
"J  c #BDB50F",
"K  c #ADA51C",
"L  c #B7AA11",
"P  c #9A9529",
"I  c #979939",
"U  c #A39D2A",
"Y  c #A39C20",
"T  c #9FA038",
"R  c #ABA526",
"E  c #ADA927",
"W  c #B3AC25",
"Q  c #BCB423",
"!  c #BAB72A",
"~  c #A9A93A",
"^  c #ABAB34",
"/  c #BCBA32",
"(  c #B5B636",
")  c #B2AB37",
"_  c #C2B90F",
"`  c #C4BA10",
"'  c #C5B914",
"]  c #C3BB29",
"[  c #C4BE33",
"{  c #CBC10F",
"}  c #D6CC0F",
"|  c #DBD10E",
" . c #CAC111",
".. c #CDC41F",
"X. c #D3CA1E",
"o. c #D7CB18",
"O. c #DDD213",
"+. c #DDD31D",
"@. c #E4DA1B",
"#. c #EBDC1A",
"$. c #E4D716",
"%. c #F5DE1F",
"&. c #EDE214",
"*. c #ECE21B",
"=. c #F1E514",
"-. c #F5EA15",
";. c #FAEE15",
":. c #F3E51A",
">. c #F5EA19",
",. c #FAEC18",
"<. c #F9E61A",
"1. c #FFF315",
"2. c #EBE00F",
"3. c #C5C12D",
"4. c #CBC629",
"5. c #D5CD22",
"6. c #D3CC29",
"7. c #DCD423",
"8. c #CBC538",
"9. c #D4CC34",
"0. c #E3DB21",
"q. c #E5D521",
"w. c #F1D622",
"e. c #E1D935",
"r. c #E7CC33",
"t. c #868C54",
"y. c #8BA545",
"u. c #96AC48",
"i. c #9BB54D",
"p. c #97A658",
"a. c #9FB950",
"s. c #A5A944",
"d. c #ACB748",
"f. c #B2BB48",
"g. c #A8BB54",
"h. c #B6B658",
"j. c #B3AE4A",
"k. c #8D8B70",
"l. c #B0B26C",
"z. c #C4BF5A",
"x. c #C0BA41",
"c. c #C3BE66",
"v. c #A9C356",
"b. c #B4C455",
"n. c #B5CA5A",
"m. c #B9CD5B",
"M. c #BBD15E",
"N. c #B7D05E",
"B. c #BED662",
"V. c #BFD863",
"C. c #B1C763",
"Z. c #C8C247",
"A. c #DCD342",
"S. c #C7C25E",
"D. c #D7D15B",
"F. c #C4DD66",
"G. c #C0D762",
"H. c #D5CF60",
"J. c #EBD16B",
"K. c #C6E068",
"L. c #3A7893",
"P. c #497D93",
"I. c #A37C88",
"U. c #788696",
"Y. c #4C93B0",
"T. c #898996",
"R. c #AE9992",
"E. c #9BB290",
"W. c #B7B79C",
"Q. c #AFAF91",
"!. c #98BBBC",
"~. c #ACABAB",
"^. c #B7AEA9",
"/. c #B8B8B6",
"(. c #B9BCAD",
"). c #C2BF8A",
"_. c #C7BCB4",
"`. c #C0B4AA",
"'. c #B6C8B0",
"]. c #C9C581",
"[. c #C8C595",
"{. c #D1CD84",
"}. c #C7C3B6",
"|. c #D4D3B6",
" X c #D0CEA6",
".X c #E0DABB",
"XX c #88B4C7",
"oX c #96BAC5",
"OX c #B4BDC1",
"+X c #B7CBD4",
"@X c #B1CFD9",
"#X c #CEC8C8",
"$X c #D5D5CB",
"%X c #CDD5D5",
"&X c #D1D3CF",
"*X c #E0DFC3",
"=X c #E5E5D7",
"-X c #ECE6D0",
";X c #D3E7E9",
":X c #EAEAE8",
">X c #F2F2EE",
",X c #EAF9FB",
"<X c #F4F4F3",
"1X c #F6F6FB",
"2X c #FEFEFE",
"3X c #F1EFF0",
/* pixels */
"                      R W E     U E R     U Q R     E Q U U W W     ",
"            P 4.+...X.*.1.-.@.X.#.>.:.+.X.*.;.:.+.+.>.;.@.+.;.@.    ",
"            I $.1.1.1.1.1.1.1.1.1.1.1.1.1.1.1.1.1.1.1.1.[ / >.+.    ",
"        s.b.M./ -.0.3.1.1.1.1.1.1.1.1.1.1.1.1.1.1.1.1.>.( ~ 0...    ",
"      ~ B.F.V.b.#.7./ 1.1.1.;.;.} 1.-.1.1.2.1.| 2.-.-.1.3.~ 0...    ",
"    s.M.B.u.y.d.#.;.>.1.1.1.J X.U 9.G =.1.L [ h.S.)  .1.-.0.1.@.    ",
"  I n.F.y.w V d.*.1.1.1.1.-.z.|.:X:X}.) 0.{.:X2X2X%Xt.@.1.1.;.-.E   ",
"    b.M.B B v.b.+.1.1.1.1.H.<X2X2X2X@XY.p 1X2X2X1XXXt 4 -.>.3.*.E   ",
"    I n.i.v.K.V./ ;.1.1.0.-X2X2X2X2XXXr O %X2X2X2XXXr X ` 1.4.7.    ",
"      b.K.K.F.V.( ,.1.1.A.<X2X2X2X2X+XL.+ ~.2X2X2X+XY.r E 1.1.@.    ",
"      m.V.v.B.B./ 1.1.1.A.<X2X2X2X2X<XXXP.OX2X2X2X1X+XoX8.1.1.>.R   ",
"      f.n.V m.G.( ;.1.,.r.J.-X2X2X2X2X1X#X:X2X2X2X:X Xl.5.1.1.>.W   ",
"      u.m.m.F.F.b.+.1.;.,.-.J.2X2X2X2X>X].:X1X:X[.8.&.&.J 1.1.@.    ",
"        n.F.F.B.M.3.1.1.<.<.r..X:X>X*XD.O.~ S.8.=.1.1.;.` 1.1...    ",
"        m.F.g.V g.3.1.1.%.w.' o.e.e.*.1.1.} | =.-.2.| J $.1.1.X.    ",
"        n.n.B w u.X.1.1.;.;.%.` { $.-.1.1.=.} { { G A =.1.1.1.@.    ",
"        s.g.w y.n.4.1.1.1.1.1.1.2.{ s.z.] ' 8.] ' ' } 1.1.1.1.*.U   ",
"        I v.g.V.K.( *.1.>.,.1.1.1.-.[.1Xh.j.:XW.$.1.1.1.1.>.1.+.    ",
"        I M.K.K.K.b.5.0.( 4.1.1.1.-.h.[.x.[ [.h.=.1.1.1.*./ >.'     ",
"        I M.v.a.K.b.+.6.s./ 1.1.1.%.#.#.:.w.#.#.<.1.1.1.>.3.>.!     ",
"          d.p.k.C.b.2.+.^ 4.1.1.1.;.%.w.w.%.%.w.,.1.>.4.0.;.1.7.t.  ",
"          I '.1XQ.v.X.1.*.>.1.1.1.1.1.;.;.;.1.1.1.1.6.~ / ,.1.0.Q.  ",
"          t.%X,X%Xv./ ;.1.*.;.1.1.1.1.1.1.1.1.1.1.1.6.~ / ;.1.8.$X  ",
"          k.;X,X,Xl.( -.>.( 7.1.1.1.1.1.1.1.1.1.1.1.*.[ 7.1.1.8.}.  ",
"          k.;X,X1Xl./ 1.;.7.>.1.1.1.1.1.1.1.1.1.1.1.1.1.1.;.1.+.    ",
"          t.(.#XW.p.^ &.-.+.7.&.&.*.7.8.] o.+.6.Z./ 6.6.Z.S.Z.K     ",
"            e ~ E.'.E.l.{.|.*X|.].l.|.R.l m k.}.}.#X-X=X<X2X=XU     ",
"            e / !.@XoX&X1X1X1X<X:X#X~./.k d ^.R.^.#X}.}._.`.R.K     ",
"            5 H $ 3 9 M N u y M M y 3 3 s s - $ > z 0 $ $ ; h H     ",
"            4 H @ @ < h - @ @ , v ; @ * f f * $ - c q - - , z J     ",
"            7 G < 2 1 j x x x v b v v x d s c b n n n n n n c  .D   ",
"            5 L 2 2 < j n n n n n n n n c c b b x b v v x v z O.`   ",
"            ` -.g = = 0 j h h h h h h q q < 6 6 6 1 ,       Y $.` Z ",
"            &.1.`     = < 1 2 :             : 1 1 < #       ` O.Z   ",
"          Z  .O.H g     : 7 : =               5 g           A J     ",
"            S L           H                   D J           4 5     ",
"                          `                   A G                   ",
"                          Y                   N k.                  ",
"                          U.                  P.T.                  ",
"                          I.                  N R.                  ",
"                          #X                  a /.                  ",
"                          T.&                 % & .   &             ",
"                        . o . o i %           X . . % i X           ",
"                          X . . % +           X . . . . .           ",
"                              . . .                                 "
};
