/* XPM */
static char *test_resized[] = {
/* columns rows colors chars-per-pixel */
"45 45 201 2 ",
"   c None",
".  c #1D7536",
"X  c #367B3A",
"o  c #2A7C3B",
"O  c #6C6D35",
"+  c #CC392A",
"@  c #D83726",
"#  c #E43A24",
"$  c #915D2C",
"%  c #875F30",
"&  c #8C5C2F",
"*  c #BC4D37",
"=  c #8C6730",
"-  c #B77A39",
";  c #AA6935",
":  c #DA4828",
">  c #DC5B29",
",  c #D8552A",
"<  c #C94631",
"1  c #D05230",
"2  c #E74726",
"3  c #E25228",
"4  c #E85328",
"5  c #E3592A",
"6  c #EA5A28",
"7  c #DC662B",
"8  c #D36C2C",
"9  c #D96E2D",
"0  c #D66328",
"q  c #C47F2F",
"w  c #DB752E",
"e  c #DE792F",
"r  c #DC6437",
"t  c #CB7D39",
"y  c #D97634",
"u  c #E46E2B",
"i  c #E8652A",
"p  c #E4742D",
"a  c #EA732C",
"s  c #E57C2E",
"d  c #EE7A2E",
"f  c #E57530",
"g  c #EC7B32",
"h  c #E47E31",
"j  c #E86F31",
"k  c #BF584F",
"l  c #B15050",
"z  c #AE555D",
"x  c #BE7C5E",
"c  c #AA7B53",
"v  c #A07A62",
"b  c #AA6D70",
"n  c #CC5540",
"m  c #C67A56",
"M  c #D57243",
"N  c #E17B41",
"B  c #2B853C",
"V  c #348B3E",
"C  c #3A8D3E",
"Z  c #3B863C",
"A  c #3D913C",
"S  c #43883D",
"D  c #46933D",
"F  c #4B913D",
"G  c #4B9A3E",
"H  c #57953E",
"J  c #548C3A",
"K  c #62993D",
"L  c #6A973B",
"P  c #759A39",
"I  c #7B9E3A",
"U  c #769B37",
"Y  c #7BA038",
"T  c #2E8C40",
"R  c #328D40",
"E  c #388E40",
"W  c #3B9443",
"Q  c #3F9A44",
"!  c #508F40",
"~  c #439542",
"^  c #439B44",
"/  c #499D44",
"(  c #4AA146",
")  c #BB8437",
"_  c #84A437",
"`  c #93AD3A",
"'  c #97AF37",
"]  c #9CB135",
"[  c #A7B837",
"{  c #D98539",
"}  c #C38839",
"|  c #E5812F",
" . c #F5892F",
".. c #E48434",
"X. c #EB8432",
"o. c #E68937",
"O. c #EB8B35",
"+. c #E68A3A",
"@. c #EA8E39",
"#. c #EA853C",
"$. c #F48A34",
"%. c #F18836",
"&. c #EC933C",
"*. c #EB953C",
"=. c #F2953A",
"-. c #F39C3C",
";. c #F69334",
":. c #DCA13E",
">. c #F7A33D",
",. c #F9A43D",
"<. c #FCA83F",
"1. c #BC8742",
"2. c #BE9048",
"3. c #BB8A5F",
"4. c #AA8C51",
"5. c #9B8368",
"6. c #BB8875",
"7. c #B68373",
"8. c #B89878",
"9. c #D88546",
"0. c #CE9740",
"q. c #CA865B",
"w. c #D69657",
"e. c #D58D52",
"r. c #E58F42",
"t. c #EE9B43",
"y. c #EC9E4B",
"u. c #EC9543",
"i. c #F29C44",
"p. c #E29B52",
"a. c #EDA44D",
"s. c #F4A243",
"d. c #F9A641",
"f. c #FBAA43",
"g. c #F3A44A",
"h. c #F6A94C",
"j. c #FAAC4C",
"k. c #F8A747",
"l. c #FCB14F",
"z. c #E7A95A",
"x. c #F5AC52",
"c. c #F9AF51",
"v. c #FBB153",
"b. c #F8B358",
"n. c #C38B67",
"m. c #CE8A72",
"M. c #C49575",
"N. c #D9A76F",
"B. c #D0A470",
"V. c #D7B17D",
"C. c #E9B065",
"Z. c #FCBB65",
"A. c #9F6E83",
"S. c #769BC3",
"D. c #72A2CD",
"F. c #69BEE7",
"G. c #72BCE7",
"H. c #7BC1E7",
"J. c #998D9B",
"K. c #BD9987",
"L. c #A59495",
"P. c #AD908B",
"I. c #B8A596",
"U. c #B2A08A",
"Y. c #8C90AC",
"T. c #989CB5",
"R. c #9A94AE",
"E. c #98A0BC",
"W. c #ACB3AF",
"Q. c #ABB1BF",
"!. c #BAB6B2",
"~. c #A4A3B4",
"^. c #C39D85",
"/. c #C2A589",
"(. c #869BC5",
"). c #8CA1CB",
"_. c #87A4C4",
"`. c #90A3CE",
"'. c #99ABCE",
"]. c #98A8C7",
"[. c #8DA4D1",
"{. c #8AABD4",
"}. c #95ABD3",
"|. c #99ADD2",
" X c #9AAED8",
".X c #9CB1D5",
"XX c #9EB5DA",
"oX c #99B9DB",
"OX c #88B4DC",
"+X c #A2B4D3",
"@X c #A1B6DA",
"#X c #A5B9D8",
"$X c #ACBEDB",
"%X c #ADB6C7",
"&X c #90BEE3",
"*X c #B2C1DA",
"=X c #95C8E8",
"-X c #A9C7E3",
";X c #B0D2EC",
":X c #C0CDE4",
">X c #C5D1E8",
/* pixels */
"                                                                                          ",
"                                                                                          ",
"                                          G                                               ",
"                                          /                                               ",
"                                          (                                               ",
"                                  ~     W /     U                                         ",
"                                  / Z   ~ (     _     W                                   ",
"                              P   / C   ~ / C _ '     ^                                   ",
"                              `   ~ ~   ~ ( S ] ]   ^ /                                   ",
"                              [ '   ^ T W ^ H [ '   / ^                                   ",
"                                [ L W W V Q H [ Y ^ ( W                                   ",
"                                ] ` ~ Q R Q K [ F / ^ ! J                                 ",
"                            Z   P ' K W R Q H L ^ ^ D I                                   ",
"                              D F I Y C T W S / ~ C I U                                   ",
"                              B A ! L Z B B B W V L P / ~                                 ",
"                                  R S X . . B o S H F E                                   ",
"                                    O = & % $ % O X .                                     ",
"                                  i g g p %.a p 9 1           #X+X+X                      ",
"                              i g p 9 h ;.;.;.p 9 s p         -X*X                        ",
"                            > d  .s ....O.-.X.O.=.s p f         >X                        ",
"                          1 d  .s =.k.k.o.e *.j.i.i...> ,       :X                        ",
"                        * > a ..s.h.x.x.+.+.+.h.x.j...p 0     @X$X                        ",
"                        > a 8 e.C.b.g...-.f.-.o.i.O.X.r.P.R.#X>X;X                        ",
"                        6 y L.S._.8.h -.d.>.d.s.w w ,.y.6.b                               ",
"                      @ 5 n.D.F.G.Y.9.f.k.t.l.t.+.@.o.k.=.>                               ",
"                      : j I.=X;X=XT.{ u.l.v.g.+.,.d.&.+.%.> :                             ",
"                      : g U.&X;XoXL.s.O.*.t.+.>.d.d.d.&.8 j 5                             ",
"                      4 p M L.T.J.e.f.d.&.8 -.f.h.g.v.t.y u 5                             ",
"                    @ 6 d 9 { p.a.a.l.j.r.*.+.h.v.v.g.+.>.s ,                             ",
"                    @ 6 p -.X.o.h.v.v.+.-.f.=.+.g.i...-.,.$.5                             ",
"                    @ > X.,.<.=...=.o.*.f.,.f.s...w -.d.=.%.5                             ",
"                    + 6  .;.>.<.a.n.M.z.j.a.b.b.+.p &.f.-.@., <                           ",
"                    + 4  .=.k.z.!..XXX%X/.Z.Z.u.&.z.6.N.x.#.: <                           ",
"                    @ : X.k.c.I.[.XX@X}.Q.Z.t.| a.!.OX{.^.r 4 <                           ",
"                    # 2 7 X.9.]. X$X@XXX'.q.s >.N.oXH.H.~.r 4                             ",
"                    @ 2 i 0 m `.|.+X'.'.[.7.O.<.B.{.=X=X~.r #                             ",
"                    + 2 4 p M.[.`.(.(.`.}.K...s.z.~.XX#XK., <                             ",
"                    l n r g ^.[.|.(.(.`.{./.>.o.g.a.6.m.M n z                             ",
"                    v v } { P.).|. X).'.`./.j.*.| p a d m b A.                            ",
"                      4.0.} 8.).@X#X.X|.{.B.g.:.) 0 p y 6.P.                              ",
"                        2.- 3.`.@XXXXX|.E.w.+.0.) - 1.9.q.I.                              ",
"                            v (.`.}. X'.W.q.} ) - ; ; 3.                                  ",
"                                                                                          ",
"                                                                                          ",
"                                                                                          "
};
