/* XPM */
static char *_27_resized[] = {
/* columns rows colors chars-per-pixel */
"50 50 201 2 ",
"   c #343533",
".  c #3A3734",
"X  c #3A3935",
"o  c #3D3D3A",
"O  c #373838",
"+  c #433C35",
"@  c #443E39",
"#  c #4B3E38",
"$  c #553F38",
"%  c #4D4236",
"&  c #44413C",
"*  c #4B433C",
"=  c #474037",
"-  c #564837",
";  c #5A4A36",
":  c #54443B",
">  c #5B453C",
",  c #5C4A3C",
"<  c #544738",
"1  c #5F503E",
"2  c #614E37",
"3  c #624A3D",
"4  c #6A4C3F",
"5  c #60463B",
"6  c #65513A",
"7  c #6B553A",
"8  c #6B5235",
"9  c #735A3C",
"0  c #7B5E3B",
"q  c #7D613E",
"w  c #444441",
"e  c #494641",
"r  c #4E4941",
"t  c #4C4C4A",
"y  c #534C43",
"u  c #5A4C41",
"i  c #514E49",
"p  c #5A5145",
"a  c #55524C",
"s  c #5C554C",
"d  c #5B544A",
"f  c #595652",
"g  c #5B5853",
"h  c #644D41",
"j  c #6B4D41",
"k  c #714E41",
"l  c #625243",
"z  c #6B5345",
"x  c #62554C",
"c  c #655A4C",
"v  c #6A5D4C",
"b  c #6C5944",
"n  c #745345",
"m  c #7A5545",
"M  c #755748",
"N  c #76594A",
"B  c #7C5B4A",
"V  c #785945",
"C  c #625B54",
"Z  c #635E59",
"A  c #655952",
"S  c #6D614E",
"D  c #776248",
"F  c #6C6252",
"G  c #66615B",
"H  c #6B635C",
"J  c #746652",
"K  c #756954",
"L  c #7B6D56",
"P  c #796B58",
"I  c #7E7159",
"U  c #6E6964",
"Y  c #6B6761",
"T  c #726C66",
"R  c #736F69",
"E  c #746A62",
"W  c #76716C",
"Q  c #7B756E",
"!  c #7E7972",
"~  c #7D7771",
"^  c #83643E",
"/  c #88663F",
"(  c #936C3E",
")  c #835544",
"_  c #835E4C",
"`  c #8B5C49",
"'  c #885846",
"]  c #935E4A",
"[  c #815F50",
"{  c #85614F",
"}  c #88624F",
"|  c #886842",
" . c #926E43",
".. c #94614D",
"X. c #9C644E",
"o. c #9B7649",
"O. c #997447",
"+. c #876250",
"@. c #8A6452",
"#. c #8F6955",
"$. c #926A56",
"%. c #966D58",
"&. c #996E59",
"*. c #9E6750",
"=. c #83745B",
"-. c #8A7A5E",
";. c #84765C",
":. c #9D735D",
">. c #A3664E",
",. c #A9694F",
"<. c #A47947",
"1. c #A67C4A",
"2. c #A97E4B",
"3. c #A67A46",
"4. c #A46750",
"5. c #AA6C53",
"6. c #A46951",
"7. c #B26E54",
"8. c #A1755F",
"9. c #B47156",
"0. c #BE7559",
"q. c #B97457",
"w. c #8C7D61",
"e. c #907D61",
"r. c #837C74",
"t. c #867F78",
"y. c #A37760",
"u. c #A47860",
"i. c #A87961",
"p. c #C1775A",
"a. c #C47A5D",
"s. c #C97C5E",
"d. c #CA7E60",
"f. c #AD814D",
"g. c #B1844E",
"h. c #B9884F",
"j. c #B6884F",
"k. c #B48750",
"l. c #B78950",
"z. c #BB8C53",
"x. c #948365",
"c. c #9A8867",
"v. c #9E8B6A",
"b. c #958967",
"n. c #8B837B",
"m. c #87807A",
"M. c #92887F",
"N. c #91877E",
"B. c #8E8163",
"V. c #A18D6B",
"C. c #A6926D",
"Z. c #AA956F",
"A. c #AC9670",
"S. c #AD9972",
"D. c #B49D74",
"F. c #B5A076",
"G. c #B9A277",
"H. c #BCA479",
"J. c #BDA87A",
"K. c #B5A578",
"L. c #C39256",
"P. c #C69558",
"I. c #C89759",
"U. c #CC9A5A",
"Y. c #C89657",
"T. c #D19D5C",
"R. c #C08F54",
"E. c #D5A05C",
"W. c #CD8161",
"Q. c #D38463",
"!. c #D78866",
"~. c #D98967",
"^. c #DE8D69",
"/. c #E18F6A",
"(. c #E6926C",
"). c #EA946D",
"_. c #C3AD7C",
"`. c #C8B17F",
"'. c #C6B17E",
"]. c #958C83",
"[. c #998F85",
"{. c #968F88",
"}. c #9B9186",
"|. c #9D9389",
" X c #A1968C",
".X c #A3998F",
"XX c #A69C92",
"oX c #A89E93",
"OX c #ACA196",
"+X c #AEA399",
"@X c #B4A89C",
"#X c #CBB581",
"$X c #CFB983",
"%X c #D2BC85",
"&X c #D6C087",
"*X c #D7C188",
"=X c #DAC48A",
"-X c #DFC88C",
";X c #E2CB8E",
":X c #E9D091",
">X c #E4CE90",
/* pixels */
"$X_.H.D.D.D.D.D.D.D.D.D.D.D.A.* B 8.:.:.6.:.:.e.8.:.:.j @ u > 5 3 4 4 4 3 h h X e a p p p r F.-X*X&X",
"F.D.F.F.F.G.G.D.F.G.D.G.D.G.A.* _ y.:.:.8.e.&.%.$.$.%.z 3  .o.o.o.o.o.o.O. . .O.O.O.o.o.| , v.#XJ.H.",
"D.D.D.S.Z.D.S.S.S.A.S.D.D.S.;.@ N %.:.:.&.#.{ { { { } j | U.T.T.T.U.T.U.U.T.E.E.E.E.E.E.E.q A v.A.S.",
"z x p * y b z z c z z z N B y + m %.:.$.+.{ { @.+.+.@.j 0 U.I.I.U.U.U.U.I.L.z.L.L.I.I.I.T.D   , l b ",
"%.&._ . ` Q.Q.s.d.a.0.0.s.Q.5.# N 8.%.{ @.{ +.+.+.+.@.h 9 U.I.U.L.z.j.f.2.2.2.2.f.f.f.f.j.q , $.%.%.",
"e.y.&.% 5.).(.(.(.(.(.(./.).a.$ m 8.@._ +.{ +.+.@.+.} 5 9 T.I.2.2.2.2.2.2.2.2.2.1.f.2.2.2.0 z 8.:.:.",
"8.8.#.% 5.(.(.^.!.!.Q.Q.Q.Q.0.> m #.@.@.@.@.} { { _ m % 7 h.2.2.2.2.2.2.f.f.g.g.f.f.f.f.3.7 z 8.:.:.",
"&.@.{ : 5.).!.a.a.a.a.a.0.d.0.> * , , h u > > > - # #   + ; 2 > - - 2 6 9 0 0 q q q q 0 ; . z 8.:.:.",
"{ { @.> X.!.a.a.d.d.d.a.d.d.9.# @ ' $.6.5.5.5.5.5.` . w Y Q ! r.m.m.m.T w r J I ;.-.=.K F & z 8.:.#.",
"{ { { u n 0.p.s.p.a.a.a.p.9.4.# ` (.).).).).(.).).).h U XX+XOXOX+X+X+XXXH =.%X;X;X;X;X;X;X-.z 8.#.+.",
"+.+.@.> X j k j k h 5 5 > > $ . 5.).^.^.^./././.^.).' W OXXXXXXXXXXXXXXXG x.=X=X#X_._._.`.-.z &.+.+.",
"{ { @.: f ! m.t.~ W T Y g f e   9.).^.(.^.~.!.Q.W.Q.` U oXXXoXoXXX|.}.|.Z -.;X_.D.D.D.D.G.L h @.+.+.",
"@.@.` % Q oXOXOXoX+XoXOXoXoX[.w 7.).^.W.a.a.a.0.a.s.` Y oXXXoX|.[.[.[.}.C L %XF.G.G.G.G.H.J 3 @.@.@.",
"M n h . ~ OXXXXXoXoXXXoXoXoXoXf 5.(.d.d.a.d.a.d.s.d.' Y oXoX|.{.}.[.[.}.g v e.C.C.V.V.v.b.p @ n M M ",
"5 - %   r.OXXXoXXX.X.X.XXX.XoXZ 4.!.0.d.a.a.a.a.a.p.) T oX X[.[.[.[.[.|.f X y p 6 l b b D b 7 9 9 6 ",
"L.k. .# Q oXXX X}.[.[.[.[.[.|.H ` d.d.0.d.a.a.a.d.p.m R oX{.[.[.[.[.}.}.s 8  .<.j.R.L.Y.U.U.T.U.U.P.",
"U.U.f.- W  X[.[.[.[.[.}.[.[.{.a ) d.d.a.p.a.a.d.d.p.> T XX}.}.}.[.[.].n.F 2.T.T.T.L.L.U.U.U.I.U.U.U.",
"U.T.h.; T |.}.}.}.}.[.[.].].R   5 4.5.>.7.7.6.9.9.]   f r.t.n.N.].].m.~ b h.U.I.U.k.L.U.U.U.U.U.U.U.",
"z.L.j.6 o Z G F H G C C A s e @ * u h 4 4 j k j 4 : : : u u x x x x g e < l.U.U.U.U.U.z.f.f.k.j.z.z.",
"2.2.f.7 & L Z.G.J.J._._._._._.#X_.H.w.+ M @.#.%.%.:.:.&.&.&.&.&.%.$.$.3 % l.T.U.I.z.f.2.2.2.f.<.2.2.",
"2.f.f.; I %X;X-X-X-X-X=X;X;X=X;X-X:XF.> %.y.&.%.#.@.@.{ +.@.@.#.$.&.:.m % g.U.z.g.2.2.f.2.2.f.f.2.f.",
"f.f.3.% b.;X&X&X*X=X=X=X=X%X%X$X#X#Xv.> &.#._ _ _ _ _ _ +.{ _ _ _ { } z +  .g.1.<.o.f.f.f.f.f.f.f.f.",
"7 7 ; O V.-X&X=X-X%X`.J._.D.D.D.S.D.w.u #._ _ { @.{ { { +.+.+.+.{ _ { z   = 6 0 D ^ / / ^ ^ q q 0 9 ",
"` ' m # v.-X=X%X_.D.D.D.D.D.D.D.D.D.L @ 5 4 j n n n m B B m m m _ m m >         X X . 5 ..X.>.*.X...",
").(./.' c.;X%XG.D.D.D.D.D.G.D.D.D.v.S @ Z H E H F A r @ r A A A x : % C t.n.n.t.t.r.& ../.(.).).).).",
"d.W.!.} x.;XH.D.D.D.D.D.D.D.D.D.c.e.v H .XoXOXOXOXXX[.& ! oXoXoX.XH w |.OXOX+XOXOXOXg >.)./.~.d.d.W.",
"a.a.W...=.H.S.H.G.G.G.G.H.H.G.H.D.e.p R +XoX.X.XXXXX.Xi ].oXXXXX+Xr.a XXoX X X X XXXH 4.).d.a.a.0.a.",
"a.a.0.) * K -.v.v.v.v.x.w.w.;.=.L v o r.OX X[.[.[.[.].a ].oXXXoXoXR i XXoX X}.}. X.XH 4.d.q.d.s.W.W.",
") m n : o * * e * o O * 9 | |  . .| % n..X[.}. X}. X].f |.oXoX.X|.R @ E Q ~ Q Q Q E w > ` ] >.X.] ` ",
"Z.F.K.J._._.'.'._.H.y 2 2.U.T.T.T.T.b W r.r.t.t.t.t.W i  XoX.X]. XQ o d v v F F v c v J L =.: @ I b.",
"-X;X;X;X-X-X=X=X*X;X;.2 z.I.U.I.U.U.9 O e y y y y * X i .XXX[.].|.Q p _.=X*X=X*X*X=X-X;X;X=Xv F ;X;X",
"*X$X#X_.J.H.F.F.D.D.;.- L.U.U.U.I.L.2 w C._.#X`.`._.c.g XXXX[.[.|.! v *X=X*X=X=X*X%X%X$X%X*XI J ;X*X",
"K.D.D.D.D.D.D.D.A._.=.< l.U.L.l.f.f.- c *X-X=X=X-X;X$XF  XXX[.[.|.! K *X=X*X#X_.D.D.D.D.D.D.-.L ;X$X",
"G.H.H.G.H.H.D._.D.A.L - l.I.1.2.2.2.% I =X*X=X&X%X%X_.H |.XX[.[.}.! J =X*XH.D.G.G.G.H.H.H._.e.K H.D.",
"=.=.=.=.=.=.=.=.+.S y - z.z.1.2.2.2.* B.;X*X#XG.D.D.D.F ].XX}.M.[.Q c H.G.Z.Z.C.V.c.-.;.K F e @ J I ",
"  s T Q Q Q Q Q Q U t ; z.k.2.2.f.f.- V.;X_.D.D.D.D.G.c f Y U U U f X y r r & & o # > j n m _ ` ` 4 ",
"r {.oX+X+X+X+X+XOX@X! 7 z.f.2.2.f.<.2 v.$XD.G.H.G.F.G.p + 9 0 q | ^ | D 9 8 ; X # a./.(.).).).).(.X.",
"f XXoXXX.XXX X X XOX! ; o.2.3.2.3. .; P V.V.V.v.v.v.-.y 0 Y.T.T.T.U.T.U.U.Y.h.- k /.(.^.Q.d.s.Q.Q.6.",
"C XX|.[.[.[.[.[.[.}.U   * , 6 l u , @ @ & y h h h u y o / T.I.U.U.U.U.U.T.T.T.; ) ).Q.d.a.a.a.a.a.5.",
"f [.N.[.|.{.|.}.}.N.i o t.].[.{.{.{.].].C ) a.d.a.0.5.4  .T.I.U.z.f.f.k.l.z.L.6 k a.p.a.s.s.s.a.p.>.",
"o i g Z G G H Z C g   i XXoXOXOXoXOXOX+XW ,.~.).(.(.).5. .T.P.l.2.2.2.2.1.2.f.6 . $ : $ 5 h 5 > , : ",
"@.[ { [ B M n z l 3 + a oXXXoXXX X X XXXP 0.)././.(.).6. .U.f.2.2.2.2.2.2.2.f.2 s w.b.b.;.o @ B +.+.",
"y.8.y.&.y.e.y.y.8.y._ g XXXX X[.[.[.[.[.Z q.(./.~.Q.Q.>.| 2.2.f.f.f.2.2.2.f.2.- v.:X;X:X-Xc j i.:.8.",
"@.{ _ { { ` _ +.{ #.` c XX.X[.[.[.[.[.[.x q.(.d.a.a.a.X.9  .o.<.<.1.2.2.1.1.3.< S.-X%X=X%Xv z u.:.$.",
"} @.} } @.} } +.} { _ x |..X[.[.[.[.{.[.y 9.^.a.a.a.d.6.+ : > 3 6 7 7 6 6 6 6 & G.-X=X$XD.c j &.@.{ ",
"n n n n M m n m m m 4 y R n.M.[.[.[.[.t.e 5.Q.a.a.a.d.4.u @.@.@.@.@.+.+.+.B n * F.;X%XD.D.c : z n n ",
"v N J K J D J S v c d : & * e i i f f t . ) ,.9.p.p.d...z u.8.8.e.u.u.u.u.u.u.z A.;X_.D.A.p   e 1 c ",
"=X;X%X;X=X=X*X%X%X$X#X_.H.V.x   . + @ # @ # > 5 4 4 4 # M y.6.e.:.&.#.#.$.$.&.u C.;XH.D.A.c K _.%X&X",
"=X*X=X*X=X=X=X=X=X-X-X=X-X>XZ.X z %.&.&.&.&.$.#.@.[ h . B y.&.%.@.{ ' _ _ _ } u c.=XOXD._.{ Z.;X=X=X",
"*X=X*X=X*X%X%X%X$X$X#X#X_.#XA.o B 8.:.:.:.:.e.y.8.i.&.5 M #.{ _ { { { { +._ ' u J A._.A.D.L A.;X&X&X"
};
