/* XPM */
static char *_3234e8f59d44dafbda7aba5bce00455rk8r6oPUre5tGSpP_5[] = {
/* columns rows colors chars-per-pixel */
"55 55 256 2 ",
"   c #0F0000",
".  c #6E090E",
"X  c #4F1C1F",
"o  c #122425",
"O  c #172E31",
"+  c #1F3247",
"@  c #273333",
"#  c #253C3D",
"$  c #2A4145",
"%  c #2A3E5C",
"&  c #34495E",
"*  c #344A4F",
"=  c #354C4A",
"-  c #344546",
";  c #3D494A",
":  c #3A504E",
">  c #3C5151",
",  c #405553",
"<  c #395958",
"1  c #445957",
"2  c #4A5A59",
"3  c #495E5D",
"4  c #496260",
"5  c #536161",
"6  c #4D6463",
"7  c #466565",
"8  c #456966",
"9  c #516967",
"0  c #476E6B",
"q  c #4C7071",
"w  c #537072",
"e  c #597270",
"r  c #576E6D",
"t  c #5A6A6A",
"y  c #666566",
"u  c #794D4C",
"i  c #803433",
"p  c #803C3A",
"a  c #934F4C",
"s  c #A96565",
"d  c #A77770",
"f  c #747976",
"g  c #647A78",
"h  c #647676",
"j  c #617272",
"k  c #5F7674",
"l  c #5C7977",
"z  c #537D7A",
"x  c #5A8281",
"c  c #62817E",
"v  c #678380",
"b  c #708383",
"n  c #6D8987",
"m  c #668C89",
"M  c #658E8D",
"N  c #6B918E",
"B  c #709996",
"V  c #73948F",
"C  c #748E8A",
"Z  c #7D8D8C",
"A  c #799290",
"S  c #7B9893",
"D  c #859997",
"F  c #7E9B98",
"G  c #789D99",
"H  c #759F9C",
"J  c #7FA19D",
"K  c #78A3A0",
"L  c #79A5A0",
"P  c #7AAAA2",
"I  c #80AAA5",
"U  c #80A9AA",
"Y  c #85ABA7",
"T  c #84A8A5",
"R  c #82A5A2",
"E  c #82A59F",
"W  c #87A39F",
"Q  c #8BA6A2",
"!  c #8FA7A5",
"~  c #92A69F",
"^  c #93A69C",
"/  c #9AA095",
"(  c #B48F83",
")  c #C29D93",
"_  c #BFA89E",
"`  c #A5AFA6",
"'  c #9EB2A5",
"]  c #9AB1AC",
"[  c #96ACA7",
"{  c #91AEAB",
"}  c #8EABA9",
"|  c #8DAEAA",
" . c #90B2AE",
".. c #87B5AF",
"X. c #89B5B8",
"o. c #8CB9B2",
"O. c #91B5B2",
"+. c #96B4B2",
"@. c #9AB7B6",
"#. c #96BCB7",
"$. c #95BDB9",
"%. c #96BDC9",
"&. c #96B9E3",
"*. c #8BAEE4",
"=. c #89ABEC",
"-. c #83A5E8",
";. c #7EA1E6",
":. c #7D9FD8",
">. c #769ADA",
",. c #7396D4",
"<. c #6E90D0",
"1. c #6F90C6",
"2. c #6A91B1",
"3. c #658BB0",
"4. c #6185B0",
"5. c #5D7EBD",
"6. c #5273AE",
"7. c #4E73A4",
"8. c #4C6CAD",
"9. c #4464AB",
"0. c #43659D",
"q. c #4C6C9A",
"w. c #4E6D8C",
"e. c #526D85",
"r. c #486480",
"t. c #435C75",
"y. c #3F5A7C",
"u. c #395571",
"i. c #2E4B8C",
"p. c #393972",
"a. c #403264",
"s. c #4B3071",
"d. c #523481",
"f. c #5A3B84",
"g. c #594E85",
"h. c #5B4991",
"j. c #5C3F92",
"k. c #5D3592",
"l. c #623B99",
"z. c #6F42AB",
"x. c #6D3CB4",
"c. c #7042BA",
"v. c #7340BF",
"b. c #7A47C4",
"n. c #7E4AC7",
"m. c #8947CB",
"M. c #844ED1",
"N. c #7F55D7",
"B. c #8256D9",
"V. c #8658DC",
"C. c #8856DD",
"Z. c #895BE0",
"A. c #8F5CE5",
"S. c #965FE9",
"D. c #A05EEC",
"F. c #A065EA",
"G. c #98C3C5",
"H. c #92CAC1",
"J. c #9CC7C0",
"K. c #A1C4BF",
"L. c #A7C1BC",
"P. c #A2BFBD",
"I. c #9DC0BC",
"U. c #98C0BB",
"Y. c #9ABFB9",
"T. c #A1BCB9",
"R. c #A2B8B6",
"E. c #AAB9B1",
"W. c #B0BEB5",
"Q. c #BCBDB4",
"!. c #CEC0B3",
"~. c #C0C9BB",
"^. c #B0C6C3",
"/. c #AAC5C4",
"(. c #A4C8C5",
"). c #A6CBC6",
"_. c #ABCCC8",
"`. c #ADCECA",
"'. c #ACD0CC",
"]. c #ABD3CE",
"[. c #AAD7D2",
"{. c #B1D7D2",
"}. c #B1D9D3",
"|. c #B5DBD7",
" X c #B9DAD5",
".X c #BAD7D1",
"XX c #C2D1C7",
"oX c #C7DBCD",
"OX c #C0DDD9",
"+X c #B9DDD9",
"@X c #B3E1DB",
"#X c #BDE5DF",
"$X c #C3E2DE",
"%X c #C3E6E1",
"&X c #BDEAE2",
"*X c #C3EAE3",
"=X c #C4E8E9",
"-X c #C7EAE5",
";X c #C8ECE7",
":X c #C4EEE7",
">X c #C6F1E9",
",X c #C9F0EA",
"<X c #CBF0EA",
"1X c #D0ECEA",
"2X c #CEF0EC",
"3X c #CDF2ED",
"4X c #CDF2F1",
"5X c #CFF3EE",
"6X c #CCF3ED",
"7X c #D0F4EE",
"8X c #CBF5EF",
"9X c #CDF6F0",
"0X c #CEF7F0",
"qX c #CEF8F1",
"wX c #CFF8F3",
"eX c #D1F9F3",
"rX c #D2F9F3",
"tX c #D3F8F2",
"yX c #D2F6F1",
"uX c #D4F6F3",
"iX c #D6F5EF",
"pX c #D8F2F0",
"aX c #DAF5F3",
"sX c #DAF9F3",
"dX c #D6F9F5",
"fX c #D5FAF7",
"gX c #D3FCF6",
"hX c #D7FCF7",
"jX c #D5FDF8",
"kX c #D7FEF7",
"lX c #D8FEF8",
"zX c #D7FEFB",
"xX c #D9FEFA",
"cX c #DAFEFB",
"vX c #DBFEF8",
"bX c #DCFEFB",
"nX c #DDFEFD",
"mX c #DDFEFE",
"MX c #DFFEFE",
"NX c #E0FEFD",
"BX c #E2FEFE",
"VX c #E5FEFE",
"CX c #E6FEFE",
"ZX c #E8FEFE",
"AX c #EAFEFE",
"SX c #EDFEFE",
"DX c #F1FEFE",
"FX c #FBFEFE",
"GX c #FEFEFC",
"HX c #FEFEF2",
"JX c #F8FCEB",
"KX c #EEF6DE",
"LX c #F0EAD5",
"PX c #E9E1CD",
"IX c #DEE1D1",
"UX c None",
/* pixels */
"UXUXUXUXUXUXUXUXUXUXUXUXUXUXUXUXUXUXUXUXUXUXUXUXUXUXUXUXUXUXUXUXUXUXUXUXUXUXUXUXUXUXUXUXUXUXUXUXUXUXUXUXUXUXUX",
"UXUXUXUXUXUXUXUXUXUXUXUXUXUXUXUXUXUXUXUXUXUXUXUXUXUXUXUXUXUXUXUXUXUXUXUXUXUXUXUXUXUXUXUXUXUXUXUXUXUXUXUXUXUXUX",
"UXUXUXUXUXUXUXUXUXUXUXUXUXUXUXUXUXUXUXUXUXUXUXUXUXUXUXUXUXUXUXUXUXUXUXUXUXUXUXUXUXUXUXUXUXUXUXUXUXUXUXUXUXUXUX",
"UXUXUXUXUXUXUXUXUXUXUXUXUXUXUXUXUXUXUXUXUXUXUXUXUXUXUXUXUXUXUXUXUXUXUXUXUXUXUXUXUXUXUXUXUXUXUXUXUXUXUXUXUXUXUX",
"UXUXUXUXUXUXUXUXUXUXUXUXUXUXUXUXUXUXUXUXUXUXUXUXUXUXUXUXUXUXUXUXUXUXUXUXUXUXUXUXUXUXUXUXUXUXUXUXUXUXUXUXUXUXUX",
"UXUXUXUXUXUXUXUXUXUXUXUXUXUXUXUXUXUXUXUXUXUXUXUXUXUXUXUXUXUXUXUXUXUXUXUXUXUXUXUXUXUXUXUXUXUXUXUXUXUXUXUXUXUXUX",
"UXUXUXUXUXUXUXUXUXUXUXUXUXUXUXUXUXUXUXUXUXUXUXUXUXUXUXUXUXUXUXUXUXUXUXUXUXUXUXUXUXUXUXUXUXUXUXUXUXUXUXUXUXUXUX",
"UXUXUXUXUXUXUXUXUXUXUXUXUXUXUXUXUXUXUXUXUXUXUXUXUXUXUXUXUXUXUXUXUXUXUXUXUXUXUXUXUXUXUXUXUXUXUXUXUXUXUXUXUXUXUX",
"UXUXUXUXUXUXUXUXUXUXUXUXUXUXUXUXUXUXUXUXUXUXUXUXUXUXUXUXUXUXUXUXUXUXUXUXUXUXUXUXUXUXUXUXUXUXUXUXUXUXUXUXUXUXUX",
"UXUXUXUXUXUXUXUXUXUXUXUXUXUXUXUXUXUXUXUXUXUXUXUXUXUXUXUXUXUXUXUXUXUXUXUXUXUXUXUXUXUXUXUXUXUXUXUXUXUXUXUXUXUXUX",
"UXUXUXUXUXUXUXUXUXUXUXUXUXUXUXUXUXUXUXUXUXUXUXUXUXUXUXUXUXUXUXUXUXUXUXUXUXUXUXUXUXUXUXUXUXUXUXUXUXUXUXUXUXUXUX",
"UXUXUXUXUXUXUXUXUXUXUXUXUXUXUXUXUXUXUXUXUXUXUXUXUXUXUXUXUXUXUXUXUXUXUXUXUXUXUXUXUXUXUXUXUXUXUXUXUXUXUXUXUXUXUX",
"UXUXUXUXUXUXUXUXUXUXUXUXUXUXUXUXUXUXUXUXUXUXUXUXUXUXUXUXUXUXUXUXUXUXUXUXUXUXUXUXUXUXUXUXUXUXUXUXUXUXUXUXUXUXUX",
"UXUXUXUXUXUXUXUXUXUXUXUXUXUXUXUXUXUXUXUXUXUXUXUXUXUXUXUXUXUXUXUXUXUXUXUXUXUXUXUXUXUXUXUXUXUXUXUXUXUXUXUXUXUXUX",
"UXUXUXUXUXUXUXUXUXUXUXUXUXUXUXUXUXUXUXUXUXUXUXUXUXUXUXUXUXUXUXUXUXUXUXUXUXUXUXUXUXUXUXUXUXUXUXUXUXUXUXUXUXUXUX",
"UXUXUXUXUXUXUXUXUXUXUXUXUXUXUXUXUXUXUXUXUXUXUXUXUXUXUXUXUXUXUXUXUXUXUXUXUXUXUXUXUXUXUXUXUXUXUXUXUXUXUXUXUXUXUX",
"UXUXUXUXUXUXUXUXUXUXUXUXUXUXUXUXUXUXUXUXUXUXUXUXUXUXUXUXUXUXUXUXUXUXUXUXUXUXUXUXUXUXUXUXUXUXUXUXUXUXUXUXUXUXUX",
"UXUXUXUXUXUXUXUXUXUXUXUXUXUXUXUXUXUXUXUXUXUXUXUXUXUXUXUXUXUXUXUXUXUXUXUXUXUXUXUXUXUXUXUXUXUXUXUXUXUXUXUXUXUXUX",
"UXUXUXUXUXUXUXUXUXUXUXUXUXUXUXUXUXUXUXUXUXUXUXUXUXUXUXUXUXUXUXUXUXUXUXUXUXUXUXUXUXUXUXUXUXUXUXUXUXUXUXUXUXUXUX",
"UXUXUXUXUXUXUXUXUXUXUXUXUXUXUXUXUXUXUXUXUXUXUXUXUXUXUXUXUXUXUXUXUXUXUXUXUXUXUXUXUXUXUXUXUXUXUXUXUXUXUXUXUXUXUX",
"UXUXUXUXUXUXUXUXUXUXUXUXUXUXUXUXUXUXUXUXUXUXUXUXUXUXUXUXUXUXUXUXUXUXUXUXUXUXUXUXUXUXUXUXUXUXUXUXUXUXUXUXUXUXUX",
"UXUXUXUXUXUXUXUXUXUXUXUXUXUXUXUXUXUXUXUXUXUXUXUXUX# , W T E J T J = # UXUXUXUXUXUXUXUXUXUXUXUXUXUXUXUXUXUXUXUX",
"UXUXUXUXUXUXUXUXUXUXUXUXUXUXUXUXUXUXUXUXUXUXUX@ k +X>XlXmXcXlXvXjX>X}.e UXUXUXUXUXUXUXUXUXUXUXUXUXUXUXUXUXUXUX",
"UXUXUXUXUXUXUXUXUXUXUXUXUXUXUXUXUXUXUXUXUXUXg OXeX].qX<X#X#X<X2X*X[.gXxX{.e UXUXUXUXUXUXUXUXUXUXUXUXUXUXUXUXUX",
"UXUXUXUXUXUXUXUXUXUXUXUXUXUXUXUXUXUXUXUXUXg cX0X-X*X>X7X&X#XtX<X;X:X,X0X:X%Xj UXUXUXUXUXUXUXUXUXUXUXUXUXUXUXUX",
"UXUXUXUXUXUXUXUXUXUXUXUXUXUXUXUXUXUXUXUXUX{ mX(.%X;X8X3XP.| ).7X2X3X,X8X&XrX5X; UXUXUXUXUXUXUXUXUXUXUXUXUXUXUX",
"UXUXUXUXUXUXUXUXUXUXUXUXUXUXUXUXUXUXUXUXUX} MX,X-XyX`.C Q.oX] S ,XT.V P B ).ZX: UXUXUXUXUXUXUXUXUXUXUXUXUXUXUX",
"UXUXUXUXUXUXUXUXUXUXUXUXUXUXUXUXUXUXUXUXUXh jXcX9X'.~ KXPX( !.IXD XXPXd _ W.A UXUXUXUXUXUXUXUXUXUXUXUXUXUXUXUX",
"UXUXUXUXUXUXUXUXUXUXUXUXUXUXUXUXUXUXUXUXUXUXk {.BXO.~.HXp . . LX[ E.a . . Q.O UXUXUXUXUXUXUXUXUXUXUXUXUXUXUXUX",
"UXUXUXUXUXUXUXUXUXUXUXUXUXUXUXUXUXUXUXUXUXUXUXUXw 0 W.GX) i d HXV T y X s XXo UXUXUXUXUXUXUXUXUXUXUXUXUXUXUXUX",
"UXUXUXUXUXUXUXUXUXUXUXUXUXUXUXUXUXUXUXUXUXUXUXUXq x n ~ ' ^ ' ^ z J.zXY.Q S v j UXUXUXUXUXUXUXUXUXUXUXUXUXUXUX",
"UX1 4 : UXUXUXUXUXUXUXUXUXUXUXUXUXUXUXUXUXUXUX3 |.L B q q z z x N m xXgX0 l $.(.  UXUXUXUXUXUXUXUXUXUXUXUX2 2 ",
"9 iXVX$XZ UXUXUXUXUXUXUXUXUXUX# UXUXUXUXUXUXUXUXg l m K K M c c 9 N yXlX#.4 m +./.g o UXUXUXUXUXUXUXUXUXe bXc ",
"9 I.jXnXBX+.UXUXUXUXUXUXUX, ! NX@.6 UXUXUXUXUXUXUXUXO H.M O UXUXUXl cXzX .o } } T.VX.X; UXUXUXUXUXUXUXt tXcXl ",
"UXUX6 {.cXmX{ UXUXUXUX= ] VX-X`.dXDXk UXUXUXUXR.OX1 B ..G @.W , UXk MXfXO. .! UXUXZ GXD UXUXUXUXUXUXt pXNXeXw ",
"UXUXUX= |.cXMX[ o - Q VXpXb UXUX3 ] DXh UXUX^.sXC w [.V UXUXA %X6 l NXbX).9 UXUXUXUXZ DXb UXUXUXUXr tXZXaXb UX",
"UXUXUXUX-  XNXhXOX<XDX1X2 UXUXUXUXUXD SXv L.hX5 UXUXh.h.UXUXUXj (.P 8XCXC UXUXUXUXUXUXZ ZXV - UXj sXAXT.$ UXUX",
"UXUXUXUXUX; _.lXAX5XA - UXUXUXUXUXUXUXD gX%X2 UXUXUXx.D.z.UXUXUX2 = > 5 UXUXUXUXUXUXUXUXC SX|.| ;XAXL.UXUXUXUX",
"UXUXUXUXUXUXUXg S = UXUXUXUXUXUXUXUXUXUX@ @ UXUXUXUXc.Z.A.z.UXUXUXUXUXUXUXUXUXUXUXUXUXUXUXC BXAXbXL.UXUXUXUXUX",
"UXUXUXUXUXUXUXUXUXUXUXUXUXUXUXUXUXUXUXUXUXUXUXUXUXUXc.Z.B.S.k.UXUXUXUXUXUXUXUXUXUXUXUXUXUXUXn `.r UXUXUXUXUXUX",
"UXUXUXUXUXUXUXUXUXUXUXUXUXUXUXUXUXUXUXUXUXUXUXUXUXUXv.A.N.V.n.a.: < > > > > : > UXUXUXUXUXUXUXUXUXUXUXUXUXUXUX",
"UXUXUXUXUXUXUXUXUXUXUXUXUXUXUXUXUXUXUXUX> c e # # $ d.b.C.B.C.f...o.....X.U K o.T t UXUXUXUXUXUXUXUXUXUXUXUXUX",
"UXUXUXUXUXUXUXUXUXUXUXUXUXUXUXUXUXUX4 G L Y I @X].| E g.m.D.n.a.I T R R J _.}.o.L @X> UXUXUXUXUXUXUXUXUXUXUXUX",
"UXUXUXUXUXUXUXUXUXUXUXUXUXUXUXUXUX{ $.Y Y.-XP.v 6 UXUXUXd.k.s.UXUXUXUXUXUXg jXlX*X0 UXUXUXUXUXUXUXUXUXUXUXUXUX",
"UXUXUXUXUXUXUXUXUXUXUXUXUXUXUXUX# K #.ZX;X3 UXUXUXUXUXUXUXUXUXUXUXUXUXUXUX9 9XmXI.UXUXUX* t.UXUXUXUXUXUXUXUXUX",
"UXUXUXUXUXUXUXUXUXUXUXUXUXUXUX& UX< K #XmX`.; UXUXUXUXUXUXUXUXUXUXUXUXUXk uXmXU.O UXUXe.3.,.o UXUXUXUXUXUXUXUX",
"UXUXUXUXUXUXUXUXUXUXUXUXUXUX& ,.y.w.7 V #XCX X> UXUXUXUXUXUXUXUXUXUXUXj fXfXO.z z < w.5.4.6.o UXUXUXUXUXUXUXUX",
"UXUXUXUXUXUXUXUXUXUXUXUXUXUX% >.0.1.G 8 N +XBX+X; UXUXUXUXUXUXUXUXUXk jXgX+Xx N H X.=.8.7.<.O UXUXUXUXUXUXUXUX",
"UXUXUXUXUXUXUXUXUXUXUXUXUXUXt.;.7.;.4XJ 8 c -XNX$X- UXUXUXUXUXUXUXt ZXkX,X6XrXkXrX&.;.*.7.5.UXUXUXUXUXUXUXUXUX",
"UXUXUXUXUXUXUXUXUXUXUXUXUXUX& 0.2.=.:.cXkXeXhXzXP.UXUXUXUXUXUXUXUX4 { eXqX9XqXeX=X<.9.u.y.% UXUXUXUXUXUXUXUXUX",
"UXUXUXUXUXUXUXUXUXUXUXUXUXUXUXO # q.i.U K.I.K.6 UXUXUXUXUXUXUXUXUXUXUX= - = = - $ + + UXUXUXUXUXUXUXUXUXUXUXUX",
"UXUXUXUXUXUXUXUXUXUXUXUXUXUXUXUXUXUXUXUXUXUXUXUXUXUXUXUXUXUXUXUXUXUXUXUXUXUXUXUXUXUXUXUXUXUXUXUXUXUXUXUXUXUXUX",
"UXUXUXUXUXUXUXUXUXUXUXUXUXUXUXUXUXUXUXUXUXUXUXUXUXUXUXUXUXUXUXUXUXUXUXUXUXUXUXUXUXUXUXUXUXUXUXUXUXUXUXUXUXUXUX",
"UXUXUXUXUXUXUXUXUXUXUXUXUXUXUXUXUXUXUXUXUXUXUXUXUXUXUXUXUXUXUXUXUXUXUXUXUXUXUXUXUXUXUXUXUXUXUXUXUXUXUXUXUXUXUX",
"UXUXUXUXUXUXUXUXUXUXUXUXUXUXUXUXUXUXUXUXUXUXUXUXUXUXUXUXUXUXUXUXUXUXUXUXUXUXUXUXUXUXUXUXUXUXUXUXUXUXUXUXUXUXUX"
};
