/* XPM */
static char *_3234e8f59d44dafbda7aba5bce00455rk8r6oPUre5tGSpP_14[] = {
/* columns rows colors chars-per-pixel */
"55 55 256 2 ",
"   c #EE5DF0",
".  c #E055E2",
"X  c #BE48CB",
"o  c #9945B0",
"O  c #813898",
"+  c #5E3A7D",
"@  c #7F3638",
"#  c #6F0F13",
"$  c #451014",
"%  c #07161B",
"&  c #172426",
"*  c #1D302D",
"=  c #193334",
"-  c #273C3F",
";  c #263A3F",
":  c #2C4463",
">  c #3E305E",
",  c #334443",
"<  c #384B4C",
"1  c #435252",
"2  c #385151",
"3  c #445756",
"4  c #48605E",
"5  c #496663",
"6  c #4E6160",
"7  c #6A6765",
"8  c #A46866",
"9  c #897674",
"0  c #5F7573",
"q  c #576F6D",
"w  c #506D6C",
"e  c #435B75",
"r  c #39506F",
"t  c #435C81",
"y  c #355295",
"u  c #44629C",
"i  c #5071A3",
"p  c #577BAA",
"a  c #6187B5",
"s  c #6584AA",
"d  c #5E837F",
"f  c #637A7A",
"g  c #567B79",
"h  c #62807E",
"j  c #677F7D",
"k  c #6C8381",
"l  c #718987",
"z  c #698E8A",
"x  c #658A8B",
"c  c #72908C",
"v  c #7E9591",
"b  c #729793",
"n  c #819E9A",
"m  c #78A09D",
"M  c #81A4A4",
"N  c #80AAA5",
"B  c #7CB0A9",
"V  c #86ACA8",
"C  c #86A4A2",
"Z  c #8EA9A2",
"A  c #97A79C",
"S  c #B8938E",
"D  c #CAA59C",
"F  c #B2ABA5",
"G  c #97B1AE",
"H  c #93B3AF",
"J  c #93B0AC",
"K  c #90B5AC",
"L  c #8BB0AB",
"P  c #8AB4AE",
"I  c #84B5B0",
"U  c #89B8B1",
"Y  c #8FB8B2",
"T  c #92BAB6",
"R  c #96BAB5",
"E  c #96B7B3",
"W  c #9BB4B1",
"Q  c #A5B5AB",
"!  c #AAB5A8",
"~  c #B7B8B0",
"^  c #A6BAB2",
"/  c #A1BAB7",
"(  c #A3BEBA",
")  c #A0C1BD",
"_  c #A2C3BE",
"`  c #9DC4BD",
"'  c #99C4C0",
"]  c #9AC2BE",
"[  c #9AC0BB",
"{  c #98C0BB",
"}  c #94C0BB",
"|  c #91BFB9",
" . c #7CA4C8",
".. c #6788D9",
"X. c #6F92DB",
"o. c #7498D9",
"O. c #799EE4",
"+. c #7FA4F0",
"@. c #83A6F4",
"#. c #82A6EA",
"$. c #7FA5E3",
"%. c #83A6DF",
"&. c #8DB1E6",
"*. c #9CC2ED",
"=. c #A3C8E2",
"-. c #9FCCD0",
";. c #9DCEC6",
":. c #9FCBC4",
">. c #A1C9C3",
",. c #A0C7C2",
"<. c #A7C5C1",
"1. c #ACC4C0",
"2. c #B3C7C0",
"3. c #C2C9C2",
"4. c #CDC6BE",
"5. c #D3C4BB",
"6. c #BDCAC6",
"7. c #B5CCCA",
"8. c #AECCC8",
"9. c #ABCBC8",
"0. c #ACCEC9",
"q. c #ACD0CA",
"w. c #ABD1CC",
"e. c #A8D3CE",
"r. c #B0D3CD",
"t. c #B8D4CC",
"y. c #C0D4CC",
"u. c #BCD4CE",
"i. c #B3D6D2",
"p. c #ACDAD4",
"a. c #AADCD3",
"s. c #AFDDD5",
"d. c #B3DED7",
"f. c #B6DCD6",
"g. c #B8DAD6",
"h. c #BBDAD6",
"j. c #BDDAD7",
"k. c #BBDCD8",
"l. c #B8DED9",
"z. c #B6E0DA",
"x. c #B5E1DA",
"c. c #B2E3DC",
"v. c #AFE4DC",
"b. c #B4E4DD",
"n. c #B7E7DF",
"m. c #B8EAE0",
"M. c #BAE8E1",
"N. c #BDE7E2",
"B. c #C1E7E2",
"V. c #C3E7E2",
"C. c #C2E7E1",
"Z. c #C2E5DE",
"A. c #C2E4DD",
"S. c #C3E1DB",
"D. c #C5DFDB",
"F. c #C5DED9",
"G. c #C6DED6",
"H. c #CFE2DA",
"J. c #D6E5DD",
"K. c #DDE6DD",
"L. c #E5E6DD",
"P. c #E9E5DC",
"I. c #ECE5DC",
"U. c #EFE7DD",
"Y. c #F3E8DD",
"T. c #F1E9DE",
"R. c #DAEBE5",
"E. c #D1ECE8",
"W. c #D0ECE7",
"Q. c #CBECE6",
"!. c #CAECE6",
"~. c #C9ECE7",
"^. c #C7ECE7",
"/. c #C6ECE7",
"(. c #C6EAE5",
"). c #C6E9E4",
"_. c #C5EAE4",
"`. c #C5ECE5",
"'. c #C5ECE6",
"]. c #C4ECE7",
"[. c #C3ECE6",
"{. c #C1ECE6",
"}. c #C1EDE6",
"|. c #BDEFE8",
" X c #BBF1E9",
".X c #C0F1EA",
"XX c #C4F1E9",
"oX c #C6EFE9",
"OX c #C6EEE9",
"+X c #C7EFE9",
"@X c #C8EFE9",
"#X c #C9F0EA",
"$X c #CBF0EA",
"%X c #CCEFEA",
"&X c #CFEFEA",
"*X c #D2F0EA",
"=X c #D0F1EB",
"-X c #CDF2EB",
";X c #CCF3EB",
":X c #CBF3EC",
">X c #CBF4EC",
",X c #C9F4EE",
"<X c #C8F4EE",
"1X c #CAF5EF",
"2X c #CDF5F0",
"3X c #CEF5EF",
"4X c #D0F5EE",
"5X c #D1F5EE",
"6X c #D0F6F0",
"7X c #D0F7F1",
"8X c #CFF7F1",
"9X c #CEF7F1",
"0X c #CCF8F2",
"qX c #CEF8F2",
"wX c #D1F9F3",
"eX c #D2F9F3",
"rX c #D2FAF4",
"tX c #D4FBF5",
"yX c #D0FDF7",
"uX c #CCFDF8",
"iX c #D0FEF8",
"pX c #D4FEF9",
"aX c #D5FEF8",
"sX c #D6FDF7",
"dX c #D7FDF7",
"fX c #D7FEF8",
"gX c #D7FEFA",
"hX c #D7FEFB",
"jX c #D8FEFB",
"kX c #D9FEFB",
"lX c #DAFEFA",
"zX c #DBFEFC",
"xX c #DCFEFE",
"cX c #DDFEFA",
"vX c #DFFEFE",
"bX c #E0FEFB",
"nX c #E2FEFE",
"mX c #E4FEFE",
"MX c #E6FEFE",
"NX c #E5FEFD",
"BX c #E3FCF9",
"VX c #E7F9F4",
"CX c #EAF7EF",
"ZX c #EAFBF8",
"AX c #EAFEFE",
"SX c #ECFEFE",
"DX c #EEFEFE",
"FX c #F0FEFE",
"GX c #F4FEFE",
"HX c #F5FEF7",
"JX c #FBFEFB",
"KX c #FEFEFB",
"LX c #182527",
"PX c #384B49",
"IX c #85A5A2",
"UX c None",
/* pixels */
"UXUXUXUXUXUXUXUXUXUXUXUXUXUXUXUXUXUXUXUXUXUXUXUXUXUXUXUXUXUXUXUXUXUXUXUXUXUXUXUXUXUXUXUXUXUXUXUXUXUXUXUXUXUXUX",
"UXUXUXUXUXUXUXUXUXUXUXUXUXUXUXUXUXUXUXUXUXUXUXUXUXUXUXUXUXUXUXUXUXUXUXUXUXUXUXUXUXUXUXUXUXUXUXUXUXUXUXUXUXUXUX",
"UXUXUXUXUXUXUXUXUXUXUXUXUXUXUXUXUXUXUXUXUXUXUXUXUXUXUXUXUXUXUXUXUXUXUXUXUXUXUXUXUXUXUXUXUXUXUXUXUXUXUXUXUXUXUX",
"UXUXUXUXUXUXUXUXUXUXUXUXUXUXUXUXUXUXUXUXUXUXUXUXUXUXUXUXUXUXUXUXUXUXUXUXUXUXUXUXUXUXUXUXUXUXUXUXUXUXUXUXUXUXUX",
"UXUXUXUXUXUXUXUXUXUXUXUXUXUXUXUXUXUXUXUXUXUXUXUXUXUXUXUXUXUXUXUXUXUXUXUXUXUXUXUXUXUXUXUXUXUXUXUXUXUXUXUXUXUXUX",
"UXUXUXUXUXUXUXUXUXUXUXUXUXUXUXUXUXUXUXUXUXUXUXUXUXUXUXUXUXUXUXUXUXUXUXUXUXUXUXUXUXUXUXUXUXUXUXUXUXUXUXUXUXUXUX",
"UXUXUXUXUXUXUXUXUXUXUXUXUXUXUXUXUXUXUXUXUXUXUXUXUXUXUXUXUXUXUXUXUXUXUXUXUXUXUXUXUXUXUXUXUXUXUXUXUXUXUXUXUXUXUX",
"UXUXUXUXUXUXUXUXUXUXUXUXUXUXUXUXUXUXUXUXUXUXUXUXUXUXUXUXUXUXUXUXUXUXUXUXUXUXUXUXUXUXUXUXUXUXUXUXUXUXUXUXUXUXUX",
"UXUXUXUXUXUXUXUXUXUXUXUXUXUXUXUXUXUXUXUXUXUXUXUXUXUXUXUXUXUXUXUXUXUXUXUXUXUXUXUXUXUXUXUXUXUXUXUXUXUXUXUXUXUXUX",
"UXUXUXUXUXUXUXUXUXUXUXUXUXUXUXUXUXUXUXUXUXUXUXUXUXUXUXUXUXUXUXUXUXUXUXUXUXUXUXUXUXUXUXUXUXUXUXUXUXUXUXUXUXUXUX",
"UXUXUXUXUXUXUXUXUXUXUXUXUXUXUXUXUXUXUXUXUXUXUXUXUXUXUXUXUXUXUXUXUXUXUXUXUXUXUXUXUXUXUXUXUXUXUXUXUXUXUXUXUXUXUX",
"UXUXUXUXUXUXUXUXUXUXUXUXUXUXUXUXUXUXUXUXUXUXUXUXUXUXUXUXUXUXUXUXUXUXUXUXUXUXUXUXUXUXUXUXUXUXUXUXUXUXUXUXUXUXUX",
"UXUXUXUXUXUXUXUXUXUXUXUXUXUXUXUXUXUXUXUXUXUXUXUXUXUXUXUXUXUXUXUXUXUXUXUXUXUXUXUXUXUXUXUXUXUXUXUXUXUXUXUXUXUXUX",
"UXUXUXUXUXUXUXUXUXUXUXUXUXUXUXUXUXUXUXUXUXUXUXUXUXUXUXUXUXUXUXUXUXUXUXUXUXUXUXUXUXUXUXUXUXUXUXUXUXUXUXUXUXUXUX",
"UXUXUXUXUXUXUXUXUXUXUXUXUXUXUXUXUXUXUXUXUXUXUXUXUXUXUXUXUXUXUXUXUXUXUXUXUXUXUXUXUXUXUXUXUXUXUXUXUXUXUXUXUXUXUX",
"UXUXUXUXUXUXUXUXUXUXUXUXUXUXUXUXUXUXUXUXUXUXUXUXUXUXUXUXUXUXUXUXUXUXUXUXUXUXUXUXUXUXUXUXUXUXUXUXUXUXUXUXUXUXUX",
"UXUXUXUXUXUXUXUXUXUXUXUXUXUXUXUXUXUXUXUXUXUXUXUXUXUXUXUXUXUXUXUXUXUXUXUXUXUXUXUXUXUXUXUXUXUXUXUXUXUXUXUXUXUXUX",
"UXUXUXUXUXUXUXUXUXUXUXUXUXUXUXUXUXUXUXUXUXUXUXUXUXUXUXUXUXUXUXUXUXUXUXUXUXUXUXUXUXUXUXUXUXUXUXUXUXUXUXUXUXUXUX",
"UXUXUXUXUXUXUXUXUXUXUXUXUXUXUXUXUXUXUXUXUXUXUXUXUXUXUXUXUXUXUXUXUXUXUXUXUXUXUXUXUXUXUXUXUXUXUXUXUXUXUXUXUXUXUX",
"UXUXUXUXUXUXUXUXUXUXUXUXUXUXUXUXUXUXUXUXUXUXUXUXUXUXUXUXUXUXUXUXUXUXUXUXUXUXUXUXUXUXUXUXUXUXUXUXUXUXUXUXUXUXUX",
"UXUXUXUXUXUXUXUXUXUXUXUXUXUXUXUXUXUXUXUXUXUXUXUXUXUXUXUXUXUXUXUXUXUXUXUXUXUXUXUXUXUXUXUXUXUXUXUXUXUXUXUXUXUXUX",
"UXUXUXUXUXUXUXUXUXUXUXUXUXUXUXUXUXUXUXUXUXUXUXUXUXLXPXIXC m M L w & UXUXUXUXUXUXUXUXUXUXUXUXUXUXUXUXUXUXUXUXUX",
"UXUXUXUXUXUXUXUXUXUXUXUXUXUXUXUXUXUXUXUXUXUXUXUX0 l.#XfXfXlXgXhX1XOXb < UXUXUXUXUXUXUXUXUXUXUXUXUXUXUXUXUXUXUX",
"UXUXUXUXUXUXUXUXUXUXUXUXUXUXUXUXUXUXUXUXUXUXf g.xXx.l.$XQ.d.}.@XrXv.:XOXn , UXUXUXUXUXUXUXUXUXUXUXUXUXUXUXUXUX",
"UXUXUXUXUXUXUXUXUXUXUXUXUXUXUXUXUXUXUXUXUXf fXqX@X/.'.#X7Xa.XX'.x.M.-X,Xx.1Xq UXUXUXUXUXUXUXUXUXUXUXUXUXUXUXUX",
"UXUXUXUXUXUXUXUXUXUXUXUXUXUXUXUXUXUXUXUXUXE vX>.).Q.:X@XT V w.m.B ;.3XoXN.jX9X< UXUXUXUXUXUXUXUXUXUXUXUXUXUXUX",
"UXUXUXUXUXUXUXUXUXUXUXUXUXUXUXUXUXUXUXUXUXv nX,X_.5X0.c 1.G.Q m ,X) b Z n 9.mX2 UXUXUXUXUXUXUXUXUXUXUXUXUXUXUX",
"UXUXUXUXUXUXUXUXUXUXUXUXUXUXUXUXUXUXUXUXUXUXJ vXaXw.Z CXI.S 5.J.n y.L.9 D 2.b UXUXUXUXUXUXUXUXUXUXUXUXUXUXUXUX",
"UXUXUXUXUXUXUXUXUXUXUXUXUXUXUXUXUXUXUXUXUXUXUXm }.P y.KX@ # # T.Z ^ 8 # # ~ = UXUXUXUXUXUXUXUXUXUXUXUXUXUXUXUX",
"UXUXUXUXUXUXUXUXUXUXUXUXUXUXUXUXUXUXUXUXUXUXUXUX, 5 d HXD @ 8 KXv V 7 # 8 3.% UXUXUXUXUXUXUXUXUXUXUXUXUXUXUXUX",
"UXUXUXUXUXUXUXUXUXUXUXUXUXUXUXUXUXUXUXUXUXUXUXUX2 d g v ! A ! A d :.pX[ Z C z w UXUXUXUXUXUXUXUXUXUXUXUXUXUXUX",
"UXUXUXUXUXUXUX, c k.q.1 UXUXUXUXUXUXUXUXUXUXUXUXC ' m d w d g d z z aXiX5 h >.:.UXUXUXUXUXUXUXUXUXUXUXUXUXUXUX",
"UXUXUXUXUXUX3 Q.FXMXFXA.< UXUXUXUXUXUXUXUX- UXUXq h x m I x h h w c 7XdX[ 5 g q UXUXUXUXUXUXf H n UXUXUXUXUXUX",
"UXUXUXUXUX1 E.cXC n V nX(.1 UXUXUXUXUXUXl nXq.w UXUX=  Xx UXUXUXUXg kXzXY UXUXUXUXUXUXUXUXj MXSXFXW UXUXUXUXUX",
"UXUXUXUX1 *XSXj UXUXUXl SX^.2 UXUXUXUXl vXi.i.uXz UXR } UXUXUXUX, z dXlXP UXUXUXUXUXUXUXj SX7.6 w mX( UXUXUXUX",
"UXUXUX3 5XSXf UXUXUXUXUXk AXV.k % < J MXc UXUXh p.g e.C % = - b ' m jXjX>.q UXUXUXUXUXk KXv UXUXUX6 NX( UXUXUX",
"UXUX1 *XDX0 UXUXUXUXUXUXUXk AXMXZ.4XFXk UXUXUXUX- ; + o + z b z * 6 tXvXl r./ UXUX, v GXv UXUXUXUXUX6 nXR UXUX",
"UX5 W.MXf UXUXUXUXUXUXUXUXUXk B.@X_ 3 UXUXUXUXUXUXUXX   o ; UXUXUXUX3 6 UX0 BX0.J D.GXc UXUXUXUXUXUXUX6 FXn UX",
"UX1.GXf UXUXUXUXUXUXUXUXUXUXUX* * UXUXUXUXUXUXUXUXUXX     O UXUXUXUXUXUXUXUXq bXFXnXl UXUXUXUXUXUXUXUXUX<.;X4 ",
"q DXj.UXUXUXUXUXUXUXUXUXUXUXUXUXUXUXUXUXUXUXUXUXUXUXX   .   O UXUXUXUXUXUXUXUXq W 1 UXUXUXUXUXUXUXUXUXUX6 mXk ",
"j D.< UXUXUXUXUXUXUXUXUXUXUXUXUXUXUXUXUXUXUXUXUXUXUXo . . . X > < 2 2 2 2 2 2 - % UXUXUXUXUXUXUXUXUXUXUXUX9.h ",
"UXUXUXUXUXUXUXUXUXUXUXUXUXUXUXUXUXUXUXUX3 k h w = - > + . . . + P U U U U I m } V 6 UXUXUXUXUXUXUXUXUXUXUXUXUX",
"UXUXUXUXUXUXUXUXUXUXUXUXUXUXUXUXUXUXq R L T N ' #XT K + X   X > N N M M M V d.| N c.2 UXUXUXUXUXUXUXUXUXUXUXUX",
"UXUXUXUXUXUXUXUXUXUXUXUXUXUXUXUXUXH ;.N R g.) 0 j UXUX; + O + UXUXUXUXUXUXUXx 0Xb.B 3 UXUXUXUXUXUXUXUXUXUXUXUX",
"UXUXUXUXUXUXUXUXUXUXUXUXUXUXUXUX- I Y dX%X6 UXUXUXUXUXUXUXUXUXUXUXUXUXUXUXUXn xX,.b 3 UXUXUXUXUXUXUXUXUXUXUXUX",
"UXUXUXUXUXUXUXUXUXUXUXUXUXUXUX: UX4 m #X7X0 UXUXUXUXUXUXUXUXUXUXUXUXUXUXUXG DX,.d - UX3 UXs e UXUXUXUXUXUXUXUX",
"UXUXUXUXUXUXUXUXUXUXUXUXUXUX: +.e 3 h z ].mXj UXUXUXUXUXUXUXUXUXUXUXUXUXG NXE z m 4 x a i X.: UXUXUXUXUXUXUXUX",
"UXUXUXUXUXUXUXUXUXUXUXUXUXUX: o.p s l 0 d B.lXl , UXUXUXUXUXUXUXUXUXUXJ mXV.d z b :.*.i i +.t UXUXUXUXUXUXUXUX",
"UXUXUXUXUXUXUXUXUXUXUXUXUXUXe $.y o.r.w 5 d $XNXk., UXUXUXUXUXUXUXUXE DXjXgXxXvXMX=...%.t u r UXUXUXUXUXUXUXUX",
"UXUXUXUXUXUXUXUXUXUXUXUXUXUX2 u a @.%.qXfXeXsXzX7X, UXUXUXUXUXUXUXUXk b z z c c c r r r % UXUXUXUXUXUXUXUXUXUX",
"UXUXUXUXUXUXUXUXUXUXUXUXUXUXUX= - i y M ` [ ` C - UXUXUXUXUXUXUXUXUXUXUXUXUXUXUXUXUXUXUXUXUXUXUXUXUXUXUXUXUXUX",
"UXUXUXUXUXUXUXUXUXUXUXUXUXUXUXUXUXUXUXUXUXUXUXUXUXUXUXUXUXUXUXUXUXUXUXUXUXUXUXUXUXUXUXUXUXUXUXUXUXUXUXUXUXUXUX",
"UXUXUXUXUXUXUXUXUXUXUXUXUXUXUXUXUXUXUXUXUXUXUXUXUXUXUXUXUXUXUXUXUXUXUXUXUXUXUXUXUXUXUXUXUXUXUXUXUXUXUXUXUXUXUX",
"UXUXUXUXUXUXUXUXUXUXUXUXUXUXUXUXUXUXUXUXUXUXUXUXUXUXUXUXUXUXUXUXUXUXUXUXUXUXUXUXUXUXUXUXUXUXUXUXUXUXUXUXUXUXUX",
"UXUXUXUXUXUXUXUXUXUXUXUXUXUXUXUXUXUXUXUXUXUXUXUXUXUXUXUXUXUXUXUXUXUXUXUXUXUXUXUXUXUXUXUXUXUXUXUXUXUXUXUXUXUXUX"
};
