/* XPM */
static char *_3234e8f59d44dafbda7aba5bce00455rk8r6oPUre5tGSpP_6[] = {
/* columns rows colors chars-per-pixel */
"55 55 256 2 ",
"   c #5B0006",
".  c #070707",
"X  c #102125",
"o  c #1B282A",
"O  c #203132",
"+  c #253C3D",
"@  c #2F4141",
"#  c #2D4645",
"$  c #2D4B49",
"%  c #324757",
"&  c #2C4660",
"*  c #394D64",
"=  c #304B89",
"-  c #3B4074",
";  c #433062",
":  c #3E3F53",
">  c #3C4649",
",  c #384E4D",
"<  c #365250",
"1  c #3D5250",
"2  c #425151",
"3  c #435654",
"4  c #365757",
"5  c #445758",
"6  c #4D5B5A",
"7  c #4B5F5E",
"8  c #426563",
"9  c #415C74",
"0  c #436C6A",
"q  c #496A68",
"w  c #536B69",
"e  c #526564",
"r  c #576B6A",
"t  c #5C6D6D",
"y  c #5F7170",
"u  c #517471",
"i  c #557572",
"p  c #597572",
"a  c #607473",
"s  c #607976",
"d  c #597C77",
"f  c #567E7C",
"g  c #5E807D",
"h  c #667D7D",
"j  c #6D7F7F",
"k  c #7B7774",
"l  c #9C6862",
"z  c #AD766E",
"x  c #B28277",
"c  c #BB8E85",
"v  c #AFA097",
"b  c #A2A99F",
"n  c #8EA8A4",
"m  c #8FAEAB",
"M  c #8CB3AF",
"N  c #87B6B1",
"B  c #85B1AC",
"V  c #7CAEA8",
"C  c #77ACA3",
"Z  c #7FA6A5",
"A  c #85AAA3",
"S  c #85A3A0",
"D  c #7D9F9E",
"F  c #77A29E",
"G  c #769F98",
"H  c #759B99",
"J  c #7F9590",
"K  c #7A9290",
"L  c #7B759A",
"P  c #76868F",
"I  c #748D8A",
"U  c #71918D",
"Y  c #699290",
"T  c #688F8C",
"R  c #678A87",
"E  c #6E8785",
"W  c #638683",
"Q  c #5E8581",
"!  c #597B8E",
"~  c #4B6A90",
"^  c #446695",
"/  c #4467A3",
"(  c #4C71A9",
")  c #5279AD",
"_  c #597AB4",
"`  c #5D80BA",
"'  c #618BB4",
"]  c #6388CA",
"[  c #6F93CD",
"{  c #7198D7",
"}  c #7AA0DB",
"|  c #80A3E4",
" . c #83A8EE",
".. c #86ABDC",
"X. c #8AB8C4",
"o. c #8AC1B7",
"O. c #92BBB7",
"+. c #93B7B3",
"@. c #97B5B3",
"#. c #9CB5B2",
"$. c #9DB8B6",
"%. c #A1BCB8",
"&. c #AFC0B7",
"*. c #B8C3B6",
"=. c #A8BFB7",
"-. c #9FBEBD",
";. c #98C2BF",
":. c #9CC6C1",
">. c #A1C6C3",
",. c #A8C5C3",
"<. c #A5C7C5",
"1. c #A5CDC8",
"2. c #A3CBCC",
"3. c #9FC5DA",
"4. c #9BC3EE",
"5. c #9ECBE0",
"6. c #A1D6CD",
"7. c #A9D3CD",
"8. c #ABD6D1",
"9. c #ACD8D3",
"0. c #B0D6D3",
"q. c #B4D3D2",
"w. c #B7D1CF",
"e. c #BECFC4",
"r. c #BED6D1",
"t. c #B5DBD5",
"y. c #B7DDD9",
"u. c #B4DFDA",
"i. c #B2E2DC",
"p. c #B6E4DE",
"a. c #B7E5DF",
"s. c #B9E5E0",
"d. c #BBE6E0",
"f. c #BDE4E0",
"g. c #BDE3E0",
"h. c #BCE2DF",
"j. c #BBE1DD",
"k. c #BDE0DD",
"l. c #BFE1DE",
"z. c #C1E1DE",
"x. c #C4E1E0",
"c. c #C5E5E0",
"v. c #C0E8E2",
"b. c #BEE7E2",
"n. c #BDE7E2",
"m. c #BAEAE3",
"M. c #BCEBE7",
"N. c #BFEBE5",
"B. c #C1EBE5",
"V. c #C4EBE6",
"C. c #C7EAE7",
"Z. c #C6EDE8",
"A. c #C5EFEA",
"S. c #C7EFEB",
"D. c #C9EFEB",
"F. c #CAEFEA",
"G. c #CAF0ED",
"H. c #CDF0EC",
"J. c #D0F0EC",
"K. c #CEF2EE",
"L. c #CCF4EE",
"P. c #CAF4EF",
"I. c #C9F3EF",
"U. c #C7F2EF",
"Y. c #C4F7F0",
"T. c #C8F6F1",
"R. c #CBF8F1",
"E. c #CCF7F1",
"W. c #CEF6F0",
"Q. c #CFF4F0",
"!. c #D0F5F3",
"~. c #D2F5F3",
"^. c #D4F4F2",
"/. c #D7F4F0",
"(. c #DBF6F2",
"). c #DEF7F4",
"_. c #D8F8F6",
"`. c #D5FAF8",
"'. c #D3FAF7",
"]. c #D3FBF9",
"[. c #D2FAF7",
"{. c #D1F9F7",
"}. c #CFFAF6",
"|. c #CDFBF5",
" X c #CFFBF5",
".X c #D1FCF5",
"XX c #D2FDF6",
"oX c #D2FEF8",
"OX c #D0FEF9",
"+X c #D3FDFA",
"@X c #D4FEF9",
"#X c #D6FEFC",
"$X c #D6FDFB",
"%X c #D7FEF9",
"&X c #DAFEF9",
"*X c #D9FEFB",
"=X c #D9FEFE",
"-X c #DCFEFE",
";X c #DDFEFE",
":X c #DDFEFC",
">X c #DEFBF9",
",X c #E0FDFC",
"<X c #E2FEFE",
"1X c #E3FEFE",
"2X c #E5FEFE",
"3X c #E7FEFE",
"4X c #E9FEFE",
"5X c #EBFEFE",
"6X c #EEFEFE",
"7X c #F1FEFE",
"8X c #F8FEFE",
"9X c #FEFEF6",
"0X c #FEFEF0",
"qX c #FEFEEB",
"wX c #F3F8E5",
"eX c #D8E9D7",
"rX c #D6E8D4",
"tX c #DFE8D4",
"yX c #F3E6D4",
"uX c #E4E1D0",
"iX c #DBDFCE",
"pX c #E1DECC",
"aX c #EDDCCA",
"sX c #EDC5D2",
"dX c #F560F6",
"fX c #F15FF4",
"gX c #ED5FF2",
"hX c #EB5DEF",
"jX c #EE5BEE",
"kX c #EA59EA",
"lX c #E658E7",
"zX c #E457E5",
"xX c #E156E3",
"cX c #DE56E1",
"vX c #DA57DE",
"bX c #D955DD",
"nX c #D14EDA",
"mX c #CD4CD8",
"MX c #C950D6",
"NX c #C84BD3",
"BX c #C24ACD",
"VX c #BE4ACA",
"CX c #BB48C7",
"ZX c #B140BF",
"AX c #A73AB7",
"SX c #A244B6",
"DX c #9C42AE",
"FX c #893A9D",
"GX c #813797",
"HX c #802A96",
"JX c #723089",
"KX c #6A3481",
"LX c #5C3177",
"PX c #5F417B",
"IX c #625581",
"UX c None",
/* pixels */
"UXUXUXUXUXUXUXUXUXUXUXUXUXUXUXUXUXUXUXUXUXUXUXUXUXUXUXUXUXUXUXUXUXUXUXUXUXUXUXUXUXUXUXUXUXUXUXUXUXUXUXUXUXUXUX",
"UXUXUXUXUXUXUXUXUXUXUXUXUXUXUXUXUXUXUXUXUXUXUXUXUXUXUXUXUXUXUXUXUXUXUXUXUXUXUXUXUXUXUXUXUXUXUXUXUXUXUXUXUXUXUX",
"UXUXUXUXUXUXUXUXUXUXUXUXUXUXUXUXUXUXUXUXUXUXUXUXUXUXUXUXUXUXUXUXUXUXUXUXUXUXUXUXUXUXUXUXUXUXUXUXUXUXUXUXUXUXUX",
"UXUXUXUXUXUXUXUXUXUXUXUXUXUXUXUXUXUXUXUXUXUXUXUXUXUXUXUXUXUXUXUXUXUXUXUXUXUXUXUXUXUXUXUXUXUXUXUXUXUXUXUXUXUXUX",
"UXUXUXUXUXUXUXUXUXUXUXUXUXUXUXUXUXUXUXUXUXUXUXUXUXUXUXUXUXUXUXUXUXUXUXUXUXUXUXUXUXUXUXUXUXUXUXUXUXUXUXUXUXUXUX",
"UXUXUXUXUXUXUXUXUXUXUXUXUXUXUXUXUXUXUXUXUXUXUXUXUXUXUXUXUXUXUXUXUXUXUXUXUXUXUXUXUXUXUXUXUXUXUXUXUXUXUXUXUXUXUX",
"UXUXUXUXUXUXUXUXUXUXUXUXUXUXUXUXUXUXUXUXUXUXUXUXUXUXUXUXUXUXUXUXUXUXUXUXUXUXUXUXUXUXUXUXUXUXUXUXUXUXUXUXUXUXUX",
"UXUXUXUXUXUXUXUXUXUXUXUXUXUXUXUXUXUXUXUXUXUXUXUXUXUXUXUXUXUXUXUXUXUXUXUXUXUXUXUXUXUXUXUXUXUXUXUXUXUXUXUXUXUXUX",
"UXUXUXUXUXUXUXUXUXUXUXUXUXUXUXUXUXUXUXUXUXUXUXUXUXUXUXUXUXUXUXUXUXUXUXUXUXUXUXUXUXUXUXUXUXUXUXUXUXUXUXUXUXUXUX",
"UXUXUXUXUXUXUXUXUXUXUXUXUXUXUXUXUXUXUXUXUXUXUXUXUXUXUXUXUXUXUXUXUXUXUXUXUXUXUXUXUXUXUXUXUXUXUXUXUXUXUXUXUXUXUX",
"UXUXUXUXUXUXUXUXUXUXUXUXUXUXUXUXUXUXUXUXUXUXUXUXUXUXUXUXUXUXUXUXUXUXUXUXUXUXUXUXUXUXUXUXUXUXUXUXUXUXUXUXUXUXUX",
"UXUXUXUXUXUXUXUXUXUXUXUXUXUXUXUXUXUXUXUXUXUXUXUXUXUXUXUXUXUXUXUXUXUXUXUXUXUXUXUXUXUXUXUXUXUXUXUXUXUXUXUXUXUXUX",
"UXUXUXUXUXUXUXUXUXUXUXUXUXUXUXUXUXUXUXUXUXUXUXUXUXUXUXUXUXUXUXUXUXUXUXUXUXUXUXUXUXUXUXUXUXUXUXUXUXUXUXUXUXUXUX",
"UXUXUXUXUXUXUXUXUXUXUXUXUXUXUXUXUXUXUXUXUXUXUXUXUXUXUXUXUXUXUXUXUXUXUXUXUXUXUXUXUXUXUXUXUXUXUXUXUXUXUXUXUXUXUX",
"UXUXUXUXUXUXUXUXUXUXUXUXUXUXUXUXUXUXUXUXUXUXUXUXUXUXUXUXUXUXUXUXUXUXUXUXUXUXUXUXUXUXUXUXUXUXUXUXUXUXUXUXUXUXUX",
"UXUXUXUXUXUXUXUXUXUXUXUXUXUXUXUXUXUXUXUXUXUXUXUXUXUXUXUXUXUXUXUXUXUXUXUXUXUXUXUXUXUXUXUXUXUXUXUXUXUXUXUXUXUXUX",
"UXUXUXUXUXUXUXUXUXUXUXUXUXUXUXUXUXUXUXUXUXUXUXUXUXUXUXUXUXUXUXUXUXUXUXUXUXUXUXUXUXUXUXUXUXUXUXUXUXUXUXUXUXUXUX",
"UXUXUXUXUXUXUXUXUXUXUXUXUXUXUXUXUXUXUXUXUXUXUXUXUXUXUXUXUXUXUXUXUXUXUXUXUXUXUXUXUXUXUXUXUXUXUXUXUXUXUXUXUXUXUX",
"UXUXUXUXUXUXUXUXUXUXUXUXUXUXUXUXUXUXUXUXUXUXUXUXUXUXUXUXUXUXUXUXUXUXUXUXUXUXUXUXUXUXUXUXUXUXUXUXUXUXUXUXUXUXUX",
"UXUXUXUXUXUXUXUXUXUXUXUXUXUXUXUXUXUXUXUXUXUXUXUXUXUXUXUXUXUXUXUXUXUXUXUXUXUXUXUXUXUXUXUXUXUXUXUXUXUXUXUXUXUXUX",
"UXUXUXUXUXUXUXUXUXUXUXUXUXUXUXUXUXUXUXUXUXUXUXUXUXUXUXUXUXUXUXUXUXUXUXUXUXUXUXUXUXUXUXUXUXUXUXUXUXUXUXUXUXUXUX",
"UXUXUXUXUXUXUXUXUXUXUXUXUXUXUXUXUXUXUXUXUXUXUXUXUXUXUXUXUXUXUXUXUXUXUXUXUXUXUXUXUXUXUXUXUXUXUXUXUXUXUXUXUXUXUX",
"UXUXUXUXUXUXUXUXUXUXUXUXUXUXUXUXUXUXUXUXUXUXUXUXUXUXe s s p p p p a p UXUXUXUXUXUXUXUXUXUXUXUXUXUXUXUXUXUXUXUX",
"UXUXUXUXUXUXUXUXUXUXUXUXUXUXUXUXUXUXUXUXUXUXUXUX2 @.E.<X*X*X%X%X&X-X X1.D @ UXUXUXUXUXUXUXUXUXUXUXUXUXUXUXUXUX",
"UXUXUXUXUXUXUXUXUXUXUXUXUXUXUXUXUXUXUXUXUXUXUXJ -X+Xd.7.L.H.L.F.J.G.6.'.*X}.t UXUXUXUXUXUXUXUXUXUXUXUXUXUXUXUX",
"UXUXUXUXUXUXUXUXUXUXUXUXUXUXUXUXUXUXUXUXUXUXK ;Xu.g.Z.d.H.v.9.D.H.D.a.Z.S.a.Q.s UXUXUXUXUXUXUXUXUXUXUXUXUXUXUX",
"UXUXUXUXUXUXUXUXUXUXUXUXUXUXUXUXUXUXUXUXUX@ !.'.0.f.D.L.R.S.n.m.V C o.W.Q.y.=X-.UXUXUXUXUXUXUXUXUXUXUXUXUXUXUX",
"UXUXUXUXUXUXUXUXUXUXUXUXUXUXUXUXUXUXUXUXUX@ G.@XI.A.H.h.B B B N p.I.f.l.b.M.*X$.UXUXUXUXUXUXUXUXUXUXUXUXUXUXUX",
"UXUXUXUXUXUXUXUXUXUXUXUXUXUXUXUXUXUXUXUXUXUXs @X#XoX,.J *.v v *.J <.n K A A S y UXUXUXUXUXUXUXUXUXUXUXUXUXUXUX",
"UXUXUXUXUXUXUXUXUXUXUXUXUXUXUXUXUXUXUXUXUXUXUX3 m b.E qXz     c 0X$ *.9Xl z iXUXUXUXUXUXUXUXUXUXUXUXUXUXUXUXUX",
"UXUXUXUXUXUXUXUXUXUXUXUXUXUXUXUXUXUXUXUXUXUXUXUXX 4 8 iXaXx x yXe.u m b l c eX# UXUXUXUXUXUXUXUXUXUXUXUXUXUXUX",
"7 5 UXUXUXUXUXUXUXUXUXUXUXUXUXUXUXUXUXUXUXUXUXUXh D Y i *.rXrX=.q Q B.1.G i d M 7 UXUXUXUXUXUXUXUXUXUXUXUXUXUX",
"W <Xt UXUXUXUXUXUXUXUXUXo h #.K + UXUXUXUXUXUXUXI <.V H H D F F M W :.<X+.f Z >.E > 2 UXUXUXUXUXUXUXUXUXUXr r ",
"d ;X_.y UXUXUXUXUXUXUXr r.1X<X1X~.s UXUXUXUXUXa A 5 4 N F 0 0 0 $ + <.]..Xd + D q.D $.%.7 UXUXUXUXUXUXUXUXt.R ",
"# 0.<X^.y UXUXUXUXUXS 8XJ.U 1 m >X4Xy UXUXUXj 2Xv.U F Y.Y S n $.K UX-.$XoXq I ,.7 UXUX=.5Xr UXUXUXUXUXUXE ;Xg ",
"UXh -X;X!.w UXUXUXn 3XK @ UXUXUX6 ).6Xt . E 7XJ UXq M.D UXUXUX5 w.h ,.[.E.G m UXUXUXUXUX#.2Xr UXUXUXUXj 6Xz.7 ",
"UXUXh #X#X X%.7 n 4Xa UXUXUXUXUXUX6 /.1Xc.<XI UXUXUXL L UXUXUXUX5 i 7.-X;Xd UXUXUXUXUXUXUX@.;Xp UXUXE 4XC.2 UX",
"UXUXUXj :X=X>X7X2Xs UXUXUXUXUXUXUXUXe c.W.I UXUXUXUXHXmXSXUXUXUXUXUXs N.@.UXUXUXUXUXUXUXUXUXm oX+.O.1XB.3 UXUX",
"UXUXUXUXr ,.4X$.e UXUXUXUXUXUXUXUXUXUXO O UXUXUXUXUXVXjXhXDXUXUXUXUXUXO UXUXUXUXUXUXUXUXUXUXUXm 4X;XS 3 UXUXUX",
"UXUXUXUXUXUX2 UXUXUXUXUXUXUXUXUXUXUXUXUXUXUXUXUXUXUXCXlXvXgXGXUXUXUXUXUXUXUXUXUXUXUXUXUXUXUXUXUX, , UXUXUXUXUX",
"UXUXUXUXUXUXUXUXUXUXUXUXUXUXUXUXUXUXUXUXUXUXUXUXUXUXAXjXbXxXMX; , < < < < < < , UXUXUXUXUXUXUXUXUXUXUXUXUXUXUX",
"UXUXUXUXUXUXUXUXUXUXUXUXUXUXUXUXUXUXUXUX5 R g W 4 O ; VXlXcXxXKXN N N N N V F ;.M w UXUXUXUXUXUXUXUXUXUXUXUXUX",
"UXUXUXUXUXUXUXUXUXUXUXUXUXUXUXUXUXUXw O.B O.Z B 9.y.A IXmXdXNX; Z Z Z Z D 1.9.O.C i.5 UXUXUXUXUXUXUXUXUXUXUXUX",
"UXUXUXUXUXUXUXUXUXUXUXUXUXUXUXUXUX+.|.M +.0.D.K h s UXUXKXGXLXUXUXUXUXUXUXs OXOXu.V 7 UXUXUXUXUXUXUXUXUXUXUXUX",
"UXUXUXUXUXUXUXUXUXUXUXUXUXUXUXUXO s.G f.*Xe X UXUXUXUXUXUXUXUXUXUXUXUXUXUXw T.+X>.R 2 UXUXUXUXUXUXUXUXUXUXUXUX",
"UXUXUXUXUXUXUXUXUXUXUXUXUXUXUX* UX8 B M I.-.> UXUXUXUXUXUXUXUXUXUXUXUXUXa ~.=X:.Q # UX% 9 _ UXUXUXUXUXUXUXUXUX",
"UXUXUXUXUXUXUXUXUXUXUXUXUXUX& { 9 ~ f Z A 1Xk., UXUXUXUXUXUXUXUXUXUXUXa ].[.M T F 8 ! _ ' _ X UXUXUXUXUXUXUXUX",
"UXUXUXUXUXUXUXUXUXUXUXUXUXUX& { / [ G u D Z -Xy.3 UXUXUXUXUXUXUXUXUXa ].XXj.W T Y :.4.( ( [ o UXUXUXUXUXUXUXUX",
"UXUXUXUXUXUXUXUXUXUXUXUXUXUX9 } ( | I.F d q m 3Xx.> UXUXUXUXUXUXUXr 2X@XI.P. X+X*X3.] ..) ` UXUXUXUXUXUXUXUXUX",
"UXUXUXUXUXUXUXUXUXUXUXUXUXUX* ^ '  .} #XXX].{.].-.UXUXUXUXUXUXUXUXe m W.P.U.T.R..X..= * ~ * UXUXUXUXUXUXUXUXUX",
"UXUXUXUXUXUXUXUXUXUXUXUXUXUXUXO + ~ = Z :.;.>.w UXUXUXUXUXUXUXUXUXUXUX1 , 1 , $ # % UXUXUXUXUXUXUXUXUXUXUXUXUX",
"UXUXUXUXUXUXUXUXUXUXUXUXUXUXUXUXUXUXUXUXUXUXUXUXUXUXUXUXUXUXUXUXUXUXUXUXUXUXUXUXUXUXUXUXUXUXUXUXUXUXUXUXUXUXUX",
"UXUXUXUXUXUXUXUXUXUXUXUXUXUXUXUXUXUXUXUXUXUXUXUXUXUXUXUXUXUXUXUXUXUXUXUXUXUXUXUXUXUXUXUXUXUXUXUXUXUXUXUXUXUXUX",
"UXUXUXUXUXUXUXUXUXUXUXUXUXUXUXUXUXUXUXUXUXUXUXUXUXUXUXUXUXUXUXUXUXUXUXUXUXUXUXUXUXUXUXUXUXUXUXUXUXUXUXUXUXUXUX",
"UXUXUXUXUXUXUXUXUXUXUXUXUXUXUXUXUXUXUXUXUXUXUXUXUXUXUXUXUXUXUXUXUXUXUXUXUXUXUXUXUXUXUXUXUXUXUXUXUXUXUXUXUXUXUX"
};
