/* XPM */
static char *_3234e8f59d44dafbda7aba5bce00455rk8r6oPUre5tGSpP_7[] = {
/* columns rows colors chars-per-pixel */
"55 55 256 2 ",
"   c #000101",
".  c #011413",
"X  c #0C2020",
"o  c #152527",
"O  c #192533",
"+  c #1E2B2D",
"@  c #233233",
"#  c #463132",
"$  c #853434",
"%  c #4C3638",
"&  c #293C3C",
"*  c #283D49",
"=  c #2F4144",
"-  c #2F4645",
";  c #334744",
":  c #364F4E",
">  c #3C4C4C",
",  c #425150",
"<  c #445755",
"1  c #395454",
"2  c #365250",
"3  c #384958",
"4  c #2F4661",
"5  c #2C3A57",
"6  c #3C3567",
"7  c #38506A",
"8  c #425B77",
"9  c #426065",
"0  c #3D6260",
"q  c #4B5E5D",
"w  c #4B6365",
"e  c #4F6664",
"r  c #526B69",
"t  c #576E6C",
"y  c #5C7170",
"u  c #617372",
"i  c #73726F",
"p  c #A56E68",
"a  c #87726F",
"s  c #607776",
"d  c #5B7B78",
"f  c #567D79",
"g  c #5D827E",
"h  c #62817F",
"j  c #627D7C",
"k  c #6B7B7B",
"l  c #6E7F7E",
"z  c #718280",
"x  c #698582",
"c  c #6C8887",
"v  c #658987",
"b  c #668C8A",
"n  c #718F8C",
"m  c #79938F",
"M  c #798C88",
"N  c #83908B",
"B  c #A2948B",
"V  c #819793",
"C  c #7B9794",
"Z  c #7D9B97",
"A  c #869F98",
"S  c #82A39D",
"D  c #86A3A1",
"F  c #8AA39F",
"G  c #8DA49B",
"H  c #99A79B",
"J  c #94A7A1",
"K  c #90A8A5",
"L  c #8FA9A2",
"P  c #8EACA7",
"I  c #8AAFAA",
"U  c #8BB0AC",
"Y  c #8BB2AE",
"T  c #88B8B2",
"R  c #87B5B0",
"E  c #81B3B2",
"W  c #84A9B1",
"Q  c #82AEAA",
"!  c #80ADA8",
"~  c #7FAAA6",
"^  c #84A8A4",
"/  c #81A4A2",
"(  c #7FA2A3",
")  c #7BA3A7",
"_  c #7CA6A1",
"`  c #79A49E",
"'  c #76A29E",
"]  c #779E9B",
"[  c #769C97",
"{  c #729A96",
"}  c #6D9895",
"|  c #6D9391",
" . c #728B9E",
".. c #6185AC",
"X. c #577CAC",
"o. c #5F7EA0",
"O. c #5D7A92",
"+. c #536F98",
"@. c #486492",
"#. c #535087",
"$. c #503F83",
"%. c #433A81",
"&. c #3B488D",
"*. c #345192",
"=. c #454D95",
"-. c #5159A6",
";. c #5661AF",
":. c #4F6FB3",
">. c #586FBC",
",. c #5D75C1",
"<. c #5E77C7",
"1. c #5F7BD3",
"2. c #6083CA",
"3. c #6186D3",
"4. c #5E8ED8",
"5. c #5997DC",
"6. c #5B98DF",
"7. c #619BE3",
"8. c #619FE7",
"9. c #67A2ED",
"0. c #6BA3F3",
"q. c #6E9EED",
"w. c #759BDE",
"e. c #779AD9",
"r. c #7A9EDB",
"t. c #7BA2E0",
"y. c #80A6E9",
"u. c #84A8EF",
"i. c #85A9E7",
"p. c #87ABDE",
"a. c #8BACD9",
"s. c #A9B4C6",
"d. c #CFBCB0",
"f. c #D3B8A8",
"g. c #B5B7A9",
"h. c #AAB6A9",
"j. c #A3B8AD",
"k. c #A0B5A8",
"l. c #9AB3AC",
"z. c #9DB7B2",
"x. c #96B8B4",
"c. c #96B9B8",
"v. c #91BDB8",
"b. c #8BBDB9",
"n. c #92C2BD",
"m. c #97C4BA",
"M. c #99C0B9",
"N. c #9DBDB7",
"B. c #A1C3BC",
"V. c #9EC3BF",
"C. c #99C5BF",
"Z. c #98C6C1",
"A. c #9FC6D6",
"S. c #9FC5EF",
"D. c #A0C7E9",
"F. c #A7D3CE",
"G. c #A3D6CD",
"H. c #A1D1CA",
"J. c #A3CDC9",
"K. c #A5CBC5",
"L. c #A3C8C4",
"P. c #A4C6C2",
"I. c #A8C4BF",
"U. c #AAC1BE",
"Y. c #B1C1B9",
"T. c #ACC9C2",
"R. c #ABCAC7",
"E. c #ABCDC7",
"W. c #AED1CA",
"Q. c #B0CBC8",
"!. c #B5CDC8",
"~. c #C9D2C5",
"^. c #D9D2C0",
"/. c #CED5C7",
"(. c #C0D9CF",
"). c #B9D8D3",
"_. c #B9D4D0",
"`. c #B4D6D1",
"'. c #AFD5D0",
"]. c #ADD8D1",
"[. c #B0D9D2",
"{. c #AFDCD6",
"}. c #B3DBD5",
"|. c #B7DDD7",
" X c #BBE0D8",
".X c #C2E1D9",
"XX c #BFE3DC",
"oX c #B8E2DC",
"OX c #BBE3DD",
"+X c #BCE5DF",
"@X c #BEE7E2",
"#X c #C1E8E5",
"$X c #C1EAE4",
"%X c #C2ECE4",
"&X c #C3EBE3",
"*X c #C4EAE2",
"=X c #C4E7E0",
"-X c #C6E5DE",
";X c #C9E8DF",
":X c #C8EAE0",
">X c #C7EAE1",
",X c #C9E9E3",
"<X c #CAEBE0",
"1X c #CBECE2",
"2X c #CDECE3",
"3X c #C9EDE3",
"4X c #C7EDE4",
"5X c #C9EFE5",
"6X c #C9F0E6",
"7X c #CBF0E9",
"8X c #C9EEEA",
"9X c #C8ECE8",
"0X c #CCEAE7",
"qX c #CDEEE6",
"wX c #CEEEE7",
"eX c #CDF1E7",
"rX c #D0F2E8",
"tX c #D2F3E8",
"yX c #CEF4EA",
"uX c #CCF4EB",
"iX c #CEF4EB",
"pX c #D1F4EC",
"aX c #CEF2EF",
"sX c #CFF5F1",
"dX c #D2F5EF",
"fX c #CFF8EE",
"gX c #CFF9F2",
"hX c #D2FAF1",
"jX c #D3FAEF",
"kX c #D4F8F3",
"lX c #D7F8F1",
"zX c #D8FAEF",
"xX c #D7FAF4",
"cX c #D3FEF4",
"vX c #D6FEF5",
"bX c #D6FEF7",
"nX c #D4FCF9",
"mX c #D8FDFB",
"MX c #DAFEF9",
"NX c #DBFEFD",
"BX c #DEFEFD",
"VX c #DEFEF8",
"CX c #E2FEFB",
"ZX c #E2FEFE",
"AX c #E5FEFD",
"SX c #E7FEFE",
"DX c #EAFEFE",
"FX c #EDFEFE",
"GX c #F0FEFE",
"HX c #F3FEFE",
"JX c #F6FEFE",
"KX c #FAFEF5",
"LX c #FEFDE7",
"PX c #FEF8E2",
"IX c #FDEFDA",
"UX c None",
/* pixels */
"UXUXUXUXUXUXUXUXUXUXUXUXUXUXUXUXUXUXUXUXUXUXUXUXUXUXUXUXUXUXUXUXUXUXUXUXUXUXUXUXUXUXUXUXUXUXUXUXUXUXUXUXUXUXUX",
"UXUXUXUXUXUXUXUXUXUXUXUXUXUXUXUXUXUXUXUXUXUXUXUXUXUXUXUXUXUXUXUXUXUXUXUXUXUXUXUXUXUXUXUXUXUXUXUXUXUXUXUXUXUXUX",
"UXUXUXUXUXUXUXUXUXUXUXUXUXUXUXUXUXUXUXUXUXUXUXUXUXUXUXUXUXUXUXUXUXUXUXUXUXUXUXUXUXUXUXUXUXUXUXUXUXUXUXUXUXUXUX",
"UXUXUXUXUXUXUXUXUXUXUXUXUXUXUXUXUXUXUXUXUXUXUXUXUXUXUXUXUXUXUXUXUXUXUXUXUXUXUXUXUXUXUXUXUXUXUXUXUXUXUXUXUXUXUX",
"UXUXUXUXUXUXUXUXUXUXUXUXUXUXUXUXUXUXUXUXUXUXUXUXUXUXUXUXUXUXUXUXUXUXUXUXUXUXUXUXUXUXUXUXUXUXUXUXUXUXUXUXUXUXUX",
"UXUXUXUXUXUXUXUXUXUXUXUXUXUXUXUXUXUXUXUXUXUXUXUXUXUXUXUXUXUXUXUXUXUXUXUXUXUXUXUXUXUXUXUXUXUXUXUXUXUXUXUXUXUXUX",
"UXUXUXUXUXUXUXUXUXUXUXUXUXUXUXUXUXUXUXUXUXUXUXUXUXUXUXUXUXUXUXUXUXUXUXUXUXUXUXUXUXUXUXUXUXUXUXUXUXUXUXUXUXUXUX",
"UXUXUXUXUXUXUXUXUXUXUXUXUXUXUXUXUXUXUXUXUXUXUXUXUXUXUXUXUXUXUXUXUXUXUXUXUXUXUXUXUXUXUXUXUXUXUXUXUXUXUXUXUXUXUX",
"UXUXUXUXUXUXUXUXUXUXUXUXUXUXUXUXUXUXUXUXUXUXUXUXUXUXUXUXUXUXUXUXUXUXUXUXUXUXUXUXUXUXUXUXUXUXUXUXUXUXUXUXUXUXUX",
"UXUXUXUXUXUXUXUXUXUXUXUXUXUXUXUXUXUXUXUXUXUXUXUXUXUXUXUXUXUXUXUXUXUXUXUXUXUXUXUXUXUXUXUXUXUXUXUXUXUXUXUXUXUXUX",
"UXUXUXUXUXUXUXUXUXUXUXUXUXUXUXUXUXUXUXUXUXUXUXUXUXUXUXUXUXUXUXUXUXUXUXUXUXUXUXUXUXUXUXUXUXUXUXUXUXUXUXUXUXUXUX",
"UXUXUXUXUXUXUXUXUXUXUXUXUXUXUXUXUXUXUXUXUXUXUXUXUXUXUXUXUXUXUXUXUXUXUXUXUXUXUXUXUXUXUXUXUXUXUXUXUXUXUXUXUXUXUX",
"UXUXUXUXUXUXUXUXUXUXUXUXUXUXUXUXUXUXUXUXUXUXUXUXUXUXUXUXUXUXUXUXUXUXUXUXUXUXUXUXUXUXUXUXUXUXUXUXUXUXUXUXUXUXUX",
"UXUXUXUXUXUXUXUXUXUXUXUXUXUXUXUXUXUXUXUXUXUXUXUXUXUXUXUXUXUXUXUXUXUXUXUXUXUXUXUXUXUXUXUXUXUXUXUXUXUXUXUXUXUXUX",
"UXUXUXUXUXUXUXUXUXUXUXUXUXUXUXUXUXUXUXUXUXUXUXUXUXUXUXUXUXUXUXUXUXUXUXUXUXUXUXUXUXUXUXUXUXUXUXUXUXUXUXUXUXUXUX",
"UXUXUXUXUXUXUXUXUXUXUXUXUXUXUXUXUXUXUXUXUXUXUXUXUXUXUXUXUXUXUXUXUXUXUXUXUXUXUXUXUXUXUXUXUXUXUXUXUXUXUXUXUXUXUX",
"UXUXUXUXUXUXUXUXUXUXUXUXUXUXUXUXUXUXUXUXUXUXUXUXUXUXUXUXUXUXUXUXUXUXUXUXUXUXUXUXUXUXUXUXUXUXUXUXUXUXUXUXUXUXUX",
"UXUXUXUXUXUXUXUXUXUXUXUXUXUXUXUXUXUXUXUXUXUXUXUXUXUXUXUXUXUXUXUXUXUXUXUXUXUXUXUXUXUXUXUXUXUXUXUXUXUXUXUXUXUXUX",
"UXUXUXUXUXUXUXUXUXUXUXUXUXUXUXUXUXUXUXUXUXUXUXUXUXUXUXUXUXUXUXUXUXUXUXUXUXUXUXUXUXUXUXUXUXUXUXUXUXUXUXUXUXUXUX",
"UXUXUXUXUXUXUXUXUXUXUXUXUXUXUXUXUXUXUXUXUXUXUXUXUXUXUXUXUXUXUXUXUXUXUXUXUXUXUXUXUXUXUXUXUXUXUXUXUXUXUXUXUXUXUX",
"UXUXUXUXUXUXUXUXUXUXUXUXUXUXUXUXUXUXUXUXUXUXUXUXUXUXUXUXUXUXUXUXUXUXUXUXUXUXUXUXUXUXUXUXUXUXUXUXUXUXUXUXUXUXUX",
"UXUXUXUXUXUXUXUXUXUXUXUXUXUXUXUXUXUXUXUXUXUXUXUXUXUXUXUXUX= = - = = = UXUXUXUXUXUXUXUXUXUXUXUXUXUXUXUXUXUXUXUX",
"UXUXUXUXUXUXUXUXUXUXUXUXUXUXUXUXUXUXUXUXUXUXUXUXUXUX@ t C 5XXXXX.X3X'.d e UXUXUXUXUXUXUXUXUXUXUXUXUXUXUXUXUXUX",
"UXUXUXUXUXUXUXUXUXUXUXUXUXUXUXUXUXUXUXUXUXUXUXUX@ y '.MXVXtXtXtXtXrXiXVXpXY 2 UXUXUXUXUXUXUXUXUXUXUXUXUXUXUXUX",
"UXUXUXUXUXUXUXUXUXUXUXUXUXUXUXUXUXUXUXUXUXUXUX> Q.NXgX*XK.<XqX2X3X1X<X1X6XvXcXn UXUXUXUXUXUXUXUXUXUXUXUXUXUXUX",
"UXUXUXUXUXUXUXUXUXUXUXUXUXUXUXUXUXUXUXUXUXUXUXN.CX8X,X:X X:X1X3XwXtXtX5XH.qXuX$XM UXUXUXUXUXUXUXUXUXUXUXUXUXUX",
"UXUXUXUXUXUXUXUXUXUXUXUXUXUXUXUXUXUXUXUXUXUXUXE.dXP.qX3X5XeXE.|.OX[.}.}.4X2X*X+X9X+ UXUXUXUXUXUXUXUXUXUXUXUXUX",
"UXUXUXUXUXUXUXUXUXUXUXUXUXUXUXUXUXUXUXUXUXUXUXR.BX%X>X4XyXyX6XuXG.E E b.*XeX5XbX=X+ UXUXUXUXUXUXUXUXUXUXUXUXUX",
"UXUXUXUXUXUXUXUXUXUXUXUXUXUXUXUXUXUXUXUXUXUXUXe $XBXrX7XM.v.Z.n.v.n.b.{.jXeXfXwXu UXUXUXUXUXUXUXUXUXUXUXUXUXUX",
"UXUXUXUXUXUXUXUXUXUXUXUXUXUXUXUXUXUXUXUXUXUXUXUX> m 1Xz.k.h.H h.j.x.|.Z Z I ^ < UXUXUXUXUXUXUXUXUXUXUXUXUXUXUX",
"UXUXUXUXUXUXUXUXUXUXUXUXUXUXUXUXUXUXUXUXUXUXUXUXUXUXX H LX$ $ $ IXY.: ~.^.p d.M UXUXUXUXUXUXUXUXUXUXUXUXUXUXUX",
"UXUXUXUXUXUXUXUXUXUXUXUXq q UXUXUXUXUXUXUXUXUXUXUX: 2 A LXp $ p LXG Y B.B $ f.(.: UXUXUXUXUXUXUXUXUXUXUXUXUXUX",
"UXUXUXUXUXUXUXUXUXUXu _.JXDXn UXUXUXUXUXUXUXUX& ; L.' f A j.k.k.G 0 _ pXP S P g J.X UX; = & UXUXUXUXUXUXUXUXUX",
"e , UXUXUXUXUXUXUXl FX-XV ).HXm UXUXUXUXUXUXF NXc./ ` _ ` { ) ) { [ f 6XfXf v Z P c ).lXzX.Xy UXUXUXUXUXUXt e ",
"c Q.UXUXUXUXUXUXl DX0X, UX& c HXm UXUXUXUXK AXj n | 0 R b } } v U n r wXbXL.. q P.XXj < M 2XHXF UXUXUXUX+ 7Xv ",
"j FXP.UXUXUXUXl HX0X, UXUXUXUXz FXz.>   L SXu UXUX9 ].m.` | UXUXh xXZ =XkX[.t bXK UXUXUXUX@ I.JXK UXUXUXU.CXd ",
"r ,XAXB.UXUXz GX-X, UXUXUXUXUXUXk JX<Xz.VXy UXUXUXUX .O.5 UXUXUXUXt { uXhX[.M.P UXUXUXUXUXUXUXU.JXS q x.SX;Xe ",
"UXP AXmXR.z.AX=X< UXUXUXUXUXUXUXUXl 6XwXu UXUXUXUXUX&.3.-.UXUXUXUXUX2 gXSXE.; UXUXUXUXUXUXUXUXUXI.SXvXjXCXl.UX",
"UXUXI.ZXFXGX-X< UXUXUXUXUXUXUXUXUXUX@ @ UXUXUXUXUXUX,.9.q.;.UXUXUXUXUXt C q UXUXUXUXUXUXUXUXUXUXUXI.zXzXT.UXUX",
"UXUXUXz.Q.x @ UXUXUXUXUXUXUXUXUXUXUXUXUXUXUXUXUXUXUX>.8.6.0.=.UXUXUXUXUXUXUXUXUXUXUXUXUXUXUXUXUXUXUX: : UXUXUX",
"UXUXUXUXUXUXUXUXUXUXUXUXUXUXUXUXUXUXUXUXUXUXUXUXUXUX;.8.5.7.2.6 : 1 1 1 1 1 1 2 UXUXUXUXUXUXUXUXUXUXUXUXUXUXUX",
"UXUXUXUXUXUXUXUXUXUXUXUXUXUXUXUXUXUXUXUXUXs h j 2 * 6 ,.7.6.6.$.Y T T R T ! ` C.I e UXUXUXUXUXUXUXUXUXUXUXUXUX",
"UXUXUXUXUXUXUXUXUXUXUXUXUXUXUXUXUXUXt N.] m.Y U '.N.L #.1.0.1.6 / ~ / ( ( J.{.v.~ oX< UXUXUXUXUXUXUXUXUXUXUXUX",
"UXUXUXUXUXUXUXUXUXUXUXUXUXUXUXUXUXS +XU M.x.XXZ s UXUXO %.=.%.UXUXUXUXUXUXw F.NX|.Q < UXUXUXUXUXUXUXUXUXUXUXUX",
"UXUXUXUXUXUXUXUXUXUXUXUXUXUXUXUX@ J.| #XdXr + UXUXUXUXUXUXUXUXUXUXUXUXUXUXe %XbXV.| UXUX3 8 UXUXUXUXUXUXUXUXUX",
"UXUXUXUXUXUXUXUXUXUXUXUXUXUXUX4 UXy } #XsXs UXUXUXUXUXUXUXUXUXUXUXUXUXUXu kXNXC.g & UX3 o.e.O UXUXUXUXUXUXUXUX",
"UXUXUXUXUXUXUXUXUXUXUXUXUXUX4 u.w o w [ $XZXk UXUXUXUXUXUXUXUXUXUXUXUXu nXkXY b ] 9 O.,...:.o UXUXUXUXUXUXUXUX",
"UXUXUXUXUXUXUXUXUXUXUXUXUXUX4 w.X...; 1 b #XBXk UXUXUXUXUXUXUXUXUXUXu xXjX Xx b | Z.S.:.X.e.+ UXUXUXUXUXUXUXUX",
"UXUXUXUXUXUXUXUXUXUXUXUXUXUX8 t.*.r.W.1 r x pXVXl UXUXUXUXUXUXUXUXt ZXcX6X7XgXxXMXA.3.p.X.2.UXUXUXUXUXUXUXUXUX",
"UXUXUXUXUXUXUXUXUXUXUXUXUXUX3 @...u.p.nXvXfXlXBXdX> UXUXUXUXUXUXUXq 3XhXuXaXsXfXhXa.*.7 8 5 UXUXUXUXUXUXUXUXUX",
"UXUXUXUXUXUXUXUXUXUXUXUXUXUXUXO & +.*.W B.M.B.D - UXUXUXUXUXUXUXUXUX& - - - - - = * UXUXUXUXUXUXUXUXUXUXUXUXUX",
"UXUXUXUXUXUXUXUXUXUXUXUXUXUXUXUXUXUXUXUXUXUXUXUXUXUXUXUXUXUXUXUXUXUXUXUXUXUXUXUXUXUXUXUXUXUXUXUXUXUXUXUXUXUXUX",
"UXUXUXUXUXUXUXUXUXUXUXUXUXUXUXUXUXUXUXUXUXUXUXUXUXUXUXUXUXUXUXUXUXUXUXUXUXUXUXUXUXUXUXUXUXUXUXUXUXUXUXUXUXUXUX",
"UXUXUXUXUXUXUXUXUXUXUXUXUXUXUXUXUXUXUXUXUXUXUXUXUXUXUXUXUXUXUXUXUXUXUXUXUXUXUXUXUXUXUXUXUXUXUXUXUXUXUXUXUXUXUX",
"UXUXUXUXUXUXUXUXUXUXUXUXUXUXUXUXUXUXUXUXUXUXUXUXUXUXUXUXUXUXUXUXUXUXUXUXUXUXUXUXUXUXUXUXUXUXUXUXUXUXUXUXUXUXUX"
};
