/* XPM */
static char *_3234e8f59d44dafbda7aba5bce00455rk8r6oPUre5tGSpP_8[] = {
/* columns rows colors chars-per-pixel */
"55 55 256 2 ",
"   c #B68B7E",
".  c #A5776D",
"X  c #AD6364",
"o  c #8C524E",
"O  c #7C3B38",
"+  c #7A2A2A",
"@  c #6B171F",
"#  c #721118",
"$  c #710107",
"%  c #630000",
"&  c #100000",
"*  c black",
"=  c #00080A",
"-  c #0C1617",
";  c #091C1F",
":  c #182523",
">  c #1E2830",
",  c #1F2E2E",
"<  c #1D3131",
"1  c #1C3635",
"2  c #21333B",
"3  c #282F44",
"4  c #253C43",
"5  c #273C3C",
"6  c #2B3D3E",
"7  c #2C4543",
"8  c #314340",
"9  c #374344",
"0  c #3A4747",
"q  c #393D51",
"w  c #382D5F",
"e  c #2D4461",
"r  c #394B58",
"t  c #3C4D4D",
"y  c #37514F",
"u  c #385554",
"i  c #3C5452",
"p  c #445352",
"a  c #455555",
"s  c #44595B",
"d  c #405E5D",
"f  c #416460",
"g  c #4C6061",
"h  c #506362",
"j  c #5E6766",
"k  c #566365",
"l  c #415A74",
"z  c #3C5268",
"x  c #354D73",
"c  c #443A6C",
"v  c #4D3273",
"b  c #553683",
"n  c #5D3986",
"m  c #653692",
"M  c #4C4393",
"N  c #325194",
"B  c #385C83",
"V  c #44608F",
"C  c #476896",
"Z  c #506F98",
"A  c #585A81",
"S  c #4F6674",
"D  c #4A6E6B",
"F  c #536E6D",
"G  c #5A6E6D",
"H  c #5B7276",
"J  c #617675",
"K  c #647977",
"L  c #667B7A",
"P  c #5B7D7B",
"I  c #58807E",
"U  c #5B8481",
"Y  c #648481",
"T  c #67807D",
"R  c #6D807E",
"E  c #728583",
"W  c #6F8986",
"Q  c #658A87",
"!  c #678B8D",
"~  c #68918D",
"^  c #6C908D",
"/  c #728F8C",
"(  c #768C89",
")  c #79938D",
"_  c #829391",
"`  c #829895",
"'  c #7E9D99",
"]  c #759896",
"[  c #7095A3",
"{  c #6586C7",
"}  c #6285A7",
"|  c #547BA8",
" . c #516FB2",
".. c #7859AB",
"X. c #783CAC",
"o. c #7E40B3",
"O. c #8444BB",
"+. c #8C43C4",
"@. c #934ECB",
"#. c #9F55D5",
"$. c #A459DB",
"%. c #A75CDE",
"&. c #AA5DE2",
"*. c #AC5CE5",
"=. c #B364EE",
"-. c #8D83E2",
";. c #7297DB",
":. c #7B9FDD",
">. c #7FA5E5",
",. c #83A8E8",
"<. c #85B1C5",
"1. c #87B7B2",
"2. c #87B4B0",
"3. c #8CB5AF",
"4. c #91B3AD",
"5. c #92AFAB",
"6. c #8AACAA",
"7. c #85A8A7",
"8. c #82ACAC",
"9. c #75B0A7",
"0. c #7DA9A4",
"q. c #7CA4A3",
"w. c #7BA09C",
"e. c #81A29D",
"r. c #86A5A0",
"t. c #8CA5A0",
"y. c #93A69A",
"u. c #9DA595",
"i. c #C3A595",
"p. c #C1AA9D",
"a. c #B6B5AA",
"s. c #A6B4A6",
"d. c #A2B7AC",
"f. c #99B3B1",
"g. c #93B6B1",
"h. c #93B9B5",
"j. c #94BCB7",
"k. c #9DBBB7",
"l. c #A8BBB9",
"z. c #9FC0BB",
"x. c #98C1BC",
"c. c #9AC3BE",
"v. c #A1C3BE",
"b. c #9EC6BF",
"n. c #9DC8C2",
"m. c #9DC7CE",
"M. c #9EC5EF",
"N. c #A4CAE0",
"B. c #A2CBCE",
"V. c #A1CCC6",
"C. c #9ECBC6",
"Z. c #9CCEC6",
"A. c #A2D2CC",
"S. c #A8D8D2",
"D. c #A9D3CE",
"F. c #ABD1CC",
"G. c #AFCFCA",
"H. c #ABCEC8",
"J. c #A7CBC7",
"K. c #A8C9C5",
"L. c #ABC7C2",
"P. c #B0C4C1",
"I. c #B1C4B7",
"U. c #B6C6B9",
"Y. c #C3C9BC",
"T. c #D2C5B2",
"R. c #CBCDBA",
"E. c #C6D3C0",
"W. c #C7DBC6",
"Q. c #C0D6C7",
"!. c #B6D0CA",
"~. c #B3D2CC",
"^. c #B4D3CF",
"/. c #B5D4D1",
"(. c #B4D6D2",
"). c #B9D8D4",
"_. c #BCD9D6",
"`. c #BCDCD7",
"'. c #B8DCD7",
"]. c #B1DDD6",
"[. c #B3DFD8",
"{. c #B4E0DA",
"}. c #B4E2DB",
"|. c #ADE3DA",
" X c #B2E5DE",
".X c #B6EAE1",
"XX c #B8E7E0",
"oX c #BAE4DE",
"OX c #BFE2DE",
"+X c #C4DFDC",
"@X c #C4E3DF",
"#X c #C3E5E0",
"$X c #C0E6E1",
"%X c #C3E8E3",
"&X c #C4EAE4",
"*X c #C2EBE6",
"=X c #C5ECE6",
"-X c #C7ECE7",
";X c #C6EDE8",
":X c #C2EFE7",
">X c #C2F2EC",
",X c #C7F0EB",
"<X c #CBF0EA",
"1X c #C9EEEA",
"2X c #CBEDE7",
"3X c #CEECE7",
"4X c #CFEDE9",
"5X c #D2EFE8",
"6X c #D4F1EC",
"7X c #CFF0EC",
"8X c #CBF3ED",
"9X c #CAF4EE",
"0X c #CCF6F0",
"qX c #CFF4EF",
"wX c #D2F5F0",
"eX c #D0F7F2",
"rX c #CDF9F3",
"tX c #D0FAF4",
"yX c #D4FBF5",
"uX c #D3FEF8",
"iX c #D3FCFA",
"pX c #D4FEFB",
"aX c #D5FEF9",
"sX c #D6FEF8",
"dX c #D6FDF8",
"fX c #D8FBF7",
"gX c #D8FEF8",
"hX c #D9FEF9",
"jX c #D8FEFB",
"kX c #DAFEFD",
"lX c #DBFEFE",
"zX c #DDFEFA",
"xX c #DFFEFA",
"cX c #E0FEFC",
"vX c #E0FEFE",
"bX c #E2FEFE",
"nX c #E4FEFE",
"mX c #E6FEFE",
"MX c #E8FEFE",
"NX c #EAFEFE",
"BX c #ECFEFE",
"VX c #EEFEFE",
"CX c #F0FEFE",
"ZX c #F4FEFE",
"AX c #F7FEFE",
"SX c #FAFEFE",
"DX c #FCFEFB",
"FX c #FEFEF3",
"GX c #FEFEEA",
"HX c #F7FEE8",
"JX c #F0F8E1",
"KX c #F1EFD9",
"LX c #F2E8D2",
"PX c #EAE5D0",
"IX c #E1E4D0",
"UX c None",
/* pixels */
"UXUXUXUXUXUXUXUXUXUXUXUXUXUXUXUXUXUXUXUXUXUXUXUXUXUXUXUXUXUXUXUXUXUXUXUXUXUXUXUXUXUXUXUXUXUXUXUXUXUXUXUXUXUXUX",
"UXUXUXUXUXUXUXUXUXUXUXUXUXUXUXUXUXUXUXUXUXUXUXUXUXUXUXUXUXUXUXUXUXUXUXUXUXUXUXUXUXUXUXUXUXUXUXUXUXUXUXUXUXUXUX",
"UXUXUXUXUXUXUXUXUXUXUXUXUXUXUXUXUXUXUXUXUXUXUXUXUXUXUXUXUXUXUXUXUXUXUXUXUXUXUXUXUXUXUXUXUXUXUXUXUXUXUXUXUXUXUX",
"UXUXUXUXUXUXUXUXUXUXUXUXUXUXUXUXUXUXUXUXUXUXUXUXUXUXUXUXUXUXUXUXUXUXUXUXUXUXUXUXUXUXUXUXUXUXUXUXUXUXUXUXUXUXUX",
"UXUXUXUXUXUXUXUXUXUXUXUXUXUXUXUXUXUXUXUXUXUXUXUXUXUXUXUXUXUXUXUXUXUXUXUXUXUXUXUXUXUXUXUXUXUXUXUXUXUXUXUXUXUXUX",
"UXUXUXUXUXUXUXUXUXUXUXUXUXUXUXUXUXUXUXUXUXUXUXUXUXUXUXUXUXUXUXUXUXUXUXUXUXUXUXUXUXUXUXUXUXUXUXUXUXUXUXUXUXUXUX",
"UXUXUXUXUXUXUXUXUXUXUXUXUXUXUXUXUXUXUXUXUXUXUXUXUXUXUXUXUXUXUXUXUXUXUXUXUXUXUXUXUXUXUXUXUXUXUXUXUXUXUXUXUXUXUX",
"UXUXUXUXUXUXUXUXUXUXUXUXUXUXUXUXUXUXUXUXUXUXUXUXUXUXUXUXUXUXUXUXUXUXUXUXUXUXUXUXUXUXUXUXUXUXUXUXUXUXUXUXUXUXUX",
"UXUXUXUXUXUXUXUXUXUXUXUXUXUXUXUXUXUXUXUXUXUXUXUXUXUXUXUXUXUXUXUXUXUXUXUXUXUXUXUXUXUXUXUXUXUXUXUXUXUXUXUXUXUXUX",
"UXUXUXUXUXUXUXUXUXUXUXUXUXUXUXUXUXUXUXUXUXUXUXUXUXUXUXUXUXUXUXUXUXUXUXUXUXUXUXUXUXUXUXUXUXUXUXUXUXUXUXUXUXUXUX",
"UXUXUXUXUXUXUXUXUXUXUXUXUXUXUXUXUXUXUXUXUXUXUXUXUXUXUXUXUXUXUXUXUXUXUXUXUXUXUXUXUXUXUXUXUXUXUXUXUXUXUXUXUXUXUX",
"UXUXUXUXUXUXUXUXUXUXUXUXUXUXUXUXUXUXUXUXUXUXUXUXUXUXUXUXUXUXUXUXUXUXUXUXUXUXUXUXUXUXUXUXUXUXUXUXUXUXUXUXUXUXUX",
"UXUXUXUXUXUXUXUXUXUXUXUXUXUXUXUXUXUXUXUXUXUXUXUXUXUXUXUXUXUXUXUXUXUXUXUXUXUXUXUXUXUXUXUXUXUXUXUXUXUXUXUXUXUXUX",
"UXUXUXUXUXUXUXUXUXUXUXUXUXUXUXUXUXUXUXUXUXUXUXUXUXUXUXUXUXUXUXUXUXUXUXUXUXUXUXUXUXUXUXUXUXUXUXUXUXUXUXUXUXUXUX",
"UXUXUXUXUXUXUXUXUXUXUXUXUXUXUXUXUXUXUXUXUXUXUXUXUXUXUXUXUXUXUXUXUXUXUXUXUXUXUXUXUXUXUXUXUXUXUXUXUXUXUXUXUXUXUX",
"UXUXUXUXUXUXUXUXUXUXUXUXUXUXUXUXUXUXUXUXUXUXUXUXUXUXUXUXUXUXUXUXUXUXUXUXUXUXUXUXUXUXUXUXUXUXUXUXUXUXUXUXUXUXUX",
"UXUXUXUXUXUXUXUXUXUXUXUXUXUXUXUXUXUXUXUXUXUXUXUXUXUXUXUXUXUXUXUXUXUXUXUXUXUXUXUXUXUXUXUXUXUXUXUXUXUXUXUXUXUXUX",
"UXUXUXUXUXUXUXUXUXUXUXUXUXUXUXUXUXUXUXUXUXUXUXUXUXUXUXUXUXUXUXUXUXUXUXUXUXUXUXUXUXUXUXUXUXUXUXUXUXUXUXUXUXUXUX",
"UXUXUXUXUXUXUXUXUXUXUXUXUXUXUXUXUXUXUXUXUXUXUXUXUXUXUXUXUXUXUXUXUXUXUXUXUXUXUXUXUXUXUXUXUXUXUXUXUXUXUXUXUXUXUX",
"UXUXUXUXUXUXUXUXUXUXUXUXUXUXUXUXUXUXUXUXUXUXUXUXUXUXUXUXUXUXUXUXUXUXUXUXUXUXUXUXUXUXUXUXUXUXUXUXUXUXUXUXUXUXUX",
"UXUXUXUXUXUXUXUXUXUXUXUXUXUXUXUXUXUXUXUXUXUXUXUXUXUXUXUXUXUXUXUXUXUXUXUXUXUXUXUXUXUXUXUXUXUXUXUXUXUXUXUXUXUXUX",
"UXUXUXUXUXUXUXUXUXUXUXUXUXUXUXUXUXUXUXUXUXUXUXUXUX> t r.r.e.e.6.F , UXUXUXUXUXUXUXUXUXUXUXUXUXUXUXUXUXUXUXUXUX",
"UXUXUXUXUXUXUXUXUXUXUXUXUXUXUXUXUXUXUXUXUXUXUXUXJ `.1XaXgXzXhXlX8X*X] 0 UXUXUXUXUXUXUXUXUXUXUXUXUXUXUXUXUXUXUX",
"UXUXUXUXUXUXUXUXUXUXUXUXUXUXUXUXUXUXUXUXUXUXK _.lX{.[.8X2X].*X1XyX|.>X-X' 8 UXUXUXUXUXUXUXUXUXUXUXUXUXUXUXUXUX",
"UXUXUXUXUXUXUXUXUXUXUXUXUXUXUXUXUXUXUXUXUXK hXtX;X-X=X<XwXS.:X;X}..X9XqX}.0XG UXUXUXUXUXUXUXUXUXUXUXUXUXUXUXUX",
"UXUXUXUXUXUXUXUXUXUXUXUXUXUXUXUXUXUXUXUXUXg.bXV.&X<XqX1Xh.6.F..X9.Z.eX,X$XpX0X0 UXUXUXUXUXUXUXUXUXUXUXUXUXUXUX",
"UXUXUXUXUXUXUXUXUXUXUXUXUXUXUXUXUXUXUXUXUX` nX9X=XqXH.( I.W.d.` qXz.) t.` K.nXy UXUXUXUXUXUXUXUXUXUXUXUXUXUXUX",
"UXUXUXUXUXUXUXUXUXUXUXUXUXUXUXUXUXUXUXUXUXUX4.vXuXD.y.JXPX  T.IX` E.PX. i.I.] UXUXUXUXUXUXUXUXUXUXUXUXUXUXUXUX",
"UXUXUXUXUXUXUXUXUXUXUXUXUXUXUXUXUXUXUXUXUXUXUXe.:X4.E.FXO % # LXy.d.o $ # a.1 UXUXUXUXUXUXUXUXUXUXUXUXUXUXUXUX",
"UXUXUXUXUXUXUXUXUXUXUXUXUXUXUXUXUXUXUXUXUXUXUXUX7 f T HXi.+ . GX) 6.j @ X Y.; UXUXUXUXUXUXUXUXUXUXUXUXUXUXUXUX",
"UXUXUXUXUXUXUXUXUXUXUXUXUXUXUXUXUXUXUXUXUXUXUXUXi I P ) s.u.s.y.I J.kXz.t.r.^ F UXUXUXUXUXUXUXUXUXUXUXUXUXUXUX",
"UXUXUXUXUXUXUX8 ) `.G.p UXUXUXUXUXUXUXUXUXUXUXUXt.c.w.U D U I U ~ Q aXaXD T n.V.UXUXUXUXUXUXUXUXUXUXUXUXUXUXUX",
"UXUXUXUXUXUXa 3XVXmXCX#Xt UXUXUXUXUXUXUXUX6 UXUXj K Q q.8.Q P Y D ^ wXfXc.f K F UXUXUXUXUXUXK 4.' UXUXUXUXUXUX",
"UXUXUXUXUXa 4XxXr.' 7.nX-Xa UXUXUXUXUXUXE vXF.F UXUX1 >X! UXUXUXUXH kXhXg.UXUXUXUXUXUXUXUXR NXBXVXk.UXUXUXUXUX",
"UXUXUXUXp 4XBXR UXUXUXW VX;Xt UXUXUXUX( vX(.(.iX^ UXj.c.UXUXUXUX7 W fXjX3.UXUXUXUXUXUXUXR CX!.g S mXl.UXUXUXUX",
"UXUXUXa 6XVXL UXUXUXUXUXE BX%XR - t 5.MX/ UXUXL /.H D.7.; 1 6 ] c.' aXaXV.F UXUXUXUXUXE SX_ UXUXUXh VXl.UXUXUX",
"UXUXp 6XVXJ UXUXUXUXUXUXUXR VXBX#XwXCXR UXUXUXUX6 3 b ..c ~ ^ Q , h tXvXW ^.k.UXUX9 _ ZX_ UXUXUXUXUXk NXl.UXUX",
"UXk 4XmXK UXUXUXUXUXUXUXUXUXE %X;Xv.s UXUXUXUXUXUXUXO.*.X.3 UXUXUXUXs g UXJ xXH.5.+XZX( UXUXUXUXUXUXUXh SXt.UX",
"UXP.ZXL UXUXUXUXUXUXUXUXUXUXUX, < UXUXUXUXUXUXUXUXUXO.&.*.X.UXUXUXUXUXUXUXUXG bXCXvX( UXUXUXUXUXUXUXUXUXL.5Xg ",
"H BX_.UXUXUXUXUXUXUXUXUXUXUXUXUXUXUXUXUXUXUXUXUXUXUXO.&.$.=.m UXUXUXUXUXUXUXUXG f.p UXUXUXUXUXUXUXUXUXUXh mXY ",
"T +Xt UXUXUXUXUXUXUXUXUXUXUXUXUXUXUXUXUXUXUXUXUXUXUXX.%.$.%.@.w y u i y i i i 7 = UXUXUXUXUXUXUXUXUXUXUXUXK.T ",
"UXUXUXUXUXUXUXUXUXUXUXUXUXUXUXUXUXUXUXUXa Y P F 1 4 w b #.%.$.n 2.1.1.1.1.2.q.x.7.h UXUXUXUXUXUXUXUXUXUXUXUXUX",
"UXUXUXUXUXUXUXUXUXUXUXUXUXUXUXUXUXUXG h.6.j.8.c.;Xh.4.A +.=.@.c 0.7.q.q.e.6.{.j.0. Xi UXUXUXUXUXUXUXUXUXUXUXUX",
"UXUXUXUXUXUXUXUXUXUXUXUXUXUXUXUXUXg.V.0.j.'.z.H T UXUX3 b m v UXUXUXUXUXUXUXY rXoX8.s UXUXUXUXUXUXUXUXUXUXUXUX",
"UXUXUXUXUXUXUXUXUXUXUXUXUXUXUXUX5 1.h.sX7Xg UXUXUXUXUXUXUXUXUXUXUXUXUXUXUXUXe.lXn.^ UXUXUXUXUXUXUXUXUXUXUXUXUX",
"UXUXUXUXUXUXUXUXUXUXUXUXUXUXUXe UXf 0.,XeXJ UXUXUXUXUXUXUXUXUXUXUXUXUXUXUXf.VXn.U 5 UXs UX} l UXUXUXUXUXUXUXUX",
"UXUXUXUXUXUXUXUXUXUXUXUXUXUXe ,.S : d ] =XmXT UXUXUXUXUXUXUXUXUXUXUXUXUXf.mXh.Q ] f ! { Z ;.e UXUXUXUXUXUXUXUX",
"UXUXUXUXUXUXUXUXUXUXUXUXUXUXe ;.| } 8 u Q %XlXW 0 UXUXUXUXUXUXUXUXUXUX4.nX$XY ! ~ C.M. .| >.V UXUXUXUXUXUXUXUX",
"UXUXUXUXUXUXUXUXUXUXUXUXUXUXl >.N :.~.y D Y <XmX`.9 UXUXUXUXUXUXUXUXf.VXjXaXlXbXNXN.{ >.B V z UXUXUXUXUXUXUXUX",
"UXUXUXUXUXUXUXUXUXUXUXUXUXUXr C } ,.,.pXsXtXyXkXeX9 UXUXUXUXUXUXUXUXR ] / / / / / z x z ; UXUXUXUXUXUXUXUXUXUX",
"UXUXUXUXUXUXUXUXUXUXUXUXUXUXUX> 4 Z N 8.b.x.c.r.6 UXUXUXUXUXUXUXUXUXUXUXUXUXUXUXUXUXUXUXUXUXUXUXUXUXUXUXUXUXUX",
"UXUXUXUXUXUXUXUXUXUXUXUXUXUXUXUXUXUXUXUXUXUXUXUXUXUXUXUXUXUXUXUXUXUXUXUXUXUXUXUXUXUXUXUXUXUXUXUXUXUXUXUXUXUXUX",
"UXUXUXUXUXUXUXUXUXUXUXUXUXUXUXUXUXUXUXUXUXUXUXUXUXUXUXUXUXUXUXUXUXUXUXUXUXUXUXUXUXUXUXUXUXUXUXUXUXUXUXUXUXUXUX",
"UXUXUXUXUXUXUXUXUXUXUXUXUXUXUXUXUXUXUXUXUXUXUXUXUXUXUXUXUXUXUXUXUXUXUXUXUXUXUXUXUXUXUXUXUXUXUXUXUXUXUXUXUXUXUX",
"UXUXUXUXUXUXUXUXUXUXUXUXUXUXUXUXUXUXUXUXUXUXUXUXUXUXUXUXUXUXUXUXUXUXUXUXUXUXUXUXUXUXUXUXUXUXUXUXUXUXUXUXUXUXUX"
};
