/* XPM */
static char *_3234e8f59d44dafbda7aba5bce00455rk8r6oPUre5tGSpP_9[] = {
/* columns rows colors chars-per-pixel */
"55 55 256 2 ",
"   c #020303",
".  c #410D10",
"X  c #730A11",
"o  c #622327",
"O  c #142324",
"+  c #1A2B32",
"@  c #273C3C",
"#  c #2C4444",
"$  c #273A47",
"%  c #324545",
"&  c #2C415E",
"*  c #384A5F",
"=  c #394F4F",
"-  c #385352",
";  c #675654",
":  c #A25C59",
">  c #924C49",
",  c #6A4E4D",
"<  c #424F50",
"1  c #415554",
"2  c #465657",
"3  c #445C59",
"4  c #3A605E",
"5  c #406664",
"6  c #476965",
"7  c #4C6261",
"8  c #526261",
"9  c #546A68",
"0  c #596B6A",
"q  c #5B6E6C",
"w  c #577372",
"e  c #5D7273",
"r  c #637573",
"t  c #687776",
"y  c #557D77",
"u  c #5D7F7C",
"i  c #63827E",
"p  c #6A7D7C",
"a  c #5B6D80",
"s  c #435C77",
"d  c #4B5E89",
"f  c #34548F",
"g  c #3B4076",
"h  c #413168",
"j  c #4B3584",
"k  c #59388D",
"l  c #634098",
"z  c #693CA8",
"x  c #7046B8",
"c  c #7843C1",
"v  c #7C4CCA",
"b  c #8453D2",
"n  c #8357D9",
"m  c #8A57DD",
"M  c #8A5BE3",
"N  c #955DE7",
"B  c #847DDE",
"V  c #7295D5",
"C  c #7697D3",
"Z  c #7293D0",
"A  c #688BBE",
"S  c #6182BF",
"D  c #5E7DC8",
"F  c #5B7BBB",
"G  c #4B6CAF",
"H  c #4F71A0",
"J  c #5376A9",
"K  c #5C7FAC",
"L  c #6187A9",
"P  c #5F8C95",
"I  c #5F8D8B",
"U  c #618885",
"Y  c #678B89",
"T  c #698D8B",
"R  c #6E8A87",
"E  c #6F8684",
"W  c #718E8A",
"Q  c #768B89",
"!  c #7B8A89",
"~  c #7B8B8B",
"^  c #7D8E8D",
"/  c #898F8C",
"(  c #A29488",
")  c #8F938F",
"_  c #809290",
"`  c #7B9593",
"'  c #7A9390",
"]  c #729491",
"[  c #6E9894",
"{  c #719C96",
"}  c #799C98",
"|  c #7C9C97",
" . c #859897",
".. c #829D97",
"X. c #7E9F9A",
"o. c #77A09B",
"O. c #75A29E",
"+. c #79A6A0",
"@. c #7FA7A2",
"#. c #80A3AB",
"$. c #82A4A5",
"%. c #82A4A1",
"&. c #83A29E",
"*. c #88A29E",
"=. c #8CA19D",
"-. c #8AA5A1",
";. c #87A6A3",
":. c #82A9A4",
">. c #7EACA6",
",. c #84AEA7",
"<. c #82B0AA",
"1. c #7FB2AE",
"2. c #80ACBA",
"3. c #85B2B3",
"4. c #88B5B0",
"5. c #88B8B0",
"6. c #8AB7B1",
"7. c #8DB5B1",
"8. c #8FB4AF",
"9. c #8FB1AD",
"0. c #8CAFAB",
"q. c #87ACA9",
"w. c #8AAAA6",
"e. c #8FA6A4",
"r. c #8FACA1",
"t. c #95AAA4",
"y. c #9AAFA3",
"u. c #94ACAB",
"i. c #96AFAF",
"p. c #9DB1B0",
"a. c #99B2B0",
"s. c #95B4AF",
"d. c #93B9B1",
"f. c #98BAB4",
"g. c #9CBAB6",
"h. c #98BBB7",
"j. c #95BEB8",
"k. c #95BCBB",
"l. c #90B5BE",
"z. c #83A3CC",
"x. c #84A7E8",
"c. c #8CB0E7",
"v. c #96B7EA",
"b. c #9EC5DB",
"n. c #A8D3CE",
"m. c #ADD2CD",
"M. c #AFCFCB",
"N. c #ABCDC8",
"B. c #A8CBC5",
"V. c #ABC7C6",
"C. c #ACB5C8",
"Z. c #A7BBC5",
"A. c #9EC6BE",
"S. c #9CC5BF",
"D. c #99C4BE",
"F. c #96C2BD",
"G. c #9BC0BC",
"H. c #A8BEBA",
"J. c #ADBEB2",
"K. c #ABB8AB",
"L. c #A8B4A8",
"P. c #ACB3A7",
"I. c #CAA498",
"U. c #CDA598",
"Y. c #CEAA9D",
"T. c #D6BBAB",
"R. c #DBC0B0",
"E. c #CCC4B5",
"W. c #C4C6B7",
"Q. c #C5CABE",
"!. c #C7D4CF",
"~. c #BFD8D4",
"^. c #B6DAD5",
"/. c #B1D8D3",
"(. c #ADDBD4",
"). c #AEDFD8",
"_. c #B0E2DA",
"`. c #B7E0DA",
"'. c #BADED9",
"]. c #BEDDDA",
"[. c #C0DFDB",
"{. c #C1E3DE",
"}. c #C0E5E0",
"|. c #BCE6E0",
" X c #BDE8E2",
".X c #C1E7E2",
"XX c #C0E8E3",
"oX c #C2EAE5",
"OX c #C5EBE5",
"+X c #C6EDE7",
"@X c #C6EFE8",
"#X c #C9ECE8",
"$X c #CBE9E6",
"%X c #D1E7DC",
"&X c #D7E5D1",
"*X c #D9E8D3",
"=X c #DFECD6",
"-X c #E1EED7",
";X c #E5EED6",
":X c #EAF0DA",
">X c #F5F2DC",
",X c #EFF4DE",
"<X c #DDF1E6",
"1X c #D3EEEA",
"2X c #CFEEEA",
"3X c #CBEEEB",
"4X c #C8EEF1",
"5X c #C9F0EE",
"6X c #CAF1EB",
"7X c #CBF2EC",
"8X c #CBF3EE",
"9X c #CCF3EE",
"0X c #CEF3EE",
"qX c #D2F2EE",
"wX c #D2F4EE",
"eX c #D0F5EF",
"rX c #CCF6F0",
"tX c #CCF5F0",
"yX c #CDF2F1",
"uX c #CFF5F1",
"iX c #D0F8F3",
"pX c #CEF9F3",
"aX c #D1F9F3",
"sX c #D2F9F2",
"dX c #D2F7F2",
"fX c #D4F6F3",
"gX c #D5F8F4",
"hX c #D4FBF5",
"jX c #D4FCF6",
"kX c #D2FCF6",
"lX c #D3FEF9",
"zX c #D6FDF8",
"xX c #D6FDF7",
"cX c #D9FCF7",
"vX c #DBFBF5",
"bX c #DAFCF6",
"nX c #DAFEF7",
"mX c #D9FEF8",
"MX c #D8FEFB",
"NX c #D9FEFC",
"BX c #DAFEFB",
"VX c #DCFEFC",
"CX c #DEFEFE",
"ZX c #DEFEFA",
"AX c #E0FEFB",
"SX c #E1FEFE",
"DX c #E3FEFE",
"FX c #E7FEFE",
"GX c #E9FEFE",
"HX c #ECFEFE",
"JX c #EFFEFE",
"KX c #F3FEFE",
"LX c #F7FEFE",
"PX c #FEFEF8",
"IX c #FEFEF1",
"UX c None",
/* pixels */
"UXUXUXUXUXUXUXUXUXUXUXUXUXUXUXUXUXUXUXUXUXUXUXUXUXUXUXUXUXUXUXUXUXUXUXUXUXUXUXUXUXUXUXUXUXUXUXUXUXUXUXUXUXUXUX",
"UXUXUXUXUXUXUXUXUXUXUXUXUXUXUXUXUXUXUXUXUXUXUXUXUXUXUXUXUXUXUXUXUXUXUXUXUXUXUXUXUXUXUXUXUXUXUXUXUXUXUXUXUXUXUX",
"UXUXUXUXUXUXUXUXUXUXUXUXUXUXUXUXUXUXUXUXUXUXUXUXUXUXUXUXUXUXUXUXUXUXUXUXUXUXUXUXUXUXUXUXUXUXUXUXUXUXUXUXUXUXUX",
"UXUXUXUXUXUXUXUXUXUXUXUXUXUXUXUXUXUXUXUXUXUXUXUXUXUXUXUXUXUXUXUXUXUXUXUXUXUXUXUXUXUXUXUXUXUXUXUXUXUXUXUXUXUXUX",
"UXUXUXUXUXUXUXUXUXUXUXUXUXUXUXUXUXUXUXUXUXUXUXUXUXUXUXUXUXUXUXUXUXUXUXUXUXUXUXUXUXUXUXUXUXUXUXUXUXUXUXUXUXUXUX",
"UXUXUXUXUXUXUXUXUXUXUXUXUXUXUXUXUXUXUXUXUXUXUXUXUXUXUXUXUXUXUXUXUXUXUXUXUXUXUXUXUXUXUXUXUXUXUXUXUXUXUXUXUXUXUX",
"UXUXUXUXUXUXUXUXUXUXUXUXUXUXUXUXUXUXUXUXUXUXUXUXUXUXUXUXUXUXUXUXUXUXUXUXUXUXUXUXUXUXUXUXUXUXUXUXUXUXUXUXUXUXUX",
"UXUXUXUXUXUXUXUXUXUXUXUXUXUXUXUXUXUXUXUXUXUXUXUXUXUXUXUXUXUXUXUXUXUXUXUXUXUXUXUXUXUXUXUXUXUXUXUXUXUXUXUXUXUXUX",
"UXUXUXUXUXUXUXUXUXUXUXUXUXUXUXUXUXUXUXUXUXUXUXUXUXUXUXUXUXUXUXUXUXUXUXUXUXUXUXUXUXUXUXUXUXUXUXUXUXUXUXUXUXUXUX",
"UXUXUXUXUXUXUXUXUXUXUXUXUXUXUXUXUXUXUXUXUXUXUXUXUXUXUXUXUXUXUXUXUXUXUXUXUXUXUXUXUXUXUXUXUXUXUXUXUXUXUXUXUXUXUX",
"UXUXUXUXUXUXUXUXUXUXUXUXUXUXUXUXUXUXUXUXUXUXUXUXUXUXUXUXUXUXUXUXUXUXUXUXUXUXUXUXUXUXUXUXUXUXUXUXUXUXUXUXUXUXUX",
"UXUXUXUXUXUXUXUXUXUXUXUXUXUXUXUXUXUXUXUXUXUXUXUXUXUXUXUXUXUXUXUXUXUXUXUXUXUXUXUXUXUXUXUXUXUXUXUXUXUXUXUXUXUXUX",
"UXUXUXUXUXUXUXUXUXUXUXUXUXUXUXUXUXUXUXUXUXUXUXUXUXUXUXUXUXUXUXUXUXUXUXUXUXUXUXUXUXUXUXUXUXUXUXUXUXUXUXUXUXUXUX",
"UXUXUXUXUXUXUXUXUXUXUXUXUXUXUXUXUXUXUXUXUXUXUXUXUXUXUXUXUXUXUXUXUXUXUXUXUXUXUXUXUXUXUXUXUXUXUXUXUXUXUXUXUXUXUX",
"UXUXUXUXUXUXUXUXUXUXUXUXUXUXUXUXUXUXUXUXUXUXUXUXUXUXUXUXUXUXUXUXUXUXUXUXUXUXUXUXUXUXUXUXUXUXUXUXUXUXUXUXUXUXUX",
"UXUXUXUXUXUXUXUXUXUXUXUXUXUXUXUXUXUXUXUXUXUXUXUXUXUXUXUXUXUXUXUXUXUXUXUXUXUXUXUXUXUXUXUXUXUXUXUXUXUXUXUXUXUXUX",
"UXUXUXUXUXUXUXUXUXUXUXUXUXUXUXUXUXUXUXUXUXUXUXUXUXUXUXUXUXUXUXUXUXUXUXUXUXUXUXUXUXUXUXUXUXUXUXUXUXUXUXUXUXUXUX",
"UXUXUXUXUXUXUXUXUXUXUXUXUXUXUXUXUXUXUXUXUXUXUXUXUXUXUXUXUXUXUXUXUXUXUXUXUXUXUXUXUXUXUXUXUXUXUXUXUXUXUXUXUXUXUX",
"UXUXUXUXUXUXUXUXUXUXUXUXUXUXUXUXUXUXUXUXUXUXUXUXUXUXUXUXUXUXUXUXUXUXUXUXUXUXUXUXUXUXUXUXUXUXUXUXUXUXUXUXUXUXUX",
"UXUXUXUXUXUXUXUXUXUXUXUXUXUXUXUXUXUXUXUXUXUXUXUXUXUXUXUXUXUXUXUXUXUXUXUXUXUXUXUXUXUXUXUXUXUXUXUXUXUXUXUXUXUXUX",
"UXUXUXUXUXUXUXUXUXUXUXUXUXUXUXUXUXUXUXUXUXUXUXUXUXUXUXUXUXUXUXUXUXUXUXUXUXUXUXUXUXUXUXUXUXUXUXUXUXUXUXUXUXUXUX",
"UXUXUXUXUXUXUXUXUXUXUXUXUXUXUXUXUXUXUXUXUXUXUXUXt 0.%.;.&.&.%.@.} @ UXUXUXUXUXUXUXUXUXUXUXUXUXUXUXUXUXUXUXUXUX",
"UXUXUXUXUXUXUXUXUXUXUXUXUXUXUXUXUXUXUXUXUXUX0 M.`.aXaXOXBXmXBX@X|.tX/.w UXUXUXUXUXUXUXUXUXUXUXUXUXUXUXUXUXUXUX",
"UXUXUXUXUXUXUXUXUXUXUXUXUXUXUXUXUXUXUXUXUX` pXcX`.XX+X.XeXtX9X@X6XkX_.FXw.UXUXUXUXUXUXUXUXUXUXUXUXUXUXUXUXUXUX",
"UXUXUXUXUXUXUXUXUXUXUXUXUXUXUXUXUXUXUXUX3 lX(.#X3XiX'.X.| ` f.xXXX@.>.,.lX9 UXUXUXUXUXUXUXUXUXUXUXUXUXUXUXUXUX",
"UXUXUXUXUXUXUXUXUXUXUXUXUXUXUXUXUXUXUXUX2 CXtXOX9X^.=.*X-X;XJ.q.d.W.( W.g.- UXUXUXUXUXUXUXUXUXUXUXUXUXUXUXUXUX",
"UXUXUXUXUXUXUXUXUXUXUXUXUXUXUXUXUXUXUXUX1 nXzX7X|.| ,XI.> T.PXy.L.: X > :X3 UXUXUXUXUXUXUXUXUXUXUXUXUXUXUXUXUX",
"UXUXUXUXUXUXUXUXUXUXUXUXUXUXUXUXUXUXUXUXUXe jXBX X-.>XX X o IX&Xt o X : PXr UXUXUXUXUXUXUXUXUXUXUXUXUXUXUXUXUX",
"UXUXUXUXUXUXUXUXUXUXUXUXUXUXUXUXUXUXUXUXUXUX# ] 0.u K.U.> R.-XW [.p.) !.t.+ UXUXUXUXUXUXUXUXUXUXUXUXUXUXUXUXUX",
"UXUXUXUXUXUXUXUXUXUXUXUXUXUXUXUXUXUXUXUXUXUXUX+ 4 5 6 r.r.y.i 4 m.DX6.6 R @.w UXUXUXUXUXUXUXUXUXUXUXUXUXUXUXUX",
"UXUXUXUXUXUXr W 8 UXUXUXUXUXUXUXUXUXUXUXUXUXUXi.@.{ [ I I I [ y :.mX#Xy ` n.} UXUXUXUXUXUXUXUXUXUXUXUXUXUXUXUX",
"UXUXUXUXUX! FXSX0X9 UXUXUXUXUXUXUXUXUXUXUXUXUX-.q.O.<.>.<.>.:.U 0.dXBX} - 3 1 UXUXUXUXUXUXUXUXUXUXUXUXUXUXUXUX",
"UXUXUXUX~ DXZXmXDXeX8 UXUXUXUXUXUXUXUXUX@ UXUXUXUXUX# 1.I + UXUX;.mXNXi UXUXUXUXUXUXUXUXUXUXUXUX= e.E UXUXUXUX",
"UXUXUX^ FXvXu. .V.HXmX9 UXUXUXUXUXUX2 s.DX&.UXUXUXUXw k.< UXUXUXX.BXjX{ 6 UXUXUXUXUXUXUXUXUXUX` BXGXDX~ UXUXUX",
"UXUXQ FXFX` UXUX$ e AXVX8 UXUXUXUXq DXNXM.NX;.UXUXUXj.R UXUXUXUXX.BXjX{ B.[.% UXUXUXUXUXUXUX_ LX{.V.bXFX^ UXUX",
"UX2 FXGX~ UXUXUXUXUXq CXnX7 O   e FXf.3 UXe JXp.# $ o.7.=.UXUXO 9.FXDXi @ 2X[.UXUXUXUXUXUX .LX_ % UX` HXGX< UX",
"UXa.GXQ UXUXUXUXUXUXUX0 AXvX~.{.AX=.UXUXUXUXt V.w.a j l C...9 S.T ;.-.UXUX< 1X].8 UXUXUX-.LXt UXUXUXUX^ KXp.UX",
"0 ZXu.UXUXUXUXUXUXUXUXUXq AXKXxX..UXUXUXUXUXUXUXUX+ x N z a y 6 % UXUXUXUXUX1 $XFXf.s.B.GXp UXUXUXUXUXUXt.vX9 ",
"R FX2 UXUXUXUXUXUXUXUXUXUXq X.1 UXUXUXUXUXUXUXUXUXUXx M m l UXUXUXUXUXUXUXUXUX< [.KXGXDXr UXUXUXUXUXUXUX3 qXi ",
"r e.UXUXUXUXUXUXUXUXUXUXUXUXUXUXUXUXUXUXUXUXUXUXUXUXx M n N k UXUXUXUXUXUXUXUXUX< H.e.% UXUXUXUXUXUXUXUXUX].R ",
"UXUXUXUXUXUXUXUXUXUXUXUXUXUXUXUXUXUXUXUXUXUXUXUXUXUXz m n n v h = - - - - - - = UXUXUXUXUXUXUXUXUXUXUXUXUX0 7 ",
"UXUXUXUXUXUXUXUXUXUXUXUXUXUXUXUXUXUXUXO = u u # @ $ h j b n m k 6.5.4.4.6.4.O.F.0.0 UXUXUXUXUXUXUXUXUXUXUXUXUX",
"UXUXUXUXUXUXUXUXUXUXUXUXUXUXUXUXUXUX;.,.o.@.<. Xm.q.d.d c N v h :.:.$.$.%.q./.j.+.).1 UXUXUXUXUXUXUXUXUXUXUXUX",
"UXUXUXUXUXUXUXUXUXUXUXUXUXUXUXUXUXX.j.8.B.gXg.p 8 UXUX$ j k h UXUXUXUXUXUXUX9.CX X6 UXUXUXUXUXUXUXUXUXUXUXUXUX",
"UXUXUXUXUXUXUXUXUXUXUXUXUXUXUXUX@ { d.FX#X3 UXUXUXUXUXUXUXUXUXUXUXUXUXUXUXUXw.FXh.UXUXUX* s UXUXUXUXUXUXUXUXUX",
"UXUXUXUXUXUXUXUXUXUXUXUXUXUXUX* UX- O.oXdXr UXUXUXUXUXUXUXUXUXUXUXUXUXUXUXa.JXj.O UXs K L S + UXUXUXUXUXUXUXUX",
"UXUXUXUXUXUXUXUXUXUXUXUXUXUX* V s T 5 ] OXDXp UXUXUXUXUXUXUXUXUXUXUXUXUXi.DXk.y w 4 A G K A + UXUXUXUXUXUXUXUX",
"UXUXUXUXUXUXUXUXUXUXUXUXUXUX& V J v.} 5 Y .XCXp UXUXUXUXUXUXUXUXUXUXUX9.SX.XU T O.2.c.C J C + UXUXUXUXUXUXUXUX",
"UXUXUXUXUXUXUXUXUXUXUXUXUXUXs Z f D 4XX.6 i wXVXp UXUXUXUXUXUXUXUXUXa.SX8X6XsXmXgXz.D c.H F UXUXUXUXUXUXUXUXUX",
"UXUXUXUXUXUXUXUXUXUXUXUXUXUX* d L x.Z zXxXiXhXCXfX% UXUXUXUXUXUXUXUX' MXrXtXrXsXyXC F s s * UXUXUXUXUXUXUXUXUX",
"UXUXUXUXUXUXUXUXUXUXUXUXUXUXUX+ $ H f #.A.G.S.;.% UXUXUXUXUXUXUXUXUXUX% % % % % # & & UXUXUXUXUXUXUXUXUXUXUXUX",
"UXUXUXUXUXUXUXUXUXUXUXUXUXUXUXUXUXUXUXUXUXUXUXUXUXUXUXUXUXUXUXUXUXUXUXUXUXUXUXUXUXUXUXUXUXUXUXUXUXUXUXUXUXUXUX",
"UXUXUXUXUXUXUXUXUXUXUXUXUXUXUXUXUXUXUXUXUXUXUXUXUXUXUXUXUXUXUXUXUXUXUXUXUXUXUXUXUXUXUXUXUXUXUXUXUXUXUXUXUXUXUX",
"UXUXUXUXUXUXUXUXUXUXUXUXUXUXUXUXUXUXUXUXUXUXUXUXUXUXUXUXUXUXUXUXUXUXUXUXUXUXUXUXUXUXUXUXUXUXUXUXUXUXUXUXUXUXUX",
"UXUXUXUXUXUXUXUXUXUXUXUXUXUXUXUXUXUXUXUXUXUXUXUXUXUXUXUXUXUXUXUXUXUXUXUXUXUXUXUXUXUXUXUXUXUXUXUXUXUXUXUXUXUXUX"
};
