/* XPM */
static char *_3234e8f59d44dafbda7aba5bce00455rk8r6oPUre5tGSpP_10[] = {
/* columns rows colors chars-per-pixel */
"55 55 256 2 ",
"   c #02030A",
".  c #3C0108",
"X  c #6F020A",
"o  c #6E2025",
"O  c #852E32",
"+  c #3C2A2C",
"@  c #162827",
"#  c #152C3B",
"$  c #213A43",
"%  c #253838",
"&  c #2C403F",
"*  c #2B4945",
"=  c #304746",
"-  c #364648",
";  c #344D4B",
":  c #3D4E4D",
">  c #385251",
",  c #655351",
"<  c #935552",
"1  c #6F5B58",
"2  c #4F605E",
"3  c #495E5D",
"4  c #40625E",
"5  c #425C5A",
"6  c #3A5A56",
"7  c #455654",
"8  c #3F5252",
"9  c #3A4F5F",
"0  c #2F4774",
"q  c #2C455F",
"w  c #2C3E64",
"e  c #412D63",
"r  c #463668",
"t  c #3A5899",
"y  c #3D5D9A",
"u  c #48628A",
"i  c #445E80",
"p  c #425C75",
"a  c #485C70",
"s  c #4C6969",
"d  c #556968",
"f  c #566F6B",
"g  c #51726F",
"h  c #5B7572",
"j  c #607371",
"k  c #617775",
"l  c #5E7D7A",
"z  c #6A7E7C",
"x  c #66817E",
"c  c #638481",
"v  c #5F8782",
"b  c #688683",
"n  c #6E8484",
"m  c #6E8985",
"M  c #698D87",
"N  c #66908B",
"B  c #638B89",
"V  c #5D818B",
"C  c #54708E",
"Z  c #4A6A98",
"A  c #4D709E",
"S  c #59789D",
"D  c #567BA7",
"F  c #5375BE",
"G  c #597BC7",
"H  c #5F80C7",
"J  c #6080B8",
"K  c #6281A8",
"L  c #658BAC",
"P  c #6C8AAD",
"I  c #81909E",
"U  c #AA8E8C",
"Y  c #898F8E",
"T  c #818F8E",
"R  c #7B918F",
"E  c #798D8B",
"W  c #748E8B",
"Q  c #71948E",
"!  c #769591",
"~  c #709794",
"^  c #719A97",
"/  c #7A9B96",
"(  c #829D98",
")  c #869F9A",
"_  c #7DA19C",
"`  c #759F9B",
"'  c #76A29F",
"]  c #7BA5A0",
"[  c #80A7A3",
"{  c #81A1A6",
"}  c #85A6A2",
"|  c #87A399",
" . c #8DA9A0",
".. c #8EA8A5",
"X. c #8AA9A5",
"o. c #84ABA6",
"O. c #81AEA8",
"+. c #85B0A8",
"@. c #8AAFAA",
"#. c #8FADAA",
"$. c #92B0AC",
"%. c #8DB2AD",
"&. c #87B2AE",
"*. c #8AB7B1",
"=. c #8CB7B3",
"-. c #8FBAB6",
";. c #91BDBC",
":. c #96BCCB",
">. c #9BBEBB",
",. c #99BDB6",
"<. c #95B9B3",
"1. c #98B5B2",
"2. c #99B4AF",
"3. c #9DB1AD",
"4. c #A2B3B3",
"5. c #A6B0B8",
"6. c #97ADC1",
"7. c #89A9CA",
"8. c #83A3C5",
"9. c #7597BC",
"0. c #7297CD",
"q. c #6C90D8",
"w. c #7195E2",
"e. c #789BDD",
"r. c #7B9FDF",
"t. c #81A5E2",
"y. c #82A6EB",
"u. c #8AAFEE",
"i. c #92B9EC",
"p. c #96BBF9",
"a. c #9EC4E3",
"s. c #A5CADE",
"d. c #A5D8D3",
"f. c #9ED0C9",
"g. c #A3CAC4",
"h. c #9ECAC4",
"j. c #9BC6C1",
"k. c #9CC4BE",
"l. c #A1C7BE",
"z. c #A9C3BD",
"x. c #AFC1BB",
"c. c #B0BCC8",
"v. c #AAC9C6",
"b. c #B2CCC8",
"n. c #AAD0C9",
"m. c #ACD2CD",
"M. c #BBD4CE",
"N. c #B3D5D1",
"B. c #B3D8DB",
"V. c #B7DAF6",
"C. c #B6DCEA",
"Z. c #BADEE0",
"A. c #BBDCD6",
"S. c #B9DFD8",
"D. c #B4E4DD",
"F. c #C1E2DE",
"G. c #BCE5DF",
"H. c #BFE8E1",
"J. c #C2EAE4",
"K. c #C4EDE8",
"L. c #C6E7F1",
"P. c #CDECEA",
"I. c #CCEFE9",
"U. c #C8F1EA",
"Y. c #CBF2EC",
"T. c #CFF2EB",
"R. c #CCF3EE",
"E. c #C3F6EE",
"W. c #C6F9F0",
"Q. c #CAF7EF",
"!. c #CAF6EF",
"~. c #CCF7F1",
"^. c #CEF6F1",
"/. c #D0F4F7",
"(. c #D4F6F1",
"). c #D2F8F2",
"_. c #D2FAF4",
"`. c #CFFBF4",
"'. c #CCFCF3",
"]. c #CEFDF5",
"[. c #CFFEF7",
"{. c #D1FEF9",
"}. c #D2FDF7",
"|. c #D4FCF6",
" X c #D6FBF6",
".X c #D6FCF7",
"XX c #D6FEF6",
"oX c #D6FEF8",
"OX c #D7FEF9",
"+X c #D9FEF7",
"@X c #D9FEFA",
"#X c #DBFDF8",
"$X c #DEF9F5",
"%X c #DEF6F2",
"&X c #DFFBF6",
"*X c #E0FEF7",
"=X c #DEFEFC",
"-X c #DCFEFE",
";X c #DEFEFE",
":X c #E0FEFE",
">X c #E2FEFE",
",X c #E5FEFE",
"<X c #E6FDFB",
"1X c #E8FEFE",
"2X c #EAFEFE",
"3X c #EDFEFE",
"4X c #F2FEFE",
"5X c #F7FEF9",
"6X c #FAFDF4",
"7X c #FDFAF0",
"8X c #F9F5EB",
"9X c #F2F5EC",
"0X c #E7F2EB",
"qX c #E5F1EA",
"wX c #F5EBE3",
"eX c #FAE8E0",
"rX c #ECE7DE",
"tX c #E0E5DC",
"yX c #D9E1D9",
"uX c #D2DDD6",
"iX c #D0DAD2",
"pX c #E6D8CE",
"aX c #D9D2C9",
"sX c #D8CFC6",
"dX c #DACAC1",
"fX c #DBBFB8",
"gX c #D5B2AD",
"hX c #CFA7A0",
"jX c #D49EAB",
"kX c #F166EC",
"lX c #F65EF6",
"zX c #EF57EF",
"xX c #EA5AEC",
"cX c #E857E8",
"vX c #E755E7",
"bX c #E454E4",
"nX c #E153E1",
"mX c #DE54E0",
"MX c #DC53DD",
"NX c #D14DD8",
"BX c #CB49D5",
"VX c #C84BD0",
"CX c #BE4AC8",
"ZX c #B947C7",
"AX c #B644C4",
"SX c #AF3BBE",
"DX c #A739B8",
"FX c #9739AC",
"GX c #85389E",
"HX c #7D3897",
"JX c #77308C",
"KX c #6B3585",
"LX c #6A4B85",
"PX c #5F3C7A",
"IX c #583373",
"UX c None",
/* pixels */
"UXUXUXUXUXUXUXUXUXUXUXUXUXUXUXUXUXUXUXUXUXUXUXUXUXUXUXUXUXUXUXUXUXUXUXUXUXUXUXUXUXUXUXUXUXUXUXUXUXUXUXUXUXUXUX",
"UXUXUXUXUXUXUXUXUXUXUXUXUXUXUXUXUXUXUXUXUXUXUXUXUXUXUXUXUXUXUXUXUXUXUXUXUXUXUXUXUXUXUXUXUXUXUXUXUXUXUXUXUXUXUX",
"UXUXUXUXUXUXUXUXUXUXUXUXUXUXUXUXUXUXUXUXUXUXUXUXUXUXUXUXUXUXUXUXUXUXUXUXUXUXUXUXUXUXUXUXUXUXUXUXUXUXUXUXUXUXUX",
"UXUXUXUXUXUXUXUXUXUXUXUXUXUXUXUXUXUXUXUXUXUXUXUXUXUXUXUXUXUXUXUXUXUXUXUXUXUXUXUXUXUXUXUXUXUXUXUXUXUXUXUXUXUXUX",
"UXUXUXUXUXUXUXUXUXUXUXUXUXUXUXUXUXUXUXUXUXUXUXUXUXUXUXUXUXUXUXUXUXUXUXUXUXUXUXUXUXUXUXUXUXUXUXUXUXUXUXUXUXUXUX",
"UXUXUXUXUXUXUXUXUXUXUXUXUXUXUXUXUXUXUXUXUXUXUXUXUXUXUXUXUXUXUXUXUXUXUXUXUXUXUXUXUXUXUXUXUXUXUXUXUXUXUXUXUXUXUX",
"UXUXUXUXUXUXUXUXUXUXUXUXUXUXUXUXUXUXUXUXUXUXUXUXUXUXUXUXUXUXUXUXUXUXUXUXUXUXUXUXUXUXUXUXUXUXUXUXUXUXUXUXUXUXUX",
"UXUXUXUXUXUXUXUXUXUXUXUXUXUXUXUXUXUXUXUXUXUXUXUXUXUXUXUXUXUXUXUXUXUXUXUXUXUXUXUXUXUXUXUXUXUXUXUXUXUXUXUXUXUXUX",
"UXUXUXUXUXUXUXUXUXUXUXUXUXUXUXUXUXUXUXUXUXUXUXUXUXUXUXUXUXUXUXUXUXUXUXUXUXUXUXUXUXUXUXUXUXUXUXUXUXUXUXUXUXUXUX",
"UXUXUXUXUXUXUXUXUXUXUXUXUXUXUXUXUXUXUXUXUXUXUXUXUXUXUXUXUXUXUXUXUXUXUXUXUXUXUXUXUXUXUXUXUXUXUXUXUXUXUXUXUXUXUX",
"UXUXUXUXUXUXUXUXUXUXUXUXUXUXUXUXUXUXUXUXUXUXUXUXUXUXUXUXUXUXUXUXUXUXUXUXUXUXUXUXUXUXUXUXUXUXUXUXUXUXUXUXUXUXUX",
"UXUXUXUXUXUXUXUXUXUXUXUXUXUXUXUXUXUXUXUXUXUXUXUXUXUXUXUXUXUXUXUXUXUXUXUXUXUXUXUXUXUXUXUXUXUXUXUXUXUXUXUXUXUXUX",
"UXUXUXUXUXUXUXUXUXUXUXUXUXUXUXUXUXUXUXUXUXUXUXUXUXUXUXUXUXUXUXUXUXUXUXUXUXUXUXUXUXUXUXUXUXUXUXUXUXUXUXUXUXUXUX",
"UXUXUXUXUXUXUXUXUXUXUXUXUXUXUXUXUXUXUXUXUXUXUXUXUXUXUXUXUXUXUXUXUXUXUXUXUXUXUXUXUXUXUXUXUXUXUXUXUXUXUXUXUXUXUX",
"UXUXUXUXUXUXUXUXUXUXUXUXUXUXUXUXUXUXUXUXUXUXUXUXUXUXUXUXUXUXUXUXUXUXUXUXUXUXUXUXUXUXUXUXUXUXUXUXUXUXUXUXUXUXUX",
"UXUXUXUXUXUXUXUXUXUXUXUXUXUXUXUXUXUXUXUXUXUXUXUXUXUXUXUXUXUXUXUXUXUXUXUXUXUXUXUXUXUXUXUXUXUXUXUXUXUXUXUXUXUXUX",
"UXUXUXUXUXUXUXUXUXUXUXUXUXUXUXUXUXUXUXUXUXUXUXUXUXUXUXUXUXUXUXUXUXUXUXUXUXUXUXUXUXUXUXUXUXUXUXUXUXUXUXUXUXUXUX",
"UXUXUXUXUXUXUXUXUXUXUXUXUXUXUXUXUXUXUXUXUXUXUXUXUXUXUXUXUXUXUXUXUXUXUXUXUXUXUXUXUXUXUXUXUXUXUXUXUXUXUXUXUXUXUX",
"UXUXUXUXUXUXUXUXUXUXUXUXUXUXUXUXUXUXUXUXUXUXUXUXUXUXUXUXUXUXUXUXUXUXUXUXUXUXUXUXUXUXUXUXUXUXUXUXUXUXUXUXUXUXUX",
"UXUXUXUXUXUXUXUXUXUXUXUXUXUXUXUXUXUXUXUXUXUXUXUXUXUXUXUXUXUXUXUXUXUXUXUXUXUXUXUXUXUXUXUXUXUXUXUXUXUXUXUXUXUXUX",
"UXUXUXUXUXUXUXUXUXUXUXUXUXUXUXUXUXUXUXUXUXUXUXUXUXUXUXUXUXUXUXUXUXUXUXUXUXUXUXUXUXUXUXUXUXUXUXUXUXUXUXUXUXUXUX",
"UXUXUXUXUXUXUXUXUXUXUXUXUXUXUXUXUXUXUXUXUXUX% 7 X.[ ] _ } [ _ o.g @ UXUXUXUXUXUXUXUXUXUXUXUXUXUXUXUXUXUXUXUXUX",
"UXUXUXUXUXUXUXUXUXUXUXUXUXUXUXUXUXUXUXUXUXz F.D.H.-XW.D.oX;XG.Q.[.f.c 8 UXUXUXUXUXUXUXUXUXUXUXUXUXUXUXUXUXUXUX",
"UXUXUXUXUXUXUXUXUXUXUXUXUXUXUXUXUXUXUXUXk.'.R.J.G.J._ / W <.}.U.X.( 2.m.f UXUXUXUXUXUXUXUXUXUXUXUXUXUXUXUXUXUX",
"UXUXUXUXUXUXUXUXUXUXUXUXUXUXUXUXUXUXUXb :Xd.G.I.J.( tX9X6Xx.,.#.iX6XtXz.%.UXUXUXUXUXUXUXUXUXUXUXUXUXUXUXUXUXUX",
"UXUXUXUXUXUXUXUXUXUXUXUXUXUXUXUXUXUXUXm ,X~.K.~._ uXfXO < 8X..M.pXO < sX5 UXUXUXUXUXUXUXUXUXUXUXUXUXUXUXUXUXUX",
"UXUXUXUXUXUXUXUXUXUXUXUXUXUXUXUXUXUXUX8 N.,X).[._ 0X< X X gXz.x.< X X U 6 UXUXUXUXUXUXUXUXUXUXUXUXUXUXUXUXUXUX",
"UXUXUXUXUXUXUXUXUXUXUXUXUXUXUXUXUXUXUXUX- / S.D.~ qXhXX O eX3.M ) o O sX8 UXUXUXUXUXUXUXUXUXUXUXUXUXUXUXUXUXUX",
"UXUXUXUXUXUXUXUXUXUXUXUXUXUXUXUXUXUXUXUXUXUX% * 6 x 6XeX7XuXl l.>X1.3.R UXUXUXUXUXUXUXUXUXUXUXUXUXUXUXUXUXUXUX",
"UXUXUXUXUXUXUXUXUXUXUXUXUXUXUXUXUXUXUXUXUXUXUXx ~ B c W n b O.v Y.OXN x ~ _ UXUXUXUXUXUXUXUXUXUXUXUXUXUXUXUXUX",
"UXUXUXUXf m m 8 UXUXUXUXUXUXUXUXUXUXUXUXUXUXk #XO.O.^ B B ] ` v U. Xv.l +.E.c UXUXUXUXUXUXUXUXUXUXUXUXUXUXUXUX",
"UXUX7 b.+X1X1XS.: UXUXUXUXUXUXUXUXUXUXUXUXUXUX7 4 4 l ' ` s 7 h R..Xm.* g _ h UXUXUXUXUXUXUXUXUXUXUXUXUXUXUXUX",
"UX$ 7.V.a.9.Z.:XA.: UXUXUXUXUXUXUXUXUX& UXUXUXUXUXUX% d.s UXUX5 _.OXn.@ 2.4X<XR UXUXUXUXUXUXUXUXUX% R 2.z @ UX",
"UXC w.G y.G e.s.:XS.- UXUXUXUXUXUX& N.;Xx UXUXUXUXUX; -.UXUXUX5 {.|.g.@.I...@X,XR UXUXUXUXUXUXUXk P.*X/.U.m.6 ",
"UXP u $ 9 9 0 H C.:XS.- UXUXUXUX& N.~.N.;X3 UXUXUXUX%./ UXUXUX3 ;X@XN._ f UXT 3X1XE UXUXUXUXUXj (.2XL.H 0.;XM ",
"UXUXUXUXUXUXUX# { :X@XA.: UXUX% A.Y.= UX} v.UXUXUXn o.+.) UXUXUX<.oX} @ UXUXUXT 3X1XT UXUXUXj $X3X3.a 0 0 C f ",
"UXUXUXUXUXUXUXUXUX#.>X,XN.2 E *XF.: UXUXUXb.b.- ,.I IXLXc.| UXUXl v @ UXUXUXUXUXE 1X>X! UXk &X2X4.UXUXUXUXUXUX",
"UXUXUXUXUXUXUXUXUXUX..R.1X4X,XN.: UXUXUXUX2 %XT.|   SXzXFX5. .@.m.5 UXUXUXUXUXUXUXR :X'.<.I.4X4.UXUXUXUXUXUXUX",
"UXUXUXUXUXUXUXUXUXUXUX3 ! ! k UXUXUXUXUXUXUXd E UXUXZXxXvXHX- * % UXUXUXUXUXUXUXUXUXW -X>X:X3.UXUXUXUXUXUXUXUX",
"UXUXUXUXUXUXUXUXUXUXUXUXUXUXUXUXUXUXUXUXUXUXUXUXUXUXZXcXmXxXJXUXUXUXUXUXUXUXUXUXUXUXUX! g.d UXUXUXUXUXUXUXUXUX",
"UXUXUXUXUXUXUXUXUXUXUXUXUXUXUXUXUXUXUXUXUXUXUXUXUXUXDXzXMXvXVXe ; > > > > > ; = UXUXUXUXUXUXUXUXUXUXUXUXUXUXUX",
"UXUXUXUXUXUXUXUXUXUXUXUXUXUXUXUXUXUXUX@ x c 4 # $ $ e CXcXnXnXKX*.*.=.=.&.] h.W.%.3 UXUXUXUXUXUXUXUXUXUXUXUXUX",
"UXUXUXUXUXUXUXUXUXUXUXUXUXUXUXUXUXUX$.h.-.[ j.~.n.@.+.LXBXlXBXr [ o.[ _ 1.H.-.B f.{.: UXUXUXUXUXUXUXUXUXUXUXUX",
"UXUXUXUXUXUXUXUXUXUXUXUXUXUXUXUXUX2.h.[ l.).>.x 2 UXUXUXKXHXIXUXUXUXUXUX: W G.!.j.;.> UXUXUXUXUXUXUXUXUXUXUXUX",
"UXUXUXUXUXUXUXUXUXUXUXUXUXUXUXUX% &.*.OXP.3 UXUXUXUXUXUXUXUXUXUXUXUXUXUXUXUX<.>Xg.c UXUXUXUXUXUXUXUXUXUXUXUXUX",
"UXUXUXUXUXUXUXUXUXUXUXUXUXUXUXq UX4 ' K.^.k UXUXUXUXUXUXUXUXUXUXUXUXUXUXUX$.,Xh.v & UX9 UXK p UXUXUXUXUXUXUXUX",
"UXUXUXUXUXUXUXUXUXUXUXUXUXUXq y.p 7 h B J.,Xl UXUXUXUXUXUXUXUXUXUXUXUXUX$.,X-.B ` 4 C t.S q.w UXUXUXUXUXUXUXUX",
"UXUXUXUXUXUXUXUXUXUXUXUXUXUXq e.D K 6 Q ~ G.;Xz UXUXUXUXUXUXUXUXUXUXUX$.>XH.v N ~ j.i.y D p.i UXUXUXUXUXUXUXUX",
"UXUXUXUXUXUXUXUXUXUXUXUXUXUXp t.y H :.Q g %.+XOXz UXUXUXUXUXUXUXUXUX1.1X!.Y._.|.XXC.r.0.A q.i UXUXUXUXUXUXUXUX",
"UXUXUXUXUXUXUXUXUXUXUXUXUXUX9 Z L p.e.s.XX+X|.;X).- UXUXUXUXUXUXUXUXk n.}.!.~.^.+X7.F L q w UXUXUXUXUXUXUXUXUX",
"UXUXUXUXUXUXUXUXUXUXUXUXUXUXUX# $ K t S l.,.k.} = UXUXUXUXUXUXUXUXUXUXUX* * * * ; $ # UXUXUXUXUXUXUXUXUXUXUXUX",
"UXUXUXUXUXUXUXUXUXUXUXUXUXUXUXUXUXUXUXUXUXUXUXUXUXUXUXUXUXUXUXUXUXUXUXUXUXUXUXUXUXUXUXUXUXUXUXUXUXUXUXUXUXUXUX",
"UXUXUXUXUXUXUXUXUXUXUXUXUXUXUXUXUXUXUXUXUXUXUXUXUXUXUXUXUXUXUXUXUXUXUXUXUXUXUXUXUXUXUXUXUXUXUXUXUXUXUXUXUXUXUX",
"UXUXUXUXUXUXUXUXUXUXUXUXUXUXUXUXUXUXUXUXUXUXUXUXUXUXUXUXUXUXUXUXUXUXUXUXUXUXUXUXUXUXUXUXUXUXUXUXUXUXUXUXUXUXUX",
"UXUXUXUXUXUXUXUXUXUXUXUXUXUXUXUXUXUXUXUXUXUXUXUXUXUXUXUXUXUXUXUXUXUXUXUXUXUXUXUXUXUXUXUXUXUXUXUXUXUXUXUXUXUXUX"
};
