/* XPM */
static char *_3234e8f59d44dafbda7aba5bce00455rk8r6oPUre5tGSpP_11[] = {
/* columns rows colors chars-per-pixel */
"55 55 256 2 ",
"   c black",
".  c #300001",
"X  c #6B0104",
"o  c #6F161B",
"O  c #2C1F21",
"+  c #112223",
"@  c #1B2D32",
"#  c #1D2E46",
"$  c #293737",
"%  c #203B3D",
"&  c #283C4B",
"*  c #2E4443",
"=  c #324646",
"-  c #394646",
";  c #3C4A4A",
":  c #344A4B",
">  c #3D4E4D",
",  c #38504F",
"<  c #394F52",
"1  c #405754",
"2  c #495856",
"3  c #455B5A",
"4  c #42575C",
"5  c #395762",
"6  c #36495C",
"7  c #2E4561",
"8  c #3B396E",
"9  c #3F3061",
"0  c #5D324C",
"q  c #7D3030",
"w  c #833C3A",
"e  c #8F524E",
"r  c #5B5D5C",
"t  c #50615F",
"y  c #4B605F",
"u  c #48615F",
"i  c #4F6563",
"p  c #606564",
"a  c #526B68",
"s  c #4E6D6A",
"d  c #487170",
"f  c #476E69",
"g  c #446670",
"h  c #415B78",
"j  c #465679",
"k  c #504E7D",
"l  c #543E7F",
"z  c #4B4385",
"x  c #47498E",
"c  c #424B96",
"v  c #47599F",
"b  c #5162A7",
"n  c #4668A8",
"m  c #4D71A3",
"M  c #4F74A2",
"N  c #506E9B",
"B  c #486797",
"V  c #505D8E",
"C  c #4F6C8C",
"Z  c #546A87",
"A  c #576C77",
"S  c #556D6F",
"D  c #566C6A",
"F  c #5B6A6C",
"G  c #5A6E6D",
"H  c #5E7372",
"J  c #607474",
"K  c #5A7572",
"L  c #527674",
"P  c #5C7774",
"I  c #627876",
"U  c #627A78",
"Y  c #5C7C79",
"T  c #577C7C",
"R  c #58837F",
"E  c #61827E",
"W  c #64807E",
"Q  c #6E807F",
"!  c #6A8481",
"~  c #628783",
"^  c #5D8886",
"/  c #678985",
"(  c #728886",
")  c #788A87",
"_  c #758D89",
"`  c #708E8A",
"'  c #698F8A",
"]  c #68928E",
"[  c #6F9490",
"{  c #74908D",
"}  c #78908D",
"|  c #79948E",
" . c #7B9692",
".. c #809995",
"X. c #7F9595",
"o. c #828F8F",
"O. c #977E7D",
"+. c #AF6C69",
"@. c #A77D73",
"#. c #B68D82",
"$. c #C49D91",
"%. c #C2A698",
"&. c #ADAEA0",
"*. c #A2B2A3",
"=. c #A0B6AC",
"-. c #A2B8B0",
";. c #A0BBB9",
":. c #9DBFBB",
">. c #98BEB8",
",. c #93C0BA",
"<. c #93BBB7",
"1. c #8DBAB4",
"2. c #89B4B7",
"3. c #8EB6B2",
"4. c #93B5B1",
"5. c #8DB2AD",
"6. c #92AFAB",
"7. c #8EADAA",
"8. c #88AEAA",
"9. c #88ACA7",
"0. c #8EA8A4",
"q. c #8EA79E",
"w. c #95A69A",
"e. c #8D9D99",
"r. c #85A49F",
"t. c #82A7A1",
"y. c #80A7A2",
"u. c #80AAA8",
"i. c #7DA8A6",
"p. c #79A4A1",
"a. c #7EA39E",
"s. c #7F9F9C",
"d. c #7BA09C",
"f. c #74A19B",
"g. c #779D98",
"h. c #739996",
"j. c #6E949D",
"k. c #658AA9",
"l. c #5F86AD",
"z. c #5B7BB6",
"x. c #5372B1",
"c. c #506DB8",
"v. c #566EBB",
"b. c #5F79C4",
"n. c #617FC8",
"m. c #5E81D1",
"M. c #6788CC",
"N. c #7293D1",
"B. c #7197D7",
"V. c #6697DA",
"C. c #5A98DD",
"Z. c #5D96E0",
"A. c #619BE2",
"S. c #639EE7",
"D. c #64A3EC",
"F. c #6CA4F2",
"G. c #70A3F6",
"H. c #7CA1ED",
"J. c #7FA2E0",
"K. c #86A7EB",
"L. c #89ADE4",
"P. c #97B8E2",
"I. c #9CC4CE",
"U. c #9DC8C4",
"Y. c #9DC4BE",
"T. c #A4C3C2",
"R. c #A5C0BD",
"E. c #A9BDBC",
"W. c #B2C1B4",
"Q. c #BEB8AE",
"!. c #D1C3B3",
"~. c #C8CFBC",
"^. c #C2CDC1",
"/. c #B1C8C5",
"(. c #ACCEC9",
"). c #A8CCC6",
"_. c #A3CCC6",
"`. c #A6CEC9",
"'. c #AAD3CD",
"]. c #AED4D0",
"[. c #A9D7D2",
"{. c #AFDAD5",
"}. c #B3D7D3",
"|. c #B8DAD5",
" X c #B8DBD6",
".X c #B9DCD8",
"XX c #BCDDD9",
"oX c #BAE1DC",
"OX c #B6E4DD",
"+X c #BCE4DE",
"@X c #BCE7E1",
"#X c #BEE3E7",
"$X c #C4E3DF",
"%X c #C3DFDB",
"&X c #CCDFCF",
"*X c #DCE3D1",
"=X c #EAE3D2",
"-X c #F2E6D2",
";X c #D6E9DE",
":X c #C6EBE5",
">X c #C4EBE5",
",X c #C2EAE5",
"<X c #C0ECE5",
"1X c #C2EDE8",
"2X c #C4EEE8",
"3X c #C8ECE7",
"4X c #CAEDE8",
"5X c #CBEEE9",
"6X c #C7EEE9",
"7X c #C7EFEA",
"8X c #CAF0EA",
"9X c #CFEFEA",
"0X c #CAF1EC",
"qX c #CAF3ED",
"wX c #CBF3ED",
"eX c #CBF4EE",
"rX c #CBF5F0",
"tX c #CDF5F2",
"yX c #D0F6F0",
"uX c #CFF7F1",
"iX c #CFFAF2",
"pX c #D1F9F2",
"aX c #D4F7F2",
"sX c #D5F6F2",
"dX c #D9F4F1",
"fX c #D9F8F3",
"gX c #D9F9F4",
"hX c #D7FAF4",
"jX c #D8FCF5",
"kX c #D5FBF5",
"lX c #D3FCF5",
"zX c #D3FDF6",
"xX c #D4FDF5",
"cX c #D5FDF8",
"vX c #D7FCF8",
"bX c #D9FEF9",
"nX c #D7FEFA",
"mX c #D8FEFD",
"MX c #DAFEFE",
"NX c #DCFEFE",
"BX c #DCFEFC",
"VX c #DFFEF8",
"CX c #E0FEFA",
"ZX c #E1FEFE",
"AX c #E2FEFE",
"SX c #E5FEFE",
"DX c #E8FEFE",
"FX c #EAFEFE",
"GX c #ECFEFE",
"HX c #EFFEFE",
"JX c #EFFBF2",
"KX c #F2F7E3",
"LX c #FDFDEA",
"PX c #FEFEF4",
"IX c #FEFEFD",
"UX c None",
/* pixels */
"UXUXUXUXUXUXUXUXUXUXUXUXUXUXUXUXUXUXUXUXUXUXUXUXUXUXUXUXUXUXUXUXUXUXUXUXUXUXUXUXUXUXUXUXUXUXUXUXUXUXUXUXUXUXUX",
"UXUXUXUXUXUXUXUXUXUXUXUXUXUXUXUXUXUXUXUXUXUXUXUXUXUXUXUXUXUXUXUXUXUXUXUXUXUXUXUXUXUXUXUXUXUXUXUXUXUXUXUXUXUXUX",
"UXUXUXUXUXUXUXUXUXUXUXUXUXUXUXUXUXUXUXUXUXUXUXUXUXUXUXUXUXUXUXUXUXUXUXUXUXUXUXUXUXUXUXUXUXUXUXUXUXUXUXUXUXUXUX",
"UXUXUXUXUXUXUXUXUXUXUXUXUXUXUXUXUXUXUXUXUXUXUXUXUXUXUXUXUXUXUXUXUXUXUXUXUXUXUXUXUXUXUXUXUXUXUXUXUXUXUXUXUXUXUX",
"UXUXUXUXUXUXUXUXUXUXUXUXUXUXUXUXUXUXUXUXUXUXUXUXUXUXUXUXUXUXUXUXUXUXUXUXUXUXUXUXUXUXUXUXUXUXUXUXUXUXUXUXUXUXUX",
"UXUXUXUXUXUXUXUXUXUXUXUXUXUXUXUXUXUXUXUXUXUXUXUXUXUXUXUXUXUXUXUXUXUXUXUXUXUXUXUXUXUXUXUXUXUXUXUXUXUXUXUXUXUXUX",
"UXUXUXUXUXUXUXUXUXUXUXUXUXUXUXUXUXUXUXUXUXUXUXUXUXUXUXUXUXUXUXUXUXUXUXUXUXUXUXUXUXUXUXUXUXUXUXUXUXUXUXUXUXUXUX",
"UXUXUXUXUXUXUXUXUXUXUXUXUXUXUXUXUXUXUXUXUXUXUXUXUXUXUXUXUXUXUXUXUXUXUXUXUXUXUXUXUXUXUXUXUXUXUXUXUXUXUXUXUXUXUX",
"UXUXUXUXUXUXUXUXUXUXUXUXUXUXUXUXUXUXUXUXUXUXUXUXUXUXUXUXUXUXUXUXUXUXUXUXUXUXUXUXUXUXUXUXUXUXUXUXUXUXUXUXUXUXUX",
"UXUXUXUXUXUXUXUXUXUXUXUXUXUXUXUXUXUXUXUXUXUXUXUXUXUXUXUXUXUXUXUXUXUXUXUXUXUXUXUXUXUXUXUXUXUXUXUXUXUXUXUXUXUXUX",
"UXUXUXUXUXUXUXUXUXUXUXUXUXUXUXUXUXUXUXUXUXUXUXUXUXUXUXUXUXUXUXUXUXUXUXUXUXUXUXUXUXUXUXUXUXUXUXUXUXUXUXUXUXUXUX",
"UXUXUXUXUXUXUXUXUXUXUXUXUXUXUXUXUXUXUXUXUXUXUXUXUXUXUXUXUXUXUXUXUXUXUXUXUXUXUXUXUXUXUXUXUXUXUXUXUXUXUXUXUXUXUX",
"UXUXUXUXUXUXUXUXUXUXUXUXUXUXUXUXUXUXUXUXUXUXUXUXUXUXUXUXUXUXUXUXUXUXUXUXUXUXUXUXUXUXUXUXUXUXUXUXUXUXUXUXUXUXUX",
"UXUXUXUXUXUXUXUXUXUXUXUXUXUXUXUXUXUXUXUXUXUXUXUXUXUXUXUXUXUXUXUXUXUXUXUXUXUXUXUXUXUXUXUXUXUXUXUXUXUXUXUXUXUXUX",
"UXUXUXUXUXUXUXUXUXUXUXUXUXUXUXUXUXUXUXUXUXUXUXUXUXUXUXUXUXUXUXUXUXUXUXUXUXUXUXUXUXUXUXUXUXUXUXUXUXUXUXUXUXUXUX",
"UXUXUXUXUXUXUXUXUXUXUXUXUXUXUXUXUXUXUXUXUXUXUXUXUXUXUXUXUXUXUXUXUXUXUXUXUXUXUXUXUXUXUXUXUXUXUXUXUXUXUXUXUXUXUX",
"UXUXUXUXUXUXUXUXUXUXUXUXUXUXUXUXUXUXUXUXUXUXUXUXUXUXUXUXUXUXUXUXUXUXUXUXUXUXUXUXUXUXUXUXUXUXUXUXUXUXUXUXUXUXUX",
"UXUXUXUXUXUXUXUXUXUXUXUXUXUXUXUXUXUXUXUXUXUXUXUXUXUXUXUXUXUXUXUXUXUXUXUXUXUXUXUXUXUXUXUXUXUXUXUXUXUXUXUXUXUXUX",
"UXUXUXUXUXUXUXUXUXUXUXUXUXUXUXUXUXUXUXUXUXUXUXUXUXUXUXUXUXUXUXUXUXUXUXUXUXUXUXUXUXUXUXUXUXUXUXUXUXUXUXUXUXUXUX",
"UXUXUXUXUXUXUXUXUXUXUXUXUXUXUXUXUXUXUXUXUXUXUXUXUXUXUXUXUXUXUXUXUXUXUXUXUXUXUXUXUXUXUXUXUXUXUXUXUXUXUXUXUXUXUX",
"UXUXUXUXUXUXUXUXUXUXUXUXUXUXUXUXUXUXUXUXUXUXUXUXUXUXUXUXUXUXUXUXUXUXUXUXUXUXUXUXUXUXUXUXUXUXUXUXUXUXUXUXUXUXUX",
"UXUXUXUXUXUXUXUXUXUXUXUXUXUXUXUXUXUXUXUXUXUXUXUXUX$ > r.t.a.a.t.s.: @ UXUXUXUXUXUXUXUXUXUXUXUXUXUXUXUXUXUXUXUX",
"UXUXUXUXUXUXUXUXUXUXUXUXUXUXUXUXUXUXUXUXUXUXUX$ J .X7XcXbXbXjXbXnX2X].G UXUXUXUXUXUXUXUXUXUXUXUXUXUXUXUXUXUXUX",
"UXUXUXUXUXUXUXUXUXUXUXUXUXUXUXUXUXUXUXUXUXUXU XXlX'.eX5X+XoX:X5X@X[.kXbX[.K UXUXUXUXUXUXUXUXUXUXUXUXUXUXUXUXUX",
"UXUXUXUXUXUXUXUXUXUXUXUXUXUXUXUXUXUXUXUXUXI nXiX4X:X>X0X@XOX0X3X:X>X8XeX1X+XH UXUXUXUXUXUXUXUXUXUXUXUXUXUXUXUX",
"UXUXUXUXUXUXUXUXUXUXUXUXUXUXUXUXUXUXUXUXUX7.NX_.:X5X0X2X<.9.`.eX7XqX7X0X,XuXyX; UXUXUXUXUXUXUXUXUXUXUXUXUXUXUX",
"UXUXUXUXUXUXUXUXUXUXUXUXUXUXUXUXUXUXUXUXUX7.ZX4X:XyX`.) W.&X=. .7X:.| q...).DX< UXUXUXUXUXUXUXUXUXUXUXUXUXUXUX",
"UXUXUXUXUXUXUXUXUXUXUXUXUXUXUXUXUXUXUXUXUXJ vXBXeX'.q.KX=X#.!.*X..^.=X@.%.W.h.UXUXUXUXUXUXUXUXUXUXUXUXUXUXUXUX",
"UXUXUXUXUXUXUXUXUXUXUXUXUXUXUXUXUXUXUXUXUXUXH ].NX3.~.PXw X o -Xq.-.e X o Q.@ UXUXUXUXUXUXUXUXUXUXUXUXUXUXUXUX",
"UXUXUXUXUXUXUXUXUXUXUXUXUXUXUXUXUXUXUXUXUXUXUXUXL d W.IX$.q +.LX .9.p o +.^.+ UXUXUXUXUXUXUXUXUXUXUXUXUXUXUXUX",
"UXUXUXUXUXUXUXUXUXUXUXUXUXUXUXUXUXUXUXUXUXUXUXUXs R / w.*.w.*.w.T U.mX>.0. .W H UXUXUXUXUXUXUXUXUXUXUXUXUXUXUX",
"UX2 u > UXUXUXUXUXUXUXUXUXUXUXUXUXUXUXUXUXUXUXy {.a.h.d L ^ R R ] ' bXzXf Y ,.Y.  UXUXUXUXUXUXUXUXUXUXUXUX2 2 ",
"i gXFX$X} UXUXUXUXUXUXUXUXUXUX$ UXUXUXUXUXUXUXUXI K ] i.p.~ E W s ' aXvX>.u ' 4.T.U + UXUXUXUXUXUXUXUXUXG bXW ",
"a :.bXCXAX6.UXUXUXUXUXUXUX1 0.DX;.y UXUXUXUXUXUXUXUX@ U.~ + UXUXUXP bXbX5.+ 0.7.;.SX|.> UXUXUXUXUXUXUXD hXNXY ",
"UXUXu ].BXNX6.UXUXUXUX; 6.BX:X(.kXGXH UXUXUXUX-.XX3 g.8.s.E.e.; UXK MXkX4.4.0.UXUXo.IX..UXUXUXUXUXUXF dXCXfXS ",
"UXUXUX; .XmXNX6.+ ; 0.AXyX! UXUX3 6.DXI UXUX/.gX{ A }.{ UXUXo.%Xy Y MXbX_.i UXUXUXUX) GXQ UXUXUXUXG fXDXdX( UX",
"UXUXUXUX-  XNXnXXX5XHX9Xy UXUXUXUXUX..DXQ R.VXt UXUXV V UXUXUXG T.p.rXZX` UXUXUXUXUXUX} SX[ * UXH gXGXE.= UXUX",
"UXUXUXUXUX; ).cXDXwX} - UXUXUXUXUXUXUXX.jX$X2 UXUXUXc.G.b UXUXUX4 : , y UXUXUXUXUXUXUXUX_ FX{.6.9XHXE.UXUXUXUX",
"UXUXUXUXUXUXUXU X.= UXUXUXUXUXUXUXUXUXUX$ @ UXUXUXUXv.D.F.b UXUXUXUXUXUXUXUXUXUXUXUXUXUXUX_ AXDXAXR.UXUXUXUXUX",
"UXUXUXUXUXUXUXUXUXUXUXUXUXUXUXUXUXUXUXUXUXUXUXUXUXUXv.S.C.F.x UXUXUXUXUXUXUXUXUXUXUXUXUXUXUX( `.G UXUXUXUXUXUX",
"UXUXUXUXUXUXUXUXUXUXUXUXUXUXUXUXUXUXUXUXUXUXUXUXUXUXv.D.C.A.m.9 : , < < < < < , UXUXUXUXUXUXUXUXUXUXUXUXUXUXUX",
"UXUXUXUXUXUXUXUXUXUXUXUXUXUXUXUXUXUXUXUX> W P % % & k b.A.C.Z.l 5.1.3.3.1.u.p.,.t.i UXUXUXUXUXUXUXUXUXUXUXUXUX",
"UXUXUXUXUXUXUXUXUXUXUXUXUXUXUXUXUXUXu g.h.8.u.OX'.8.e.k m.F.m.9 t.u.y.a.s.`.{.<.f.{.1 UXUXUXUXUXUXUXUXUXUXUXUX",
"UXUXUXUXUXUXUXUXUXUXUXUXUXUXUXUXUX7.,.5.>.:X:.W t UXUXUXz c 8 UXUXUXUXUXUXU cXnX<Xf UXUXUXUXUXUXUXUXUXUXUXUXUX",
"UXUXUXUXUXUXUXUXUXUXUXUXUXUXUXUX$ f.<.DX3X3 UXUXUXUXUXUXUXUXUXUXUXUXUXUXUXD yXNX4.UXUXUX6 h UXUXUXUXUXUXUXUXUX",
"UXUXUXUXUXUXUXUXUXUXUXUXUXUXUX6 UX1 p.+XNX(.; UXUXUXUXUXUXUXUXUXUXUXUXUXJ aXZX<.+ UXUXZ k.B.@ UXUXUXUXUXUXUXUX",
"UXUXUXUXUXUXUXUXUXUXUXUXUXUX7 B.h C d [ oXSX|.> UXUXUXUXUXUXUXUXUXUXUXH vXjX3.T T 5 C n.l.x.+ UXUXUXUXUXUXUXUX",
"UXUXUXUXUXUXUXUXUXUXUXUXUXUX7 B.n N.a.f ' .XZX|.; UXUXUXUXUXUXUXUXUXH vXhX+X~ ] f.2.L.c.M N.@ UXUXUXUXUXUXUXUX",
"UXUXUXUXUXUXUXUXUXUXUXUXUXUXh J.m J.tXy.f E 3XZX$X- UXUXUXUXUXUXUXD AXlX7X0XpXxXxXP.H.L.M z.UXUXUXUXUXUXUXUXUX",
"UXUXUXUXUXUXUXUXUXUXUXUXUXUX6 B k.K.J.nXcXpXcXbXR.UXUXUXUXUXUXUXUXy 5.uXrXeXrXiX#XM.n 5 h & UXUXUXUXUXUXUXUXUX",
"UXUXUXUXUXUXUXUXUXUXUXUXUXUXUX@ % N c u.Y.:.Y.y UXUXUXUXUXUXUXUXUXUXUX: * * = = & # # UXUXUXUXUXUXUXUXUXUXUXUX",
"UXUXUXUXUXUXUXUXUXUXUXUXUXUXUXUXUXUXUXUXUXUXUXUXUXUXUXUXUXUXUXUXUXUXUXUXUXUXUXUXUXUXUXUXUXUXUXUXUXUXUXUXUXUXUX",
"UXUXUXUXUXUXUXUXUXUXUXUXUXUXUXUXUXUXUXUXUXUXUXUXUXUXUXUXUXUXUXUXUXUXUXUXUXUXUXUXUXUXUXUXUXUXUXUXUXUXUXUXUXUXUX",
"UXUXUXUXUXUXUXUXUXUXUXUXUXUXUXUXUXUXUXUXUXUXUXUXUXUXUXUXUXUXUXUXUXUXUXUXUXUXUXUXUXUXUXUXUXUXUXUXUXUXUXUXUXUXUX",
"UXUXUXUXUXUXUXUXUXUXUXUXUXUXUXUXUXUXUXUXUXUXUXUXUXUXUXUXUXUXUXUXUXUXUXUXUXUXUXUXUXUXUXUXUXUXUXUXUXUXUXUXUXUXUX"
};
