/* XPM */
static char *_3234e8f59d44dafbda7aba5bce00455rk8r6oPUre5tGSpP_12[] = {
/* columns rows colors chars-per-pixel */
"55 55 256 2 ",
"   c #550000",
".  c black",
"X  c #0B1010",
"o  c #132223",
"O  c #172729",
"+  c #1A2C35",
"@  c #203032",
"#  c #233635",
"$  c #233E3C",
"%  c #233B46",
"&  c #294345",
"*  c #294947",
"=  c #2D4744",
"-  c #314441",
";  c #304040",
":  c #364245",
">  c #3B4747",
",  c #394A4A",
"<  c #3B4C4C",
"1  c #3D4E4D",
"2  c #36514E",
"3  c #345151",
"4  c #315553",
"5  c #395354",
"6  c #3A5754",
"7  c #3F5352",
"8  c #455253",
"9  c #465756",
"0  c #425757",
"q  c #3B4D5D",
"w  c #374D67",
"e  c #2F4660",
"r  c #333D61",
"t  c #3F295D",
"y  c #413369",
"u  c #49316E",
"i  c #3E3D7C",
"p  c #314C94",
"a  c #36518A",
"s  c #3F5A7C",
"d  c #445F77",
"f  c #49606B",
"g  c #4D6260",
"h  c #4D5F5D",
"j  c #495E5D",
"k  c #45605D",
"l  c #41655F",
"z  c #426966",
"x  c #456B6B",
"c  c #4A6B69",
"v  c #4F6765",
"b  c #536664",
"n  c #5B6868",
"m  c #546B69",
"M  c #586C6A",
"N  c #5B6E6B",
"B  c #5A716F",
"V  c #53746F",
"C  c #547675",
"Z  c #597773",
"A  c #5E7472",
"S  c #617575",
"D  c #5F7978",
"F  c #597B78",
"G  c #57807E",
"H  c #597F8C",
"J  c #5E8183",
"K  c #608581",
"L  c #648382",
"P  c #617D7C",
"I  c #677E7C",
"U  c #6C7F7D",
"Y  c #6E8182",
"T  c #6F8585",
"R  c #708C87",
"E  c #678C89",
"W  c #668F8F",
"Q  c #6A918E",
"!  c #728F8A",
"~  c #76928F",
"^  c #788D8A",
"/  c #7C928E",
"(  c #7F958F",
")  c #98928A",
"_  c #BC8D83",
"`  c #B5867B",
"'  c #AE7F72",
"]  c #AD766C",
"[  c #9E6D67",
"{  c #9C5F59",
"}  c #8E6475",
"|  c #7A6C9B",
" . c #7782A8",
".. c #648CB2",
"X. c #6285CE",
"o. c #5A7BC4",
"O. c #5C7CBD",
"+. c #5B7BAE",
"@. c #5279AE",
"#. c #4B6DB2",
"$. c #496DA2",
"%. c #4B6B9A",
"&. c #4B6A8D",
"*. c #516287",
"=. c #5D527D",
"-. c #5E4081",
";. c #5E3683",
":. c #5F2B8A",
">. c #65378F",
",. c #6F3A9C",
"<. c #783DA8",
"1. c #8043AD",
"2. c #8749B7",
"3. c #8F4BC0",
"4. c #8E50C6",
"5. c #964ECB",
"6. c #9D4CD1",
"7. c #A055D5",
"8. c #9F5AD9",
"9. c #A45ADC",
"0. c #A55DDF",
"q. c #A95FE4",
"w. c #B263EC",
"e. c #A679E6",
"r. c #8BADD8",
"t. c #87AEE0",
"y. c #83A7ED",
"u. c #7EA1DF",
"i. c #759AD9",
"p. c #7194D3",
"a. c #72A0C1",
"s. c #73B2A6",
"d. c #7CACA5",
"f. c #81ABA6",
"g. c #85A8A5",
"h. c #7FA7A3",
"j. c #7FA2AA",
"k. c #7DA2A1",
"l. c #77A39D",
"z. c #75A09B",
"x. c #749B98",
"c. c #799E98",
"v. c #7D9F9B",
"b. c #859E97",
"n. c #86A69D",
"m. c #92A398",
"M. c #AD9F91",
"N. c #A6A89C",
"B. c #91A4A2",
"V. c #8DABA5",
"C. c #87AEA8",
"Z. c #85B1AA",
"A. c #8DAFA9",
"S. c #93B0AA",
"D. c #8CB2AE",
"F. c #88B3AF",
"G. c #89B7B0",
"H. c #89BFB5",
"J. c #90BBB6",
"K. c #94B8B3",
"L. c #94B5B1",
"P. c #99B5B0",
"I. c #9CB7B1",
"U. c #9CBBB7",
"Y. c #ADC0B1",
"T. c #BDC4B1",
"R. c #B3C3B5",
"E. c #A4BEBB",
"W. c #9FC1BC",
"Q. c #9CC3BD",
"!. c #9AC6C1",
"~. c #9BC5CA",
"^. c #9CC3ED",
"/. c #A2C6DC",
"(. c #A2CBC7",
"). c #A6C6C5",
"_. c #A1C4C2",
"`. c #A5C7C2",
"'. c #A9C8C1",
"]. c #BFCFBD",
"[. c #B4D1C7",
"{. c #AED1CD",
"}. c #A7D4CA",
"|. c #AAD8D0",
" X c #ADD9D2",
".X c #B0DAD3",
"XX c #B4D6D2",
"oX c #B6D3D2",
"OX c #BAD8D2",
"+X c #B9DBD4",
"@X c #B5DFD7",
"#X c #B3E1DA",
"$X c #B8E1DA",
"%X c #B6E3DC",
"&X c #B9E6DF",
"*X c #BBE7DE",
"=X c #BBE5DC",
"-X c #BCE3D9",
";X c #BDE0DB",
":X c #BEDFDE",
">X c #BEE3E0",
",X c #BEE6E0",
"<X c #C0E8DF",
"1X c #C4E8E0",
"2X c #C5E3DF",
"3X c #C8E3DB",
"4X c #D8E2CD",
"5X c #DDDEC8",
"6X c #EEDEC4",
"7X c #F6E5CB",
"8X c #E7E9CF",
"9X c #DAEAD0",
"0X c #DCE9D4",
"qX c #D0EADD",
"wX c #CAECE4",
"eX c #C6EDE4",
"rX c #C7EEE7",
"tX c #C4EFE6",
"yX c #C3EFE9",
"uX c #C8F1EA",
"iX c #CAEFE7",
"pX c #CEF0E7",
"aX c #CEF2EA",
"sX c #CEF4EA",
"dX c #CFF6EB",
"fX c #CAF6ED",
"gX c #CAF4F0",
"hX c #CCF2F3",
"jX c #CDF6F0",
"kX c #CCF9F2",
"lX c #D0FAF2",
"zX c #D3F9F4",
"xX c #D1F7F3",
"cX c #D4F5F0",
"vX c #D3F8F0",
"bX c #D4FCF1",
"nX c #D6FCF1",
"mX c #DBF9F3",
"MX c #D6F9F5",
"NX c #D7F9F9",
"BX c #D8FEF8",
"VX c #D5FDF6",
"CX c #D2FDF8",
"ZX c #D6FEFC",
"AX c #DAFEFB",
"SX c #DAFEF7",
"DX c #DDFEF6",
"FX c #DDFEF9",
"GX c #DEFEFE",
"HX c #E1FEFE",
"JX c #E5FEFE",
"KX c #E9FEFE",
"LX c #F2FEFE",
"PX c #F9FEF5",
"IX c #FEFEEC",
"UX c None",
/* pixels */
"UXUXUXUXUXUXUXUXUXUXUXUXUXUXUXUXUXUXUXUXUXUXUXUXUXUXUXUXUXUXUXUXUXUXUXUXUXUXUXUXUXUXUXUXUXUXUXUXUXUXUXUXUXUXUX",
"UXUXUXUXUXUXUXUXUXUXUXUXUXUXUXUXUXUXUXUXUXUXUXUXUXUXUXUXUXUXUXUXUXUXUXUXUXUXUXUXUXUXUXUXUXUXUXUXUXUXUXUXUXUXUX",
"UXUXUXUXUXUXUXUXUXUXUXUXUXUXUXUXUXUXUXUXUXUXUXUXUXUXUXUXUXUXUXUXUXUXUXUXUXUXUXUXUXUXUXUXUXUXUXUXUXUXUXUXUXUXUX",
"UXUXUXUXUXUXUXUXUXUXUXUXUXUXUXUXUXUXUXUXUXUXUXUXUXUXUXUXUXUXUXUXUXUXUXUXUXUXUXUXUXUXUXUXUXUXUXUXUXUXUXUXUXUXUX",
"UXUXUXUXUXUXUXUXUXUXUXUXUXUXUXUXUXUXUXUXUXUXUXUXUXUXUXUXUXUXUXUXUXUXUXUXUXUXUXUXUXUXUXUXUXUXUXUXUXUXUXUXUXUXUX",
"UXUXUXUXUXUXUXUXUXUXUXUXUXUXUXUXUXUXUXUXUXUXUXUXUXUXUXUXUXUXUXUXUXUXUXUXUXUXUXUXUXUXUXUXUXUXUXUXUXUXUXUXUXUXUX",
"UXUXUXUXUXUXUXUXUXUXUXUXUXUXUXUXUXUXUXUXUXUXUXUXUXUXUXUXUXUXUXUXUXUXUXUXUXUXUXUXUXUXUXUXUXUXUXUXUXUXUXUXUXUXUX",
"UXUXUXUXUXUXUXUXUXUXUXUXUXUXUXUXUXUXUXUXUXUXUXUXUXUXUXUXUXUXUXUXUXUXUXUXUXUXUXUXUXUXUXUXUXUXUXUXUXUXUXUXUXUXUX",
"UXUXUXUXUXUXUXUXUXUXUXUXUXUXUXUXUXUXUXUXUXUXUXUXUXUXUXUXUXUXUXUXUXUXUXUXUXUXUXUXUXUXUXUXUXUXUXUXUXUXUXUXUXUXUX",
"UXUXUXUXUXUXUXUXUXUXUXUXUXUXUXUXUXUXUXUXUXUXUXUXUXUXUXUXUXUXUXUXUXUXUXUXUXUXUXUXUXUXUXUXUXUXUXUXUXUXUXUXUXUXUX",
"UXUXUXUXUXUXUXUXUXUXUXUXUXUXUXUXUXUXUXUXUXUXUXUXUXUXUXUXUXUXUXUXUXUXUXUXUXUXUXUXUXUXUXUXUXUXUXUXUXUXUXUXUXUXUX",
"UXUXUXUXUXUXUXUXUXUXUXUXUXUXUXUXUXUXUXUXUXUXUXUXUXUXUXUXUXUXUXUXUXUXUXUXUXUXUXUXUXUXUXUXUXUXUXUXUXUXUXUXUXUXUX",
"UXUXUXUXUXUXUXUXUXUXUXUXUXUXUXUXUXUXUXUXUXUXUXUXUXUXUXUXUXUXUXUXUXUXUXUXUXUXUXUXUXUXUXUXUXUXUXUXUXUXUXUXUXUXUX",
"UXUXUXUXUXUXUXUXUXUXUXUXUXUXUXUXUXUXUXUXUXUXUXUXUXUXUXUXUXUXUXUXUXUXUXUXUXUXUXUXUXUXUXUXUXUXUXUXUXUXUXUXUXUXUX",
"UXUXUXUXUXUXUXUXUXUXUXUXUXUXUXUXUXUXUXUXUXUXUXUXUXUXUXUXUXUXUXUXUXUXUXUXUXUXUXUXUXUXUXUXUXUXUXUXUXUXUXUXUXUXUX",
"UXUXUXUXUXUXUXUXUXUXUXUXUXUXUXUXUXUXUXUXUXUXUXUXUXUXUXUXUXUXUXUXUXUXUXUXUXUXUXUXUXUXUXUXUXUXUXUXUXUXUXUXUXUXUX",
"UXUXUXUXUXUXUXUXUXUXUXUXUXUXUXUXUXUXUXUXUXUXUXUXUXUXUXUXUXUXUXUXUXUXUXUXUXUXUXUXUXUXUXUXUXUXUXUXUXUXUXUXUXUXUX",
"UXUXUXUXUXUXUXUXUXUXUXUXUXUXUXUXUXUXUXUXUXUXUXUXUXUXUXUXUXUXUXUXUXUXUXUXUXUXUXUXUXUXUXUXUXUXUXUXUXUXUXUXUXUXUX",
"UXUXUXUXUXUXUXUXUXUXUXUXUXUXUXUXUXUXUXUXUXUXUXUXUXUXUXUXUXUXUXUXUXUXUXUXUXUXUXUXUXUXUXUXUXUXUXUXUXUXUXUXUXUXUX",
"UXUXUXUXUXUXUXUXUXUXUXUXUXUXUXUXUXUXUXUXUXUXUXUXUXUXUXUXUXUXUXUXUXUXUXUXUXUXUXUXUXUXUXUXUXUXUXUXUXUXUXUXUXUXUX",
"UXUXUXUXUXUXUXUXUXUXUXUXUXUXUXUXUXUXUXUXUXUXUXUXUXUXUXUXUXUXUXUXUXUXUXUXUXUXUXUXUXUXUXUXUXUXUXUXUXUXUXUXUXUXUX",
"UXUXUXUXUXUXUXUXUXUXUXUXUXUXUXUXUXUXUXUXUXUXUXUXUXUXUXUXUXUXUXUXUXUXUXUXUXUXUXUXUXUXUXUXUXUXUXUXUXUXUXUXUXUXUX",
"UXUXUXUXUXUXUXUXUXUXUXUXUXUXUXUXUXUXUXUXUXUXUXUXUXUXb D Z Z Z Z Z Z B UXUXUXUXUXUXUXUXUXUXUXUXUXUXUXUXUXUXUXUX",
"UXUXUXUXUXUXUXUXUXUXUXUXUXUXUXUXUXUXUXUXUXUXUXUX7 P.fXFXnXnXnXnXnXAXlX(.v.- UXUXUXUXUXUXUXUXUXUXUXUXUXUXUXUXUX",
"UXUXUXUXUXUXUXUXUXUXUXUXUXUXUXUXUXUXUXUXUXUXUX~ AXBX*X}.iXtXuXrXpXiX}.zXCXkXB UXUXUXUXUXUXUXUXUXUXUXUXUXUXUXUX",
"UXUXUXUXUXUXUXUXUXUXUXUXUXUXUXUXUXUXUXUXUXUX~ AX#X,X1X-XiX*X XyXtXrX*XrXrX%XjXD UXUXUXUXUXUXUXUXUXUXUXUXUXUXUX",
"UXUXUXUXUXUXUXUXUXUXUXUXUXUXUXUXUXUXUXUXUX; xXzX X-XwXaXdXtX=X&Xs.s.H.sXsX+XSX).UXUXUXUXUXUXUXUXUXUXUXUXUXUXUX",
"UXUXUXUXUXUXUXUXUXUXUXUXUXUXUXUXUXUXUXUXUX; hXNXuXeXpX;XZ.Z.Z.F.%XgX>X$X*X<XVX_.UXUXUXUXUXUXUXUXUXUXUXUXUXUXUX",
"UXUXUXUXUXUXUXUXUXUXUXUXUXUXUXUXUXUXUXUXUXUXS CXZXlX`.( T.M.M.T.b.).B./ n.n.n.S UXUXUXUXUXUXUXUXUXUXUXUXUXUXUX",
"UXUXUXUXUXUXUXUXUXUXUXUXUXUXUXUXUXUXUXUXUXUXUX0 A.*XR IX]     _ IX* R.IX{ ] 5XUXUXUXUXUXUXUXUXUXUXUXUXUXUXUXUX",
"UXUXUXUXUXUXUXUXUXUXUXUXUXUXUXUXUXUXUXUXUXUXUXUXo 4 z 4X6X' ' 7X].V V.N.[ _ 0X- UXUXUXUXUXUXUXUXUXUXUXUXUXUXUX",
"j 9 UXUXUXUXUXUXUXUXUXUXUXUXUXUXUXUXUXUXUXUXUXUXP v.Q C T.9X9XY.c K <X'.c.V F L.j UXUXUXUXUXUXUXUXUXUXUXUXUXUX",
"L HXN UXUXUXUXUXUXUXUXUXo I S./ $ UXUXUXUXUXUXUX! _.f.x.x.k.k.z.Z.G W.JXK.P h.!.L < 7 UXUXUXUXUXUXUXUXUXUXN M ",
"F HXmXM UXUXUXUXUXUXUXN OXJXJXKXcXD UXUXUXUXUXS g.6 4 F.l.z x z * $ `.MXzXF $ v.XXv.P.I.k UXUXUXUXUXUXUXUXXXE ",
"= XXKXvXN UXUXUXUXUXb.LXaX! < V.VXGXB UXUXUXU JX<X! v.fXW h.g.U./ UXW.BXzXz ! '.h UXUXE.KXM UXUXUXUXUXUXT HXJ ",
"UXI DXDXcXm UXUXUXB.KX/ ; UXUXUXk lXJXB X Y LX( UXc yXk.UXUXUX9 oXI ).zXgXx.V.UXUXUXUXUXP.KXn UXUXUXUXY LX:Xk ",
"UXUXI SXBXxXU.h V.KXB UXUXUXUXUXUXj jXFX3XJXR UXUXUX .| UXUXUXUX0 C {.HXGXF UXUXUXUXUXUXUXP.HXB UXUXT KXwX8 UX",
"UXUXUXU FXAXnXLXJXA UXUXUXUXUXUXUXUXb 2XsX^ UXUXUXUX:.6.1.UXUXUXUXUXS 1XL.UXUXUXUXUXUXUXUXUXS.nXP.K.KX1X8 UXUX",
"UXUXUXUXn `.JXI.v UXUXUXUXUXUXUXUXUXUX# @ UXUXUXUXUX2.q.0.<.UXUXUXUXUX@ UXUXUXUXUXUXUXUXUXUXUXS.KXFXn.7 UXUXUX",
"UXUXUXUXUXUX8 UXUXUXUXUXUXUXUXUXUXUXUXUXUXUXUXUXUXUX2.0.7.w.>.UXUXUXUXUXUXUXUXUXUXUXUXUXUXUXUXUX1 1 UXUXUXUXUX",
"UXUXUXUXUXUXUXUXUXUXUXUXUXUXUXUXUXUXUXUXUXUXUXUXUXUX<.q.7.9.4.t 2 2 5 5 5 5 5 3 UXUXUXUXUXUXUXUXUXUXUXUXUXUXUX",
"UXUXUXUXUXUXUXUXUXUXUXUXUXUXUXUXUXUXUXUX8 L F P 4 + y 3.0.8.8.;.F.G.G.G.G.d.l.Q.C.g UXUXUXUXUXUXUXUXUXUXUXUXUX",
"UXUXUXUXUXUXUXUXUXUXUXUXUXUXUXUXUXUXM K.C.J.f.F..X$XC.=.6.w.4.y h.f.h.h.v.(.|.J.d.#X7 UXUXUXUXUXUXUXUXUXUXUXUX",
"UXUXUXUXUXUXUXUXUXUXUXUXUXUXUXUXUXL.kXD.L.{.iX~ I A UXUX;.>.u UXUXUXUXUXUXD CXCX#Xf.0 UXUXUXUXUXUXUXUXUXUXUXUX",
"UXUXUXUXUXUXUXUXUXUXUXUXUXUXUXUX# &Xz.,XAXv O UXUXUXUXUXUXUXUXUXUXUXUXUXUXm fXVX_.E UXUXUXUXUXUXUXUXUXUXUXUXUX",
"UXUXUXUXUXUXUXUXUXUXUXUXUXUXUXw UXl Z.F.uXW.> UXUXUXUXUXUXUXUXUXUXUXUXUXS cXAXQ.K $ UXe d +.UXUXUXUXUXUXUXUXUX",
"UXUXUXUXUXUXUXUXUXUXUXUXUXUXe i.s &.G k.g.JX:X1 UXUXUXUXUXUXUXUXUXUXUXS NXMXD.W x.l H o...O.o UXUXUXUXUXUXUXUX",
"UXUXUXUXUXUXUXUXUXUXUXUXUXUXe i.$.p.x.C c.h.GX+X< UXUXUXUXUXUXUXUXUXA MXMX>XK E W !.^.#.$.p.+ UXUXUXUXUXUXUXUX",
"UXUXUXUXUXUXUXUXUXUXUXUXUXUXd u.$.u.hXc.F c S.KX2X: UXUXUXUXUXUXUXM JXbXiXaXlXzXAX/.X.t.@.O.UXUXUXUXUXUXUXUXUX",
"UXUXUXUXUXUXUXUXUXUXUXUXUXUXq %...y.u.ZXzXzXvXBXE.UXUXUXUXUXUXUXUXj A.dXsXsXfXjXzXr.a w &.w UXUXUXUXUXUXUXUXUX",
"UXUXUXUXUXUXUXUXUXUXUXUXUXUXUX+ % %.p j.Q.W._.g UXUXUXUXUXUXUXUXUXUXUX, = = = = & % UXUXUXUXUXUXUXUXUXUXUXUXUX",
"UXUXUXUXUXUXUXUXUXUXUXUXUXUXUXUXUXUXUXUXUXUXUXUXUXUXUXUXUXUXUXUXUXUXUXUXUXUXUXUXUXUXUXUXUXUXUXUXUXUXUXUXUXUXUX",
"UXUXUXUXUXUXUXUXUXUXUXUXUXUXUXUXUXUXUXUXUXUXUXUXUXUXUXUXUXUXUXUXUXUXUXUXUXUXUXUXUXUXUXUXUXUXUXUXUXUXUXUXUXUXUX",
"UXUXUXUXUXUXUXUXUXUXUXUXUXUXUXUXUXUXUXUXUXUXUXUXUXUXUXUXUXUXUXUXUXUXUXUXUXUXUXUXUXUXUXUXUXUXUXUXUXUXUXUXUXUXUX",
"UXUXUXUXUXUXUXUXUXUXUXUXUXUXUXUXUXUXUXUXUXUXUXUXUXUXUXUXUXUXUXUXUXUXUXUXUXUXUXUXUXUXUXUXUXUXUXUXUXUXUXUXUXUXUX"
};
