/* XPM */
static char *_3234e8f59d44dafbda7aba5bce00455rk8r6oPUre5tGSpP_13[] = {
/* columns rows colors chars-per-pixel */
"55 55 256 2 ",
"   c black",
".  c #020506",
"X  c #061B1B",
"o  c #132226",
"O  c #1A272E",
"+  c #1E2A31",
"@  c #233131",
"#  c #283738",
"$  c #243B46",
"%  c #27403D",
"&  c #2E3F3E",
"*  c #354343",
"=  c #2F4443",
"-  c #2C4745",
";  c #314746",
":  c #394C4A",
">  c #3C4E4C",
",  c #374F4D",
"<  c #2F4F4E",
"1  c #335352",
"2  c #395150",
"3  c #3E5151",
"4  c #435352",
"5  c #3F4F5B",
"6  c #365062",
"7  c #33475D",
"8  c #2B4258",
"9  c #303857",
"0  c #3B2E61",
"q  c #403871",
"w  c #494D75",
"e  c #55587C",
"r  c #455B73",
"t  c #3D635D",
"y  c #445C5E",
"u  c #455957",
"i  c #4C5F5D",
"p  c #4B6261",
"a  c #506462",
"s  c #4B6764",
"d  c #4F6D69",
"f  c #51736D",
"g  c #59706D",
"h  c #586D6B",
"j  c #625A5A",
"k  c #7A151C",
"l  c #893235",
"z  c #904141",
"x  c #9F5D5A",
"c  c #AC706B",
"v  c #A06C66",
"b  c #677270",
"n  c #607474",
"m  c #5C7472",
"M  c #537A75",
"N  c #5D7979",
"B  c #5A7D89",
"V  c #5D827F",
"C  c #61827F",
"Z  c #617E7B",
"A  c #677B7A",
"S  c #6A758A",
"D  c #6D7F7E",
"F  c #69827F",
"G  c #718683",
"H  c #638784",
"J  c #618D88",
"K  c #678C8A",
"L  c #6C8D8A",
"P  c #748C8A",
"I  c #71908E",
"U  c #699491",
"Y  c #749592",
"T  c #7A9591",
"R  c #7F9995",
"E  c #7D8D9C",
"W  c #789896",
"Q  c #6F9B98",
"!  c #759E99",
"~  c #78A29C",
"^  c #7AA29F",
"/  c #7BA7A3",
"(  c #81A6A3",
")  c #83A4AB",
"_  c #84A39D",
"`  c #8BA39E",
"'  c #96A498",
"]  c #8FA6A2",
"[  c #8FABA7",
"{  c #8FB0AC",
"}  c #88B0AC",
"|  c #87AFA9",
" . c #83B1A8",
".. c #7CB3AA",
"X. c #8AB5AF",
"o. c #8DB7B3",
"O. c #87BCB4",
"+. c #8CC2B8",
"@. c #92BEB7",
"#. c #90BBBE",
"$. c #88ACDA",
"%. c #87A7E1",
"&. c #83A5EE",
"*. c #7DA0E3",
"=. c #7799DA",
"-. c #7597D6",
";. c #6686D0",
":. c #627FC0",
">. c #6384B5",
",. c #6489AC",
"<. c #5E81A7",
"1. c #577CAB",
"2. c #5071AF",
"3. c #4B6BAE",
"4. c #4B6A99",
"5. c #446088",
"6. c #395993",
"7. c #364D90",
"8. c #453985",
"9. c #4F2E7B",
"0. c #532E82",
"q. c #5D3989",
"w. c #603592",
"e. c #693BA1",
"r. c #6E40A9",
"t. c #6D3DB4",
"y. c #7547BE",
"u. c #7C49C6",
"i. c #8449CE",
"p. c #7F4FCC",
"a. c #8056D8",
"s. c #8556DE",
"d. c #8859E0",
"f. c #8B5BE7",
"g. c #8F5DE8",
"h. c #985EED",
"j. c #9F70CF",
"k. c #B19890",
"l. c #C6ABA2",
"z. c #D1B7AD",
"x. c #B0B5A7",
"c. c #A6B7AA",
"v. c #9EB5A9",
"b. c #9AB6B4",
"n. c #9CB9B6",
"m. c #98BDBA",
"M. c #9FBFBA",
"N. c #9DC3BD",
"B. c #99C5BE",
"V. c #9FC8C4",
"C. c #9FC7CC",
"Z. c #9EC3EC",
"A. c #A3C6D7",
"S. c #ABC5C1",
"D. c #AEC3BB",
"F. c #A5C3BF",
"G. c #A7C7C3",
"H. c #A5CBC5",
"J. c #AACBC6",
"K. c #AACDC9",
"L. c #A1D1C9",
"P. c #A6D5CC",
"I. c #A8D4CE",
"U. c #ABD3CE",
"Y. c #AFD0CC",
"T. c #B0D3CC",
"R. c #B1D5CF",
"E. c #B5D6CF",
"W. c #C8D5C8",
"Q. c #D9D1C1",
"!. c #CCD6C7",
"~. c #BFDACE",
"^. c #B9DBD3",
"/. c #B9DBD6",
"(. c #B8DAD9",
"). c #B0D9D4",
"_. c #ADD9D2",
"`. c #ADDBD4",
"'. c #AEDDD6",
"]. c #B2DFD8",
"[. c #B4E2DB",
"{. c #B6E4DC",
"}. c #B8E3DC",
"|. c #BDE2DD",
" X c #BFE1DC",
".X c #BFE3DE",
"XX c #C0E4DF",
"oX c #BEE7E0",
"OX c #C0E7E1",
"+X c #C1E8E3",
"@X c #C1EAE3",
"#X c #C5E9E4",
"$X c #C7E8E3",
"%X c #CBE9E4",
"&X c #CEEAE5",
"*X c #CDEBE5",
"=X c #CCEBE6",
"-X c #CAECE6",
";X c #C8ECE7",
":X c #C7ECE6",
">X c #C6ECE6",
",X c #C4EBE5",
"<X c #C4ECE6",
"1X c #C2ECE5",
"2X c #C4EDE6",
"3X c #C5EEE8",
"4X c #C6EEE8",
"5X c #C8EEE8",
"6X c #C9EEE9",
"7X c #C9F0EA",
"8X c #CAF0E9",
"9X c #CCF0E9",
"0X c #CEF1EA",
"qX c #CFF0EA",
"wX c #CDF0EB",
"eX c #CCF0EB",
"rX c #CAF2EC",
"tX c #CAF2ED",
"yX c #C9F4ED",
"uX c #CBF5ED",
"iX c #CCF5EF",
"pX c #CEF6EF",
"aX c #CEF5EF",
"sX c #CFF2ED",
"dX c #D2F2EC",
"fX c #D3F5EF",
"gX c #D0F5F0",
"hX c #D3F6F3",
"jX c #CFF7F2",
"kX c #D1F8F2",
"lX c #D1FAF3",
"zX c #D2FAF4",
"xX c #D2FDF6",
"cX c #D3FEF8",
"vX c #D4FDF6",
"bX c #D5FAF5",
"nX c #D6F9F4",
"mX c #D6FBF3",
"MX c #D8FCF2",
"NX c #D8FAF6",
"BX c #D8FBF8",
"VX c #D8FEF7",
"CX c #DBFEFA",
"ZX c #D9FEFC",
"AX c #DCFEFE",
"SX c #E0FEFE",
"DX c #E4FEFE",
"FX c #E9FEFE",
"GX c #EDFEFE",
"HX c #F0FEFE",
"JX c #F6FEFE",
"KX c #F9FEF8",
"LX c #FEFEEA",
"PX c #FEFBE4",
"IX c #FDF1DA",
"UX c None",
/* pixels */
"UXUXUXUXUXUXUXUXUXUXUXUXUXUXUXUXUXUXUXUXUXUXUXUXUXUXUXUXUXUXUXUXUXUXUXUXUXUXUXUXUXUXUXUXUXUXUXUXUXUXUXUXUXUXUX",
"UXUXUXUXUXUXUXUXUXUXUXUXUXUXUXUXUXUXUXUXUXUXUXUXUXUXUXUXUXUXUXUXUXUXUXUXUXUXUXUXUXUXUXUXUXUXUXUXUXUXUXUXUXUXUX",
"UXUXUXUXUXUXUXUXUXUXUXUXUXUXUXUXUXUXUXUXUXUXUXUXUXUXUXUXUXUXUXUXUXUXUXUXUXUXUXUXUXUXUXUXUXUXUXUXUXUXUXUXUXUXUX",
"UXUXUXUXUXUXUXUXUXUXUXUXUXUXUXUXUXUXUXUXUXUXUXUXUXUXUXUXUXUXUXUXUXUXUXUXUXUXUXUXUXUXUXUXUXUXUXUXUXUXUXUXUXUXUX",
"UXUXUXUXUXUXUXUXUXUXUXUXUXUXUXUXUXUXUXUXUXUXUXUXUXUXUXUXUXUXUXUXUXUXUXUXUXUXUXUXUXUXUXUXUXUXUXUXUXUXUXUXUXUXUX",
"UXUXUXUXUXUXUXUXUXUXUXUXUXUXUXUXUXUXUXUXUXUXUXUXUXUXUXUXUXUXUXUXUXUXUXUXUXUXUXUXUXUXUXUXUXUXUXUXUXUXUXUXUXUXUX",
"UXUXUXUXUXUXUXUXUXUXUXUXUXUXUXUXUXUXUXUXUXUXUXUXUXUXUXUXUXUXUXUXUXUXUXUXUXUXUXUXUXUXUXUXUXUXUXUXUXUXUXUXUXUXUX",
"UXUXUXUXUXUXUXUXUXUXUXUXUXUXUXUXUXUXUXUXUXUXUXUXUXUXUXUXUXUXUXUXUXUXUXUXUXUXUXUXUXUXUXUXUXUXUXUXUXUXUXUXUXUXUX",
"UXUXUXUXUXUXUXUXUXUXUXUXUXUXUXUXUXUXUXUXUXUXUXUXUXUXUXUXUXUXUXUXUXUXUXUXUXUXUXUXUXUXUXUXUXUXUXUXUXUXUXUXUXUXUX",
"UXUXUXUXUXUXUXUXUXUXUXUXUXUXUXUXUXUXUXUXUXUXUXUXUXUXUXUXUXUXUXUXUXUXUXUXUXUXUXUXUXUXUXUXUXUXUXUXUXUXUXUXUXUXUX",
"UXUXUXUXUXUXUXUXUXUXUXUXUXUXUXUXUXUXUXUXUXUXUXUXUXUXUXUXUXUXUXUXUXUXUXUXUXUXUXUXUXUXUXUXUXUXUXUXUXUXUXUXUXUXUX",
"UXUXUXUXUXUXUXUXUXUXUXUXUXUXUXUXUXUXUXUXUXUXUXUXUXUXUXUXUXUXUXUXUXUXUXUXUXUXUXUXUXUXUXUXUXUXUXUXUXUXUXUXUXUXUX",
"UXUXUXUXUXUXUXUXUXUXUXUXUXUXUXUXUXUXUXUXUXUXUXUXUXUXUXUXUXUXUXUXUXUXUXUXUXUXUXUXUXUXUXUXUXUXUXUXUXUXUXUXUXUXUX",
"UXUXUXUXUXUXUXUXUXUXUXUXUXUXUXUXUXUXUXUXUXUXUXUXUXUXUXUXUXUXUXUXUXUXUXUXUXUXUXUXUXUXUXUXUXUXUXUXUXUXUXUXUXUXUX",
"UXUXUXUXUXUXUXUXUXUXUXUXUXUXUXUXUXUXUXUXUXUXUXUXUXUXUXUXUXUXUXUXUXUXUXUXUXUXUXUXUXUXUXUXUXUXUXUXUXUXUXUXUXUXUX",
"UXUXUXUXUXUXUXUXUXUXUXUXUXUXUXUXUXUXUXUXUXUXUXUXUXUXUXUXUXUXUXUXUXUXUXUXUXUXUXUXUXUXUXUXUXUXUXUXUXUXUXUXUXUXUX",
"UXUXUXUXUXUXUXUXUXUXUXUXUXUXUXUXUXUXUXUXUXUXUXUXUXUXUXUXUXUXUXUXUXUXUXUXUXUXUXUXUXUXUXUXUXUXUXUXUXUXUXUXUXUXUX",
"UXUXUXUXUXUXUXUXUXUXUXUXUXUXUXUXUXUXUXUXUXUXUXUXUXUXUXUXUXUXUXUXUXUXUXUXUXUXUXUXUXUXUXUXUXUXUXUXUXUXUXUXUXUXUX",
"UXUXUXUXUXUXUXUXUXUXUXUXUXUXUXUXUXUXUXUXUXUXUXUXUXUXUXUXUXUXUXUXUXUXUXUXUXUXUXUXUXUXUXUXUXUXUXUXUXUXUXUXUXUXUX",
"UXUXUXUXUXUXUXUXUXUXUXUXUXUXUXUXUXUXUXUXUXUXUXUXUXUXUXUXUXUXUXUXUXUXUXUXUXUXUXUXUXUXUXUXUXUXUXUXUXUXUXUXUXUXUX",
"UXUXUXUXUXUXUXUXUXUXUXUXUXUXUXUXUXUXUXUXUXUXUXUXUXUXUXUXUXUXUXUXUXUXUXUXUXUXUXUXUXUXUXUXUXUXUXUXUXUXUXUXUXUXUX",
"UXUXUXUXUXUXUXUXUXUXUXUXUXUXUXUXUXUXUXUXUXUXUXUXUXUXUXUXUX# % = & & & UXUXUXUXUXUXUXUXUXUXUXUXUXUXUXUXUXUXUXUX",
"UXUXUXUXUXUXUXUXUXUXUXUXUXUXUXUXUXUXUXUXUXUXUXUXUXUXUXh Y 3XoXoX.X:XR.m p UXUXUXUXUXUXUXUXUXUXUXUXUXUXUXUXUXUX",
"UXUXUXUXUXUXUXUXUXUXUXUXUXUXUXUXUXUXUXUXUXUXUXUX@ m R.CXCXaXaXpXpXgXgXAXaX{ 2 UXUXUXUXUXUXUXUXUXUXUXUXUXUXUXUX",
"UXUXUXUXUXUXUXUXUXUXUXUXUXUXUXUXUXUXUXUXUXUXUX3 Y.ZXbX#XH.:X6X5X5X5X5X:X3XxXcXI UXUXUXUXUXUXUXUXUXUXUXUXUXUXUX",
"UXUXUXUXUXUXUXUXUXUXUXUXUXUXUXUXUXUXUXUXUXUXUXM.AX9X:X>X{.4X8X:X8XwXdX6XL.6XuX@XP UXUXUXUXUXUXUXUXUXUXUXUXUXUX",
"UXUXUXUXUXUXUXUXUXUXUXUXUXUXUXUXUXUXUXUXUXUXUXK.kXV.;X5X7XrXY./.{.`.'.`.3X7X,XoX8XO UXUXUXUXUXUXUXUXUXUXUXUXUX",
"UXUXUXUXUXUXUXUXUXUXUXUXUXUXUXUXUXUXUXUXUXUXUXJ.SX1X:X5XiXpX0XfXI.....O.2XtX7XZX>XO UXUXUXUXUXUXUXUXUXUXUXUXUX",
"UXUXUXUXUXUXUXUXUXUXUXUXUXUXUXUXUXUXUXUXUXUXUXa @XAXfXsX@.@.B.m.@.+.O.'.lXtXkXdXn UXUXUXUXUXUXUXUXUXUXUXUXUXUX",
"UXUXUXUXUXUXUXUXUXUXUXUXUXUXUXUXUXUXUXUXUXUXUXUX: Y -Xn.v.x.' c.c.m.(.R W | ( 4 UXUXUXUXUXUXUXUXUXUXUXUXUXUXUX",
"UXUXUXUXUXUXUXUXUXUXUXUXUXUXUXUXUXUXUXUXUXUXUXUXUXUXX ' LXz k l IXD.1 W.Q.v z.G UXUXUXUXUXUXUXUXUXUXUXUXUXUXUX",
"UXUXUXUXUXUXUXUXUXUXUXUXi u UXUXUXUXUXUXUXUXUXUXUX, < _ LXc z c PX' } N.k.l z.~., UXUXUXUXUXUXUXUXUXUXUXUXUXUX",
"UXUXUXUXUXUXUXUXUXUXn E.HXFXP UXUXUXUXUXUXUXUX# ; V.~ M R c.v.v.] t ~ uX[ ` [ V V.X UX* & # UXUXUXUXUXUXUXUXUX",
"a > UXUXUXUXUXUXUXF GX$XR ^.HXP UXUXUXUXUXUX` AXm.( / / ~ Q / / ! ! M rXzXM H ~ ( H /.hXbX Xg UXUXUXUXUXUXg s ",
"L Y.UXUXUXUXUXUXF HX=X4 UX& G FXT UXUXUXUX] SXZ I Q t  .J U U H } I d wXVXV.X y F. XZ u P &XJX] UXUXUXUX+ wXK ",
"N HXG.UXUXUXUXD HX=X> UXUXUXUXG DXb.> . [ FXm UXUXy P.@.~ E UXUXF BXW +XzX_.f ZX[ UXUXUXUX# S.JX] UXUXUXF.DXN ",
"i =XDXM.UXUXG GX$X4 UXUXUXUXUXUXA HX>XM.SXh UXUXUXUXE S 9 UXUXUXUXg Y sXzXI.m.[ UXUXUXUXUXUXUXS.JX_ i b.SX,Xp ",
"UX[ SXcXJ.b.DX*X4 UXUXUXUXUXUXUXUXF 0XdXg UXUXUXUXUX0.p.r.UXUXUXUXUX2 hXFXH.; UXUXUXUXUXUXUXUXUXS.DXCXmXSX{ UX",
"UXUXS.SXDXGXXX4 UXUXUXUXUXUXUXUXUXUX@ @ UXUXUXUXUXUXy.f.g.r.UXUXUXUXUXh R i UXUXUXUXUXUXUXUXUXUXUXG.VXMXJ.UXUX",
"UXUXUXb.K.F @ UXUXUXUXUXUXUXUXUXUXUXUXUXUXUXUXUXUXUXy.d.a.h.w.UXUXUXUXUXUXUXUXUXUXUXUXUXUXUXUXUXUXUX: > UXUXUX",
"UXUXUXUXUXUXUXUXUXUXUXUXUXUXUXUXUXUXUXUXUXUXUXUXUXUXt.f.a.s.p.0 , 2 2 2 2 2 2 , UXUXUXUXUXUXUXUXUXUXUXUXUXUXUX",
"UXUXUXUXUXUXUXUXUXUXUXUXUXUXUXUXUXUXUXUXUXN C Z 1 8 q y.d.a.s.q.X.O.o.o.O. .^ B.} a UXUXUXUXUXUXUXUXUXUXUXUXUX",
"UXUXUXUXUXUXUXUXUXUXUXUXUXUXUXUXUXUXh m.! m.} } U.m. .e i.h.i.q ( ( ( ( ^ L.'.@./ [.3 UXUXUXUXUXUXUXUXUXUXUXUX",
"UXUXUXUXUXUXUXUXUXUXUXUXUXUXUXUXUX_ }.| N.o.XXW n UXUX+ 0.w.9.UXUXUXUXUXUXp I.ZX]. .u UXUXUXUXUXUXUXUXUXUXUXUX",
"UXUXUXUXUXUXUXUXUXUXUXUXUXUXUXUX@ V.U @XsXs @ UXUXUXUXUXUXUXUXUXUXUXUXUXUXs 2XVXN.U UXUX5 r UXUXUXUXUXUXUXUXUX",
"UXUXUXUXUXUXUXUXUXUXUXUXUXUXUX7 UXf J +XzXn UXUXUXUXUXUXUXUXUXUXUXUXUXUXn nXSXN.V % UX7 <.=.O UXUXUXUXUXUXUXUX",
"UXUXUXUXUXUXUXUXUXUXUXUXUXUX7 &.r 4 F K <XDXA UXUXUXUXUXUXUXUXUXUXUXUXn BXNX{ J Q t B :.<.2.O UXUXUXUXUXUXUXUX",
"UXUXUXUXUXUXUXUXUXUXUXUXUXUX8 =.1.,.P m V +XAXA UXUXUXUXUXUXUXUXUXUXm mXnX|.H K U B.Z.3.1.-.O UXUXUXUXUXUXUXUX",
"UXUXUXUXUXUXUXUXUXUXUXUXUXUXr *.6.=.T.d s C aXAXD UXUXUXUXUXUXUXUXh SXxXrXrXzXbXCXA.;.$.1.:.UXUXUXUXUXUXUXUXUX",
"UXUXUXUXUXUXUXUXUXUXUXUXUXUX7 4.,.&.%.jXVXkXbXSXhX* UXUXUXUXUXUXUXi 4XlXyXyXaXjXzX$.7.6 5.9 UXUXUXUXUXUXUXUXUX",
"UXUXUXUXUXUXUXUXUXUXUXUXUXUXUX+ $ 4.7.) N.m.N.( = UXUXUXUXUXUXUXUXUX% - - - ; - - $ UXUXUXUXUXUXUXUXUXUXUXUXUX",
"UXUXUXUXUXUXUXUXUXUXUXUXUXUXUXUXUXUXUXUXUXUXUXUXUXUXUXUXUXUXUXUXUXUXUXUXUXUXUXUXUXUXUXUXUXUXUXUXUXUXUXUXUXUXUX",
"UXUXUXUXUXUXUXUXUXUXUXUXUXUXUXUXUXUXUXUXUXUXUXUXUXUXUXUXUXUXUXUXUXUXUXUXUXUXUXUXUXUXUXUXUXUXUXUXUXUXUXUXUXUXUX",
"UXUXUXUXUXUXUXUXUXUXUXUXUXUXUXUXUXUXUXUXUXUXUXUXUXUXUXUXUXUXUXUXUXUXUXUXUXUXUXUXUXUXUXUXUXUXUXUXUXUXUXUXUXUXUX",
"UXUXUXUXUXUXUXUXUXUXUXUXUXUXUXUXUXUXUXUXUXUXUXUXUXUXUXUXUXUXUXUXUXUXUXUXUXUXUXUXUXUXUXUXUXUXUXUXUXUXUXUXUXUXUX"
};
